0
SECTION
2
HEADER
0
ENDSEC
0
SECTION
2
ENTITIES
0
POLYLINE
8
skin
66
1
10
0.0
20
0.0
30
0.0
70
64
71
870
72
1678
0
VERTEX
8
skin
10
9.750324
20
0.485312
30
-1.965215
70
192
0
VERTEX
8
skin
10
9.510229
20
0.421537
30
-1.965215
70
192
0
VERTEX
8
skin
10
9.337662
20
0.248970
30
-1.965216
70
192
0
VERTEX
8
skin
10
9.273888
20
0.008876
30
-1.965216
70
192
0
VERTEX
8
skin
10
9.337662
20
-0.231218
30
-1.965216
70
192
0
VERTEX
8
skin
10
9.510229
20
-0.407537
30
-1.965216
70
192
0
VERTEX
8
skin
10
9.750324
20
-0.471312
30
-1.965216
70
192
0
VERTEX
8
skin
10
9.990417
20
-0.407537
30
-1.965216
70
192
0
VERTEX
8
skin
10
10.166737
20
-0.231218
30
-1.965216
70
192
0
VERTEX
8
skin
10
10.230511
20
0.008876
30
-1.965216
70
192
0
VERTEX
8
skin
10
10.166737
20
0.248970
30
-1.965216
70
192
0
VERTEX
8
skin
10
9.990417
20
0.421537
30
-1.965215
70
192
0
VERTEX
8
skin
10
9.456537
20
0.518171
30
-3.959940
70
192
0
VERTEX
8
skin
10
9.756653
20
0.597890
30
-3.959940
70
192
0
VERTEX
8
skin
10
9.240828
20
0.302462
30
-3.959940
70
192
0
VERTEX
8
skin
10
9.161110
20
0.002345
30
-3.959940
70
192
0
VERTEX
8
skin
10
9.240828
20
-0.297773
30
-3.959940
70
192
0
VERTEX
8
skin
10
9.456537
20
-0.518171
30
-3.959940
70
192
0
VERTEX
8
skin
10
9.756655
20
-0.597890
30
-3.959940
70
192
0
VERTEX
8
skin
10
10.056770
20
-0.518171
30
-3.959940
70
192
0
VERTEX
8
skin
10
10.277170
20
-0.297772
30
-3.959940
70
192
0
VERTEX
8
skin
10
10.356888
20
0.002345
30
-3.959940
70
192
0
VERTEX
8
skin
10
10.277170
20
0.302462
30
-3.959940
70
192
0
VERTEX
8
skin
10
10.056770
20
0.518171
30
-3.959940
70
192
0
VERTEX
8
skin
10
9.756655
20
0.597890
30
0.281785
70
192
0
VERTEX
8
skin
10
9.456537
20
0.518172
30
0.281785
70
192
0
VERTEX
8
skin
10
9.240828
20
0.302462
30
0.281785
70
192
0
VERTEX
8
skin
10
9.161110
20
0.002345
30
0.281785
70
192
0
VERTEX
8
skin
10
9.240828
20
-0.297772
30
0.281785
70
192
0
VERTEX
8
skin
10
9.456537
20
-0.518171
30
0.281785
70
192
0
VERTEX
8
skin
10
9.756653
20
-0.597890
30
0.281785
70
192
0
VERTEX
8
skin
10
10.056770
20
-0.518171
30
0.281785
70
192
0
VERTEX
8
skin
10
10.277170
20
-0.297773
30
0.281785
70
192
0
VERTEX
8
skin
10
10.356888
20
0.002344
30
0.281785
70
192
0
VERTEX
8
skin
10
10.277170
20
0.302462
30
0.281785
70
192
0
VERTEX
8
skin
10
10.056770
20
0.518172
30
0.281785
70
192
0
VERTEX
8
skin
10
9.018999
20
1.597000
30
0.374423
70
192
0
VERTEX
8
skin
10
9.322998
20
1.677000
30
0.374423
70
192
0
VERTEX
8
skin
10
9.018999
20
1.597000
30
0.827785
70
192
0
VERTEX
8
skin
10
9.456854
20
0.518655
30
0.734423
70
192
0
VERTEX
8
skin
10
9.756344
20
0.597855
30
0.734423
70
192
0
VERTEX
8
skin
10
9.322998
20
1.677000
30
0.827785
70
192
0
VERTEX
8
skin
10
9.161400
20
0.002400
30
0.734423
70
192
0
VERTEX
8
skin
10
9.240345
20
0.302145
30
0.734423
70
192
0
VERTEX
8
skin
10
9.456970
20
-0.518400
30
0.734423
70
192
0
VERTEX
8
skin
10
9.240599
20
-0.297600
30
0.734423
70
192
0
VERTEX
8
skin
10
10.219963
20
-1.618131
30
0.377061
70
192
0
VERTEX
8
skin
10
9.756310
20
-0.597600
30
0.734423
70
192
0
VERTEX
8
skin
10
10.056599
20
-0.518400
30
0.734423
70
192
0
VERTEX
8
skin
10
11.722450
20
-0.679716
30
0.717061
70
192
0
VERTEX
8
skin
10
11.722450
20
-0.687716
30
0.287061
70
192
0
VERTEX
8
skin
10
10.356853
20
0.002145
30
0.734423
70
192
0
VERTEX
8
skin
10
10.277655
20
-0.297345
30
0.734423
70
192
0
VERTEX
8
skin
10
10.994999
20
1.145000
30
0.114423
70
192
0
VERTEX
8
skin
10
10.778999
20
1.353001
30
0.114423
70
192
0
VERTEX
8
skin
10
10.056229
20
0.518400
30
0.734423
70
192
0
VERTEX
8
skin
10
10.277399
20
0.302028
30
0.734423
70
192
0
VERTEX
8
skin
10
10.994999
20
1.145000
30
0.567784
70
192
0
VERTEX
8
skin
10
10.778999
20
1.353001
30
0.567784
70
192
0
VERTEX
8
skin
10
8.195000
20
1.095000
30
0.194423
70
192
0
VERTEX
8
skin
10
8.080677
20
0.749883
30
0.194423
70
192
0
VERTEX
8
skin
10
7.984999
20
-0.715000
30
0.474423
70
192
0
VERTEX
8
skin
10
8.239010
20
-0.969796
30
0.474423
70
192
0
VERTEX
8
skin
10
9.844999
20
-1.635000
30
0.404423
70
192
0
VERTEX
8
skin
10
11.584999
20
-0.985000
30
0.274423
70
192
0
VERTEX
8
skin
10
8.904999
20
3.145001
30
0.284423
70
192
0
VERTEX
8
skin
10
9.209000
20
3.231002
30
0.294423
70
192
0
VERTEX
8
skin
10
8.931000
20
3.178999
30
0.617785
70
192
0
VERTEX
8
skin
10
9.234999
20
3.265001
30
0.627784
70
192
0
VERTEX
8
skin
10
6.994999
20
1.025000
30
0.684423
70
192
0
VERTEX
8
skin
10
6.924999
20
0.745000
30
0.674423
70
192
0
VERTEX
8
skin
10
6.970997
20
1.055001
30
1.064423
70
192
0
VERTEX
8
skin
10
6.900997
20
0.775000
30
1.054423
70
192
0
VERTEX
8
skin
10
8.081547
20
0.750049
30
0.647061
70
192
0
VERTEX
8
skin
10
8.193546
20
1.094050
30
0.647061
70
192
0
VERTEX
8
skin
10
6.540997
20
-1.565001
30
0.244423
70
192
0
VERTEX
8
skin
10
6.764999
20
-1.845001
30
0.234423
70
192
0
VERTEX
8
skin
10
6.504997
20
-1.565000
30
0.547785
70
192
0
VERTEX
8
skin
10
6.728998
20
-1.845000
30
0.537785
70
192
0
VERTEX
8
skin
10
8.240311
20
-0.970482
30
0.927061
70
192
0
VERTEX
8
skin
10
7.984312
20
-0.714482
30
0.927061
70
192
0
VERTEX
8
skin
10
10.645000
20
-3.125001
30
0.814423
70
192
0
VERTEX
8
skin
10
10.370998
20
-3.206001
30
0.827784
70
192
0
VERTEX
8
skin
10
9.843964
20
-1.634131
30
0.857061
70
192
0
VERTEX
8
skin
10
10.364998
20
-3.265001
30
1.167784
70
192
0
VERTEX
8
skin
10
10.639000
20
-3.184000
30
1.154423
70
192
0
VERTEX
8
skin
10
10.211964
20
-1.530130
30
0.867061
70
192
0
VERTEX
8
skin
10
13.342999
20
-1.157000
30
0.601061
70
192
0
VERTEX
8
skin
10
13.485001
20
-0.865000
30
0.631061
70
192
0
VERTEX
8
skin
10
11.586452
20
-0.983717
30
0.727061
70
192
0
VERTEX
8
skin
10
13.353001
20
-1.127000
30
0.864423
70
192
0
VERTEX
8
skin
10
13.494999
20
-0.835000
30
0.894423
70
192
0
VERTEX
8
skin
10
11.875000
20
2.525001
30
1.094423
70
192
0
VERTEX
8
skin
10
11.665001
20
2.725001
30
1.094423
70
192
0
VERTEX
8
skin
10
11.764999
20
2.445001
30
1.364423
70
192
0
VERTEX
8
skin
10
11.555000
20
2.645001
30
1.364423
70
192
0
VERTEX
8
skin
10
8.244999
20
0.895000
30
1.774423
70
192
0
VERTEX
8
skin
10
8.479546
20
1.104294
30
1.774423
70
192
0
VERTEX
8
skin
10
8.445057
20
0.796292
30
1.989107
70
192
0
VERTEX
8
skin
10
9.425959
20
0.082280
30
1.144423
70
192
0
VERTEX
8
skin
10
9.702438
20
0.358760
30
1.154423
70
192
0
VERTEX
8
skin
10
8.609240
20
0.942798
30
1.989107
70
192
0
VERTEX
8
skin
10
8.974998
20
-0.095000
30
2.344423
70
192
0
VERTEX
8
skin
10
9.045227
20
-0.391425
30
2.344423
70
192
0
VERTEX
8
skin
10
9.132933
20
-0.016088
30
2.455303
70
192
0
VERTEX
8
skin
10
9.244999
20
-0.275000
30
2.474423
70
192
0
VERTEX
8
skin
10
9.512360
20
-0.309400
30
1.124423
70
192
0
VERTEX
8
skin
10
8.734999
20
-1.855000
30
1.974423
70
192
0
VERTEX
8
skin
10
9.025518
20
-1.949396
30
1.974423
70
192
0
VERTEX
8
skin
10
8.834305
20
-1.669532
30
2.115242
70
192
0
VERTEX
8
skin
10
9.037670
20
-1.735608
30
2.115242
70
192
0
VERTEX
8
skin
10
9.927078
20
-0.447640
30
1.154423
70
192
0
VERTEX
8
skin
10
10.849546
20
-0.925707
30
2.034423
70
192
0
VERTEX
8
skin
10
10.614998
20
-1.135000
30
2.034423
70
192
0
VERTEX
8
skin
10
10.511955
20
-1.037137
30
2.228230
70
192
0
VERTEX
8
skin
10
10.676138
20
-0.890632
30
2.228230
70
192
0
VERTEX
8
skin
10
10.226599
20
-0.125080
30
1.164423
70
192
0
VERTEX
8
skin
10
11.224998
20
0.365000
30
2.544423
70
192
0
VERTEX
8
skin
10
11.115002
20
0.615000
30
2.604424
70
192
0
VERTEX
8
skin
10
10.088360
20
0.260840
30
1.174423
70
192
0
VERTEX
8
skin
10
11.051453
20
0.234645
30
2.812941
70
192
0
VERTEX
8
skin
10
11.002293
20
0.442143
30
2.812941
70
192
0
VERTEX
8
skin
10
10.494999
20
1.895001
30
1.984423
70
192
0
VERTEX
8
skin
10
10.208111
20
1.982268
30
1.984423
70
192
0
VERTEX
8
skin
10
10.409679
20
1.748168
30
2.185450
70
192
0
VERTEX
8
skin
10
10.208858
20
1.809256
30
2.185450
70
192
0
VERTEX
8
skin
10
1.951937
20
-1.143023
30
3.886280
70
192
0
VERTEX
8
skin
10
2.233297
20
-0.017585
30
3.886280
70
192
0
VERTEX
8
skin
10
-0.017586
20
-0.017585
30
4.484169
70
192
0
VERTEX
8
skin
10
1.107859
20
-1.951934
30
3.886280
70
192
0
VERTEX
8
skin
10
-0.017586
20
-2.268461
30
3.886280
70
192
0
VERTEX
8
skin
10
-1.143024
20
-1.951934
30
3.886280
70
192
0
VERTEX
8
skin
10
-1.951935
20
-1.143023
30
3.886280
70
192
0
VERTEX
8
skin
10
-2.268465
20
-0.017585
30
3.886280
70
192
0
VERTEX
8
skin
10
-1.951935
20
1.107855
30
3.886280
70
192
0
VERTEX
8
skin
10
-1.143024
20
1.951934
30
3.886280
70
192
0
VERTEX
8
skin
10
-0.017586
20
2.233294
30
3.886280
70
192
0
VERTEX
8
skin
10
1.107859
20
1.951934
30
3.886280
70
192
0
VERTEX
8
skin
10
1.951937
20
1.107855
30
3.886280
70
192
0
VERTEX
8
skin
10
3.358736
20
-1.951934
30
2.233286
70
192
0
VERTEX
8
skin
10
3.886290
20
-0.017585
30
2.233286
70
192
0
VERTEX
8
skin
10
1.951937
20
-3.393902
30
2.233286
70
192
0
VERTEX
8
skin
10
-0.017586
20
-3.886284
30
2.233286
70
192
0
VERTEX
8
skin
10
-1.951935
20
-3.393902
30
2.233286
70
192
0
VERTEX
8
skin
10
-3.393904
20
-1.951934
30
2.233286
70
192
0
VERTEX
8
skin
10
-3.886283
20
-0.017585
30
2.233286
70
192
0
VERTEX
8
skin
10
-3.393904
20
1.951934
30
2.233286
70
192
0
VERTEX
8
skin
10
-1.951935
20
3.358734
30
2.233286
70
192
0
VERTEX
8
skin
10
-0.017586
20
3.886284
30
2.233286
70
192
0
VERTEX
8
skin
10
1.951937
20
3.358734
30
2.233286
70
192
0
VERTEX
8
skin
10
3.358736
20
1.951934
30
2.233286
70
192
0
VERTEX
8
skin
10
3.886290
20
-2.268461
30
-0.017593
70
192
0
VERTEX
8
skin
10
4.484179
20
-0.017585
30
-0.017593
70
192
0
VERTEX
8
skin
10
2.233297
20
-3.886284
30
-0.017593
70
192
0
VERTEX
8
skin
10
-0.017586
20
-4.484174
30
-0.017593
70
192
0
VERTEX
8
skin
10
-2.268465
20
-3.886284
30
-0.017593
70
192
0
VERTEX
8
skin
10
-3.886283
20
-2.268461
30
-0.017593
70
192
0
VERTEX
8
skin
10
-4.484176
20
-0.017585
30
-0.017593
70
192
0
VERTEX
8
skin
10
-3.886283
20
2.233294
30
-0.017593
70
192
0
VERTEX
8
skin
10
-2.268465
20
3.886284
30
-0.017593
70
192
0
VERTEX
8
skin
10
-0.017586
20
4.484174
30
-0.017593
70
192
0
VERTEX
8
skin
10
2.233297
20
3.886284
30
-0.017593
70
192
0
VERTEX
8
skin
10
3.886290
20
2.233294
30
-0.017593
70
192
0
VERTEX
8
skin
10
3.358736
20
-1.951934
30
-2.268473
70
192
0
VERTEX
8
skin
10
3.886290
20
-0.017585
30
-2.268473
70
192
0
VERTEX
8
skin
10
1.951937
20
-3.393902
30
-2.268473
70
192
0
VERTEX
8
skin
10
-0.017586
20
-3.886284
30
-2.268473
70
192
0
VERTEX
8
skin
10
-1.951935
20
-3.393902
30
-2.268473
70
192
0
VERTEX
8
skin
10
-3.393904
20
-1.951934
30
-2.268473
70
192
0
VERTEX
8
skin
10
-3.886283
20
-0.017585
30
-2.268473
70
192
0
VERTEX
8
skin
10
-3.393904
20
1.951934
30
-2.268473
70
192
0
VERTEX
8
skin
10
-1.951935
20
3.358734
30
-2.268473
70
192
0
VERTEX
8
skin
10
-0.017586
20
3.886284
30
-2.268473
70
192
0
VERTEX
8
skin
10
1.951937
20
3.358734
30
-2.268473
70
192
0
VERTEX
8
skin
10
3.358736
20
1.951934
30
-2.268473
70
192
0
VERTEX
8
skin
10
1.951937
20
-1.143023
30
-3.886290
70
192
0
VERTEX
8
skin
10
2.233297
20
-0.017585
30
-3.886290
70
192
0
VERTEX
8
skin
10
1.107859
20
-1.951934
30
-3.886290
70
192
0
VERTEX
8
skin
10
-0.017586
20
-2.268461
30
-3.886290
70
192
0
VERTEX
8
skin
10
-1.143024
20
-1.951934
30
-3.886290
70
192
0
VERTEX
8
skin
10
-1.951935
20
-1.143023
30
-3.886290
70
192
0
VERTEX
8
skin
10
-2.268465
20
-0.017585
30
-3.886290
70
192
0
VERTEX
8
skin
10
-1.951935
20
1.107855
30
-3.886290
70
192
0
VERTEX
8
skin
10
-1.143024
20
1.951934
30
-3.886290
70
192
0
VERTEX
8
skin
10
-0.017586
20
2.233294
30
-3.886290
70
192
0
VERTEX
8
skin
10
1.107859
20
1.951934
30
-3.886290
70
192
0
VERTEX
8
skin
10
1.951937
20
1.107855
30
-3.886290
70
192
0
VERTEX
8
skin
10
-0.017586
20
-0.017585
30
-4.484180
70
192
0
VERTEX
8
skin
10
1.951934
20
-1.143023
30
3.886284
70
192
0
VERTEX
8
skin
10
2.233294
20
-0.017583
30
3.886284
70
192
0
VERTEX
8
skin
10
-0.017584
20
-0.017583
30
4.484172
70
192
0
VERTEX
8
skin
10
1.107855
20
-1.951933
30
3.886284
70
192
0
VERTEX
8
skin
10
-0.017584
20
-2.268463
30
3.886284
70
192
0
VERTEX
8
skin
10
-1.143026
20
-1.951933
30
3.886284
70
192
0
VERTEX
8
skin
10
-1.951931
20
-1.143023
30
3.886284
70
192
0
VERTEX
8
skin
10
-2.268463
20
-0.017583
30
3.886284
70
192
0
VERTEX
8
skin
10
-1.951931
20
1.107855
30
3.886284
70
192
0
VERTEX
8
skin
10
-1.143026
20
1.951934
30
3.886284
70
192
0
VERTEX
8
skin
10
-0.017584
20
2.233293
30
3.886284
70
192
0
VERTEX
8
skin
10
1.107855
20
1.951934
30
3.886284
70
192
0
VERTEX
8
skin
10
1.951934
20
1.107855
30
3.886284
70
192
0
VERTEX
8
skin
10
3.358733
20
-1.951933
30
2.233294
70
192
0
VERTEX
8
skin
10
3.886283
20
-0.017583
30
2.233294
70
192
0
VERTEX
8
skin
10
1.951934
20
-3.393903
30
2.233294
70
192
0
VERTEX
8
skin
10
-0.017584
20
-3.886282
30
2.233294
70
192
0
VERTEX
8
skin
10
-1.951931
20
-3.393903
30
2.233294
70
192
0
VERTEX
8
skin
10
-3.393902
20
-1.951933
30
2.233294
70
192
0
VERTEX
8
skin
10
-3.886280
20
-0.017583
30
2.233294
70
192
0
VERTEX
8
skin
10
-3.393902
20
1.951934
30
2.233294
70
192
0
VERTEX
8
skin
10
-1.951931
20
3.358731
30
2.233294
70
192
0
VERTEX
8
skin
10
-0.017584
20
3.886284
30
2.233294
70
192
0
VERTEX
8
skin
10
1.951934
20
3.358731
30
2.233294
70
192
0
VERTEX
8
skin
10
3.358733
20
1.951934
30
2.233294
70
192
0
VERTEX
8
skin
10
3.886284
20
-2.268463
30
-0.017587
70
192
0
VERTEX
8
skin
10
4.484173
20
-0.017583
30
-0.017587
70
192
0
VERTEX
8
skin
10
2.233294
20
-3.886282
30
-0.017587
70
192
0
VERTEX
8
skin
10
-0.017584
20
-4.484172
30
-0.017587
70
192
0
VERTEX
8
skin
10
-2.268463
20
-3.886282
30
-0.017587
70
192
0
VERTEX
8
skin
10
-3.886280
20
-2.268463
30
-0.017587
70
192
0
VERTEX
8
skin
10
-4.484173
20
-0.017583
30
-0.017587
70
192
0
VERTEX
8
skin
10
-3.886280
20
2.233293
30
-0.017587
70
192
0
VERTEX
8
skin
10
-2.268463
20
3.886284
30
-0.017587
70
192
0
VERTEX
8
skin
10
-0.017584
20
4.484173
30
-0.017587
70
192
0
VERTEX
8
skin
10
2.233294
20
3.886284
30
-0.017587
70
192
0
VERTEX
8
skin
10
3.886283
20
2.233293
30
-0.017587
70
192
0
VERTEX
8
skin
10
3.358733
20
-1.951933
30
-2.268466
70
192
0
VERTEX
8
skin
10
3.886283
20
-0.017583
30
-2.268466
70
192
0
VERTEX
8
skin
10
1.951934
20
-3.393903
30
-2.268466
70
192
0
VERTEX
8
skin
10
-0.017584
20
-3.886282
30
-2.268466
70
192
0
VERTEX
8
skin
10
-1.951931
20
-3.393903
30
-2.268466
70
192
0
VERTEX
8
skin
10
-3.393902
20
-1.951933
30
-2.268466
70
192
0
VERTEX
8
skin
10
-3.886280
20
-0.017583
30
-2.268466
70
192
0
VERTEX
8
skin
10
-3.393902
20
1.951934
30
-2.268466
70
192
0
VERTEX
8
skin
10
-1.951931
20
3.358731
30
-2.268466
70
192
0
VERTEX
8
skin
10
-0.017584
20
3.886284
30
-2.268466
70
192
0
VERTEX
8
skin
10
1.951934
20
3.358731
30
-2.268466
70
192
0
VERTEX
8
skin
10
3.358733
20
1.951934
30
-2.268466
70
192
0
VERTEX
8
skin
10
1.951934
20
-1.143023
30
-3.886285
70
192
0
VERTEX
8
skin
10
2.233294
20
-0.017583
30
-3.886285
70
192
0
VERTEX
8
skin
10
1.107855
20
-1.951933
30
-3.886285
70
192
0
VERTEX
8
skin
10
-0.017584
20
-2.268463
30
-3.886285
70
192
0
VERTEX
8
skin
10
-1.143026
20
-1.951933
30
-3.886285
70
192
0
VERTEX
8
skin
10
-1.951931
20
-1.143023
30
-3.886285
70
192
0
VERTEX
8
skin
10
-2.268463
20
-0.017583
30
-3.886285
70
192
0
VERTEX
8
skin
10
-1.951931
20
1.107855
30
-3.886285
70
192
0
VERTEX
8
skin
10
-1.143026
20
1.951934
30
-3.886285
70
192
0
VERTEX
8
skin
10
-0.017584
20
2.233293
30
-3.886285
70
192
0
VERTEX
8
skin
10
1.107855
20
1.951934
30
-3.886285
70
192
0
VERTEX
8
skin
10
1.951934
20
1.107855
30
-3.886285
70
192
0
VERTEX
8
skin
10
-0.017584
20
-0.017583
30
-4.484174
70
192
0
VERTEX
8
skin
10
1.626612
20
-0.952521
30
3.238567
70
192
0
VERTEX
8
skin
10
1.861079
20
-0.014655
30
3.238567
70
192
0
VERTEX
8
skin
10
-0.014654
20
-0.014655
30
3.736808
70
192
0
VERTEX
8
skin
10
0.923212
20
-1.626611
30
3.238567
70
192
0
VERTEX
8
skin
10
-0.014654
20
-1.890387
30
3.238567
70
192
0
VERTEX
8
skin
10
-0.952521
20
-1.626611
30
3.238567
70
192
0
VERTEX
8
skin
10
-1.626612
20
-0.952521
30
3.238567
70
192
0
VERTEX
8
skin
10
-1.890387
20
-0.014655
30
3.238567
70
192
0
VERTEX
8
skin
10
-1.626612
20
0.923211
30
3.238567
70
192
0
VERTEX
8
skin
10
-0.952521
20
1.626611
30
3.238567
70
192
0
VERTEX
8
skin
10
-0.014654
20
1.861078
30
3.238567
70
192
0
VERTEX
8
skin
10
0.923212
20
1.626611
30
3.238567
70
192
0
VERTEX
8
skin
10
1.626612
20
0.923211
30
3.238567
70
192
0
VERTEX
8
skin
10
2.798945
20
-1.626611
30
1.861075
70
192
0
VERTEX
8
skin
10
3.238570
20
-0.014655
30
1.861075
70
192
0
VERTEX
8
skin
10
1.626612
20
-2.828254
30
1.861075
70
192
0
VERTEX
8
skin
10
-0.014654
20
-3.238570
30
1.861075
70
192
0
VERTEX
8
skin
10
-1.626612
20
-2.828254
30
1.861075
70
192
0
VERTEX
8
skin
10
-2.828253
20
-1.626611
30
1.861075
70
192
0
VERTEX
8
skin
10
-3.238570
20
-0.014655
30
1.861075
70
192
0
VERTEX
8
skin
10
-2.828253
20
1.626611
30
1.861075
70
192
0
VERTEX
8
skin
10
-1.626612
20
2.798944
30
1.861075
70
192
0
VERTEX
8
skin
10
-0.014654
20
3.238570
30
1.861075
70
192
0
VERTEX
8
skin
10
1.626612
20
2.798944
30
1.861075
70
192
0
VERTEX
8
skin
10
2.798945
20
1.626611
30
1.861075
70
192
0
VERTEX
8
skin
10
3.238570
20
-1.890387
30
-0.014657
70
192
0
VERTEX
8
skin
10
3.736811
20
-0.014655
30
-0.014657
70
192
0
VERTEX
8
skin
10
1.861079
20
-3.238570
30
-0.014657
70
192
0
VERTEX
8
skin
10
-0.014654
20
-3.736810
30
-0.014657
70
192
0
VERTEX
8
skin
10
-1.890387
20
-3.238570
30
-0.014657
70
192
0
VERTEX
8
skin
10
-3.238570
20
-1.890387
30
-0.014657
70
192
0
VERTEX
8
skin
10
-3.736811
20
-0.014655
30
-0.014657
70
192
0
VERTEX
8
skin
10
-3.238570
20
1.861078
30
-0.014657
70
192
0
VERTEX
8
skin
10
-1.890387
20
3.238570
30
-0.014657
70
192
0
VERTEX
8
skin
10
-0.014654
20
3.736810
30
-0.014657
70
192
0
VERTEX
8
skin
10
1.861079
20
3.238570
30
-0.014657
70
192
0
VERTEX
8
skin
10
3.238570
20
1.861078
30
-0.014657
70
192
0
VERTEX
8
skin
10
2.798945
20
-1.626611
30
-1.890390
70
192
0
VERTEX
8
skin
10
3.238570
20
-0.014655
30
-1.890390
70
192
0
VERTEX
8
skin
10
1.626612
20
-2.828254
30
-1.890390
70
192
0
VERTEX
8
skin
10
-0.014654
20
-3.238570
30
-1.890390
70
192
0
VERTEX
8
skin
10
-1.626612
20
-2.828254
30
-1.890390
70
192
0
VERTEX
8
skin
10
-2.828253
20
-1.626611
30
-1.890390
70
192
0
VERTEX
8
skin
10
-3.238570
20
-0.014655
30
-1.890390
70
192
0
VERTEX
8
skin
10
-2.828253
20
1.626611
30
-1.890390
70
192
0
VERTEX
8
skin
10
-1.626612
20
2.798944
30
-1.890390
70
192
0
VERTEX
8
skin
10
-0.014654
20
3.238570
30
-1.890390
70
192
0
VERTEX
8
skin
10
1.626612
20
2.798944
30
-1.890390
70
192
0
VERTEX
8
skin
10
2.798945
20
1.626611
30
-1.890390
70
192
0
VERTEX
8
skin
10
1.626612
20
-0.952521
30
-3.238571
70
192
0
VERTEX
8
skin
10
1.861079
20
-0.014655
30
-3.238571
70
192
0
VERTEX
8
skin
10
0.923212
20
-1.626611
30
-3.238571
70
192
0
VERTEX
8
skin
10
-0.014654
20
-1.890387
30
-3.238571
70
192
0
VERTEX
8
skin
10
-0.952521
20
-1.626611
30
-3.238571
70
192
0
VERTEX
8
skin
10
-1.626612
20
-0.952521
30
-3.238571
70
192
0
VERTEX
8
skin
10
-1.890387
20
-0.014655
30
-3.238571
70
192
0
VERTEX
8
skin
10
-1.626612
20
0.923211
30
-3.238571
70
192
0
VERTEX
8
skin
10
-0.952521
20
1.626611
30
-3.238571
70
192
0
VERTEX
8
skin
10
-0.014654
20
1.861078
30
-3.238571
70
192
0
VERTEX
8
skin
10
0.923212
20
1.626611
30
-3.238571
70
192
0
VERTEX
8
skin
10
1.626612
20
0.923211
30
-3.238571
70
192
0
VERTEX
8
skin
10
-0.014654
20
-0.014655
30
-3.736813
70
192
0
VERTEX
8
skin
10
1.626612
20
-0.952520
30
3.238571
70
192
0
VERTEX
8
skin
10
1.861078
20
-0.014652
30
3.238571
70
192
0
VERTEX
8
skin
10
-0.014654
20
-0.014652
30
3.736811
70
192
0
VERTEX
8
skin
10
0.923212
20
-1.626612
30
3.238571
70
192
0
VERTEX
8
skin
10
-0.014654
20
-1.890386
30
3.238571
70
192
0
VERTEX
8
skin
10
-0.952521
20
-1.626612
30
3.238571
70
192
0
VERTEX
8
skin
10
-1.626612
20
-0.952520
30
3.238571
70
192
0
VERTEX
8
skin
10
-1.890387
20
-0.014652
30
3.238571
70
192
0
VERTEX
8
skin
10
-1.626612
20
0.923214
30
3.238571
70
192
0
VERTEX
8
skin
10
-0.952521
20
1.626614
30
3.238571
70
192
0
VERTEX
8
skin
10
-0.014654
20
1.861080
30
3.238571
70
192
0
VERTEX
8
skin
10
0.923212
20
1.626614
30
3.238571
70
192
0
VERTEX
8
skin
10
1.626612
20
0.923214
30
3.238571
70
192
0
VERTEX
8
skin
10
2.798944
20
-1.626612
30
1.861079
70
192
0
VERTEX
8
skin
10
3.238569
20
-0.014652
30
1.861079
70
192
0
VERTEX
8
skin
10
1.626612
20
-2.828252
30
1.861079
70
192
0
VERTEX
8
skin
10
-0.014654
20
-3.238569
30
1.861079
70
192
0
VERTEX
8
skin
10
-1.626612
20
-2.828252
30
1.861079
70
192
0
VERTEX
8
skin
10
-2.828254
20
-1.626612
30
1.861079
70
192
0
VERTEX
8
skin
10
-3.238570
20
-0.014652
30
1.861079
70
192
0
VERTEX
8
skin
10
-2.828254
20
1.626614
30
1.861079
70
192
0
VERTEX
8
skin
10
-1.626612
20
2.798946
30
1.861079
70
192
0
VERTEX
8
skin
10
-0.014654
20
3.238571
30
1.861079
70
192
0
VERTEX
8
skin
10
1.626612
20
2.798946
30
1.861079
70
192
0
VERTEX
8
skin
10
2.798944
20
1.626614
30
1.861079
70
192
0
VERTEX
8
skin
10
3.238569
20
-1.890386
30
-0.014654
70
192
0
VERTEX
8
skin
10
3.736811
20
-0.014652
30
-0.014654
70
192
0
VERTEX
8
skin
10
1.861078
20
-3.238569
30
-0.014654
70
192
0
VERTEX
8
skin
10
-0.014654
20
-3.736811
30
-0.014654
70
192
0
VERTEX
8
skin
10
-1.890387
20
-3.238569
30
-0.014654
70
192
0
VERTEX
8
skin
10
-3.238570
20
-1.890386
30
-0.014654
70
192
0
VERTEX
8
skin
10
-3.736811
20
-0.014652
30
-0.014654
70
192
0
VERTEX
8
skin
10
-3.238570
20
1.861080
30
-0.014654
70
192
0
VERTEX
8
skin
10
-1.890387
20
3.238571
30
-0.014654
70
192
0
VERTEX
8
skin
10
-0.014654
20
3.736813
30
-0.014654
70
192
0
VERTEX
8
skin
10
1.861078
20
3.238571
30
-0.014654
70
192
0
VERTEX
8
skin
10
3.238569
20
1.861080
30
-0.014654
70
192
0
VERTEX
8
skin
10
2.798944
20
-1.626612
30
-1.890386
70
192
0
VERTEX
8
skin
10
3.238569
20
-0.014652
30
-1.890386
70
192
0
VERTEX
8
skin
10
1.626612
20
-2.828252
30
-1.890386
70
192
0
VERTEX
8
skin
10
-0.014654
20
-3.238569
30
-1.890386
70
192
0
VERTEX
8
skin
10
-1.626612
20
-2.828252
30
-1.890386
70
192
0
VERTEX
8
skin
10
-2.828254
20
-1.626612
30
-1.890386
70
192
0
VERTEX
8
skin
10
-3.238570
20
-0.014652
30
-1.890386
70
192
0
VERTEX
8
skin
10
-2.828254
20
1.626614
30
-1.890386
70
192
0
VERTEX
8
skin
10
-1.626612
20
2.798946
30
-1.890386
70
192
0
VERTEX
8
skin
10
-0.014654
20
3.238571
30
-1.890386
70
192
0
VERTEX
8
skin
10
1.626612
20
2.798946
30
-1.890386
70
192
0
VERTEX
8
skin
10
2.798944
20
1.626614
30
-1.890386
70
192
0
VERTEX
8
skin
10
1.626612
20
-0.952520
30
-3.238569
70
192
0
VERTEX
8
skin
10
1.861078
20
-0.014652
30
-3.238569
70
192
0
VERTEX
8
skin
10
0.923212
20
-1.626612
30
-3.238569
70
192
0
VERTEX
8
skin
10
-0.014654
20
-1.890386
30
-3.238569
70
192
0
VERTEX
8
skin
10
-0.952521
20
-1.626612
30
-3.238569
70
192
0
VERTEX
8
skin
10
-1.626612
20
-0.952520
30
-3.238569
70
192
0
VERTEX
8
skin
10
-1.890387
20
-0.014652
30
-3.238569
70
192
0
VERTEX
8
skin
10
-1.626612
20
0.923214
30
-3.238569
70
192
0
VERTEX
8
skin
10
-0.952521
20
1.626614
30
-3.238569
70
192
0
VERTEX
8
skin
10
-0.014654
20
1.861080
30
-3.238569
70
192
0
VERTEX
8
skin
10
0.923212
20
1.626614
30
-3.238569
70
192
0
VERTEX
8
skin
10
1.626612
20
0.923214
30
-3.238569
70
192
0
VERTEX
8
skin
10
-0.014654
20
-0.014652
30
-3.736809
70
192
0
VERTEX
8
skin
10
1.626610
20
-0.952521
30
3.238569
70
192
0
VERTEX
8
skin
10
1.861076
20
-0.014655
30
3.238569
70
192
0
VERTEX
8
skin
10
-0.014656
20
-0.014655
30
3.736809
70
192
0
VERTEX
8
skin
10
0.923210
20
-1.626612
30
3.238569
70
192
0
VERTEX
8
skin
10
-0.014656
20
-1.890387
30
3.238569
70
192
0
VERTEX
8
skin
10
-0.952522
20
-1.626612
30
3.238569
70
192
0
VERTEX
8
skin
10
-1.626613
20
-0.952521
30
3.238569
70
192
0
VERTEX
8
skin
10
-1.890388
20
-0.014655
30
3.238569
70
192
0
VERTEX
8
skin
10
-1.626613
20
0.923211
30
3.238569
70
192
0
VERTEX
8
skin
10
-0.952522
20
1.626611
30
3.238569
70
192
0
VERTEX
8
skin
10
-0.014656
20
1.861078
30
3.238569
70
192
0
VERTEX
8
skin
10
0.923210
20
1.626611
30
3.238569
70
192
0
VERTEX
8
skin
10
1.626610
20
0.923211
30
3.238569
70
192
0
VERTEX
8
skin
10
2.798945
20
-1.626612
30
1.861076
70
192
0
VERTEX
8
skin
10
3.238571
20
-0.014655
30
1.861076
70
192
0
VERTEX
8
skin
10
1.626610
20
-2.828254
30
1.861076
70
192
0
VERTEX
8
skin
10
-0.014656
20
-3.238570
30
1.861076
70
192
0
VERTEX
8
skin
10
-1.626613
20
-2.828254
30
1.861076
70
192
0
VERTEX
8
skin
10
-2.828254
20
-1.626612
30
1.861076
70
192
0
VERTEX
8
skin
10
-3.238571
20
-0.014655
30
1.861076
70
192
0
VERTEX
8
skin
10
-2.828254
20
1.626611
30
1.861076
70
192
0
VERTEX
8
skin
10
-1.626613
20
2.798944
30
1.861076
70
192
0
VERTEX
8
skin
10
-0.014656
20
3.238569
30
1.861076
70
192
0
VERTEX
8
skin
10
1.626610
20
2.798944
30
1.861076
70
192
0
VERTEX
8
skin
10
2.798945
20
1.626611
30
1.861076
70
192
0
VERTEX
8
skin
10
3.238571
20
-1.890387
30
-0.014656
70
192
0
VERTEX
8
skin
10
3.736811
20
-0.014655
30
-0.014656
70
192
0
VERTEX
8
skin
10
1.861076
20
-3.238570
30
-0.014656
70
192
0
VERTEX
8
skin
10
-0.014656
20
-3.736811
30
-0.014656
70
192
0
VERTEX
8
skin
10
-1.890388
20
-3.238570
30
-0.014656
70
192
0
VERTEX
8
skin
10
-3.238571
20
-1.890387
30
-0.014656
70
192
0
VERTEX
8
skin
10
-3.736812
20
-0.014655
30
-0.014656
70
192
0
VERTEX
8
skin
10
-3.238571
20
1.861078
30
-0.014656
70
192
0
VERTEX
8
skin
10
-1.890388
20
3.238569
30
-0.014656
70
192
0
VERTEX
8
skin
10
-0.014656
20
3.736810
30
-0.014656
70
192
0
VERTEX
8
skin
10
1.861076
20
3.238569
30
-0.014656
70
192
0
VERTEX
8
skin
10
3.238571
20
1.861078
30
-0.014656
70
192
0
VERTEX
8
skin
10
2.798945
20
-1.626612
30
-1.890388
70
192
0
VERTEX
8
skin
10
3.238571
20
-0.014655
30
-1.890388
70
192
0
VERTEX
8
skin
10
1.626610
20
-2.828254
30
-1.890388
70
192
0
VERTEX
8
skin
10
-0.014656
20
-3.238570
30
-1.890388
70
192
0
VERTEX
8
skin
10
-1.626613
20
-2.828254
30
-1.890388
70
192
0
VERTEX
8
skin
10
-2.828254
20
-1.626612
30
-1.890388
70
192
0
VERTEX
8
skin
10
-3.238571
20
-0.014655
30
-1.890388
70
192
0
VERTEX
8
skin
10
-2.828254
20
1.626611
30
-1.890388
70
192
0
VERTEX
8
skin
10
-1.626613
20
2.798944
30
-1.890388
70
192
0
VERTEX
8
skin
10
-0.014656
20
3.238569
30
-1.890388
70
192
0
VERTEX
8
skin
10
1.626610
20
2.798944
30
-1.890388
70
192
0
VERTEX
8
skin
10
2.798945
20
1.626611
30
-1.890388
70
192
0
VERTEX
8
skin
10
1.626610
20
-0.952521
30
-3.238571
70
192
0
VERTEX
8
skin
10
1.861076
20
-0.014655
30
-3.238571
70
192
0
VERTEX
8
skin
10
0.923210
20
-1.626612
30
-3.238571
70
192
0
VERTEX
8
skin
10
-0.014656
20
-1.890387
30
-3.238571
70
192
0
VERTEX
8
skin
10
-0.952522
20
-1.626612
30
-3.238571
70
192
0
VERTEX
8
skin
10
-1.626613
20
-0.952521
30
-3.238571
70
192
0
VERTEX
8
skin
10
-1.890388
20
-0.014655
30
-3.238571
70
192
0
VERTEX
8
skin
10
-1.626613
20
0.923211
30
-3.238571
70
192
0
VERTEX
8
skin
10
-0.952522
20
1.626611
30
-3.238571
70
192
0
VERTEX
8
skin
10
-0.014656
20
1.861078
30
-3.238571
70
192
0
VERTEX
8
skin
10
0.923210
20
1.626611
30
-3.238571
70
192
0
VERTEX
8
skin
10
1.626610
20
0.923211
30
-3.238571
70
192
0
VERTEX
8
skin
10
-0.014656
20
-0.014655
30
-3.736811
70
192
0
VERTEX
8
skin
10
1.626612
20
-0.952520
30
3.238555
70
192
0
VERTEX
8
skin
10
1.861079
20
-0.014654
30
3.238555
70
192
0
VERTEX
8
skin
10
-0.014654
20
-0.014654
30
3.736797
70
192
0
VERTEX
8
skin
10
0.923213
20
-1.626611
30
3.238555
70
192
0
VERTEX
8
skin
10
-0.014654
20
-1.890386
30
3.238555
70
192
0
VERTEX
8
skin
10
-0.952520
20
-1.626611
30
3.238555
70
192
0
VERTEX
8
skin
10
-1.626612
20
-0.952520
30
3.238555
70
192
0
VERTEX
8
skin
10
-1.890386
20
-0.014654
30
3.238555
70
192
0
VERTEX
8
skin
10
-1.626612
20
0.923213
30
3.238555
70
192
0
VERTEX
8
skin
10
-0.952520
20
1.626612
30
3.238555
70
192
0
VERTEX
8
skin
10
-0.014654
20
1.861079
30
3.238555
70
192
0
VERTEX
8
skin
10
0.923213
20
1.626612
30
3.238555
70
192
0
VERTEX
8
skin
10
1.626612
20
0.923213
30
3.238555
70
192
0
VERTEX
8
skin
10
2.798945
20
-1.626611
30
1.861060
70
192
0
VERTEX
8
skin
10
3.238569
20
-0.014654
30
1.861060
70
192
0
VERTEX
8
skin
10
1.626612
20
-2.828254
30
1.861060
70
192
0
VERTEX
8
skin
10
-0.014654
20
-3.238570
30
1.861060
70
192
0
VERTEX
8
skin
10
-1.626612
20
-2.828254
30
1.861060
70
192
0
VERTEX
8
skin
10
-2.828255
20
-1.626611
30
1.861060
70
192
0
VERTEX
8
skin
10
-3.238571
20
-0.014654
30
1.861060
70
192
0
VERTEX
8
skin
10
-2.828255
20
1.626612
30
1.861060
70
192
0
VERTEX
8
skin
10
-1.626612
20
2.798945
30
1.861060
70
192
0
VERTEX
8
skin
10
-0.014654
20
3.238570
30
1.861060
70
192
0
VERTEX
8
skin
10
1.626612
20
2.798945
30
1.861060
70
192
0
VERTEX
8
skin
10
2.798945
20
1.626612
30
1.861060
70
192
0
VERTEX
8
skin
10
3.238569
20
-1.890386
30
-0.014668
70
192
0
VERTEX
8
skin
10
3.736811
20
-0.014654
30
-0.014668
70
192
0
VERTEX
8
skin
10
1.861079
20
-3.238570
30
-0.014668
70
192
0
VERTEX
8
skin
10
-0.014654
20
-3.736810
30
-0.014668
70
192
0
VERTEX
8
skin
10
-1.890386
20
-3.238570
30
-0.014668
70
192
0
VERTEX
8
skin
10
-3.238571
20
-1.890386
30
-0.014668
70
192
0
VERTEX
8
skin
10
-3.736813
20
-0.014654
30
-0.014668
70
192
0
VERTEX
8
skin
10
-3.238571
20
1.861079
30
-0.014668
70
192
0
VERTEX
8
skin
10
-1.890386
20
3.238570
30
-0.014668
70
192
0
VERTEX
8
skin
10
-0.014654
20
3.736811
30
-0.014668
70
192
0
VERTEX
8
skin
10
1.861079
20
3.238570
30
-0.014668
70
192
0
VERTEX
8
skin
10
3.238569
20
1.861079
30
-0.014668
70
192
0
VERTEX
8
skin
10
2.798945
20
-1.626611
30
-1.890403
70
192
0
VERTEX
8
skin
10
3.238569
20
-0.014654
30
-1.890403
70
192
0
VERTEX
8
skin
10
1.626612
20
-2.828254
30
-1.890403
70
192
0
VERTEX
8
skin
10
-0.014654
20
-3.238570
30
-1.890403
70
192
0
VERTEX
8
skin
10
-1.626612
20
-2.828254
30
-1.890403
70
192
0
VERTEX
8
skin
10
-2.828255
20
-1.626611
30
-1.890403
70
192
0
VERTEX
8
skin
10
-3.238571
20
-0.014654
30
-1.890403
70
192
0
VERTEX
8
skin
10
-2.828255
20
1.626612
30
-1.890403
70
192
0
VERTEX
8
skin
10
-1.626612
20
2.798945
30
-1.890403
70
192
0
VERTEX
8
skin
10
-0.014654
20
3.238570
30
-1.890403
70
192
0
VERTEX
8
skin
10
1.626612
20
2.798945
30
-1.890403
70
192
0
VERTEX
8
skin
10
2.798945
20
1.626612
30
-1.890403
70
192
0
VERTEX
8
skin
10
1.626612
20
-0.952520
30
-3.238585
70
192
0
VERTEX
8
skin
10
1.861079
20
-0.014654
30
-3.238585
70
192
0
VERTEX
8
skin
10
0.923213
20
-1.626611
30
-3.238585
70
192
0
VERTEX
8
skin
10
-0.014654
20
-1.890386
30
-3.238585
70
192
0
VERTEX
8
skin
10
-0.952520
20
-1.626611
30
-3.238585
70
192
0
VERTEX
8
skin
10
-1.626612
20
-0.952520
30
-3.238585
70
192
0
VERTEX
8
skin
10
-1.890386
20
-0.014654
30
-3.238585
70
192
0
VERTEX
8
skin
10
-1.626612
20
0.923213
30
-3.238585
70
192
0
VERTEX
8
skin
10
-0.952520
20
1.626612
30
-3.238585
70
192
0
VERTEX
8
skin
10
-0.014654
20
1.861079
30
-3.238585
70
192
0
VERTEX
8
skin
10
0.923213
20
1.626612
30
-3.238585
70
192
0
VERTEX
8
skin
10
1.626612
20
0.923213
30
-3.238585
70
192
0
VERTEX
8
skin
10
-0.014654
20
-0.014654
30
-3.736827
70
192
0
VERTEX
8
skin
10
1.219959
20
-0.714391
30
2.428926
70
192
0
VERTEX
8
skin
10
1.395809
20
-0.010990
30
2.428926
70
192
0
VERTEX
8
skin
10
-0.010990
20
-0.010990
30
2.802614
70
192
0
VERTEX
8
skin
10
0.692410
20
-1.219959
30
2.428926
70
192
0
VERTEX
8
skin
10
-0.010990
20
-1.417790
30
2.428926
70
192
0
VERTEX
8
skin
10
-0.714390
20
-1.219959
30
2.428926
70
192
0
VERTEX
8
skin
10
-1.219959
20
-0.714391
30
2.428926
70
192
0
VERTEX
8
skin
10
-1.417789
20
-0.010990
30
2.428926
70
192
0
VERTEX
8
skin
10
-1.219959
20
0.692410
30
2.428926
70
192
0
VERTEX
8
skin
10
-0.714390
20
1.219959
30
2.428926
70
192
0
VERTEX
8
skin
10
-0.010990
20
1.395809
30
2.428926
70
192
0
VERTEX
8
skin
10
0.692410
20
1.219959
30
2.428926
70
192
0
VERTEX
8
skin
10
1.219959
20
0.692410
30
2.428926
70
192
0
VERTEX
8
skin
10
2.099209
20
-1.219959
30
1.395815
70
192
0
VERTEX
8
skin
10
2.428926
20
-0.010990
30
1.395815
70
192
0
VERTEX
8
skin
10
1.219959
20
-2.121190
30
1.395815
70
192
0
VERTEX
8
skin
10
-0.010990
20
-2.428927
30
1.395815
70
192
0
VERTEX
8
skin
10
-1.219959
20
-2.121190
30
1.395815
70
192
0
VERTEX
8
skin
10
-2.121189
20
-1.219959
30
1.395815
70
192
0
VERTEX
8
skin
10
-2.428926
20
-0.010990
30
1.395815
70
192
0
VERTEX
8
skin
10
-2.121189
20
1.219959
30
1.395815
70
192
0
VERTEX
8
skin
10
-1.219959
20
2.099209
30
1.395815
70
192
0
VERTEX
8
skin
10
-0.010990
20
2.428926
30
1.395815
70
192
0
VERTEX
8
skin
10
1.219959
20
2.099209
30
1.395815
70
192
0
VERTEX
8
skin
10
2.099209
20
1.219959
30
1.395815
70
192
0
VERTEX
8
skin
10
2.428926
20
-1.417790
30
-0.010992
70
192
0
VERTEX
8
skin
10
2.802608
20
-0.010990
30
-0.010992
70
192
0
VERTEX
8
skin
10
1.395809
20
-2.428927
30
-0.010992
70
192
0
VERTEX
8
skin
10
-0.010990
20
-2.802608
30
-0.010992
70
192
0
VERTEX
8
skin
10
-1.417789
20
-2.428927
30
-0.010992
70
192
0
VERTEX
8
skin
10
-2.428926
20
-1.417790
30
-0.010992
70
192
0
VERTEX
8
skin
10
-2.802608
20
-0.010990
30
-0.010992
70
192
0
VERTEX
8
skin
10
-2.428926
20
1.395809
30
-0.010992
70
192
0
VERTEX
8
skin
10
-1.417789
20
2.428926
30
-0.010992
70
192
0
VERTEX
8
skin
10
-0.010990
20
2.802608
30
-0.010992
70
192
0
VERTEX
8
skin
10
1.395809
20
2.428926
30
-0.010992
70
192
0
VERTEX
8
skin
10
2.428926
20
1.395809
30
-0.010992
70
192
0
VERTEX
8
skin
10
2.099209
20
-1.219959
30
-1.417791
70
192
0
VERTEX
8
skin
10
2.428926
20
-0.010990
30
-1.417791
70
192
0
VERTEX
8
skin
10
1.219959
20
-2.121190
30
-1.417791
70
192
0
VERTEX
8
skin
10
-0.010990
20
-2.428927
30
-1.417791
70
192
0
VERTEX
8
skin
10
-1.219959
20
-2.121190
30
-1.417791
70
192
0
VERTEX
8
skin
10
-2.121189
20
-1.219959
30
-1.417791
70
192
0
VERTEX
8
skin
10
-2.428926
20
-0.010990
30
-1.417791
70
192
0
VERTEX
8
skin
10
-2.121189
20
1.219959
30
-1.417791
70
192
0
VERTEX
8
skin
10
-1.219959
20
2.099209
30
-1.417791
70
192
0
VERTEX
8
skin
10
-0.010990
20
2.428926
30
-1.417791
70
192
0
VERTEX
8
skin
10
1.219959
20
2.099209
30
-1.417791
70
192
0
VERTEX
8
skin
10
2.099209
20
1.219959
30
-1.417791
70
192
0
VERTEX
8
skin
10
1.219959
20
-0.714391
30
-2.428930
70
192
0
VERTEX
8
skin
10
1.395809
20
-0.010990
30
-2.428930
70
192
0
VERTEX
8
skin
10
0.692410
20
-1.219959
30
-2.428930
70
192
0
VERTEX
8
skin
10
-0.010990
20
-1.417790
30
-2.428930
70
192
0
VERTEX
8
skin
10
-0.714390
20
-1.219959
30
-2.428930
70
192
0
VERTEX
8
skin
10
-1.219959
20
-0.714391
30
-2.428930
70
192
0
VERTEX
8
skin
10
-1.417789
20
-0.010990
30
-2.428930
70
192
0
VERTEX
8
skin
10
-1.219959
20
0.692410
30
-2.428930
70
192
0
VERTEX
8
skin
10
-0.714390
20
1.219959
30
-2.428930
70
192
0
VERTEX
8
skin
10
-0.010990
20
1.395809
30
-2.428930
70
192
0
VERTEX
8
skin
10
0.692410
20
1.219959
30
-2.428930
70
192
0
VERTEX
8
skin
10
1.219959
20
0.692410
30
-2.428930
70
192
0
VERTEX
8
skin
10
-0.010990
20
-0.010990
30
-2.802608
70
192
0
VERTEX
8
skin
10
1.626612
20
-0.952520
30
3.238569
70
192
0
VERTEX
8
skin
10
1.861079
20
-0.014654
30
3.238569
70
192
0
VERTEX
8
skin
10
-0.014653
20
-0.014654
30
3.736814
70
192
0
VERTEX
8
skin
10
0.923212
20
-1.626612
30
3.238569
70
192
0
VERTEX
8
skin
10
-0.014653
20
-1.890387
30
3.238569
70
192
0
VERTEX
8
skin
10
-0.952520
20
-1.626612
30
3.238569
70
192
0
VERTEX
8
skin
10
-1.626611
20
-0.952520
30
3.238569
70
192
0
VERTEX
8
skin
10
-1.890386
20
-0.014654
30
3.238569
70
192
0
VERTEX
8
skin
10
-1.626611
20
0.923212
30
3.238569
70
192
0
VERTEX
8
skin
10
-0.952520
20
1.626612
30
3.238569
70
192
0
VERTEX
8
skin
10
-0.014653
20
1.861078
30
3.238569
70
192
0
VERTEX
8
skin
10
0.923212
20
1.626612
30
3.238569
70
192
0
VERTEX
8
skin
10
1.626612
20
0.923212
30
3.238569
70
192
0
VERTEX
8
skin
10
2.798945
20
-1.626612
30
1.861081
70
192
0
VERTEX
8
skin
10
3.238570
20
-0.014654
30
1.861081
70
192
0
VERTEX
8
skin
10
1.626612
20
-2.828253
30
1.861081
70
192
0
VERTEX
8
skin
10
-0.014653
20
-3.238569
30
1.861081
70
192
0
VERTEX
8
skin
10
-1.626611
20
-2.828253
30
1.861081
70
192
0
VERTEX
8
skin
10
-2.828253
20
-1.626612
30
1.861081
70
192
0
VERTEX
8
skin
10
-3.238569
20
-0.014654
30
1.861081
70
192
0
VERTEX
8
skin
10
-2.828253
20
1.626612
30
1.861081
70
192
0
VERTEX
8
skin
10
-1.626611
20
2.798944
30
1.861081
70
192
0
VERTEX
8
skin
10
-0.014653
20
3.238569
30
1.861081
70
192
0
VERTEX
8
skin
10
1.626612
20
2.798944
30
1.861081
70
192
0
VERTEX
8
skin
10
2.798945
20
1.626612
30
1.861081
70
192
0
VERTEX
8
skin
10
3.238570
20
-1.890387
30
-0.014661
70
192
0
VERTEX
8
skin
10
3.736811
20
-0.014654
30
-0.014661
70
192
0
VERTEX
8
skin
10
1.861079
20
-3.238569
30
-0.014661
70
192
0
VERTEX
8
skin
10
-0.014653
20
-3.736811
30
-0.014661
70
192
0
VERTEX
8
skin
10
-1.890386
20
-3.238569
30
-0.014661
70
192
0
VERTEX
8
skin
10
-3.238569
20
-1.890387
30
-0.014661
70
192
0
VERTEX
8
skin
10
-3.736810
20
-0.014654
30
-0.014661
70
192
0
VERTEX
8
skin
10
-3.238569
20
1.861078
30
-0.014661
70
192
0
VERTEX
8
skin
10
-1.890386
20
3.238569
30
-0.014661
70
192
0
VERTEX
8
skin
10
-0.014653
20
3.736810
30
-0.014661
70
192
0
VERTEX
8
skin
10
1.861079
20
3.238569
30
-0.014661
70
192
0
VERTEX
8
skin
10
3.238570
20
1.861078
30
-0.014661
70
192
0
VERTEX
8
skin
10
2.798945
20
-1.626612
30
-1.890388
70
192
0
VERTEX
8
skin
10
3.238570
20
-0.014654
30
-1.890388
70
192
0
VERTEX
8
skin
10
1.626612
20
-2.828253
30
-1.890388
70
192
0
VERTEX
8
skin
10
-0.014653
20
-3.238569
30
-1.890388
70
192
0
VERTEX
8
skin
10
-1.626611
20
-2.828253
30
-1.890388
70
192
0
VERTEX
8
skin
10
-2.828253
20
-1.626612
30
-1.890388
70
192
0
VERTEX
8
skin
10
-3.238569
20
-0.014654
30
-1.890388
70
192
0
VERTEX
8
skin
10
-2.828253
20
1.626612
30
-1.890388
70
192
0
VERTEX
8
skin
10
-1.626611
20
2.798944
30
-1.890388
70
192
0
VERTEX
8
skin
10
-0.014653
20
3.238569
30
-1.890388
70
192
0
VERTEX
8
skin
10
1.626612
20
2.798944
30
-1.890388
70
192
0
VERTEX
8
skin
10
2.798945
20
1.626612
30
-1.890388
70
192
0
VERTEX
8
skin
10
1.626612
20
-0.952520
30
-3.238574
70
192
0
VERTEX
8
skin
10
1.861079
20
-0.014654
30
-3.238574
70
192
0
VERTEX
8
skin
10
0.923212
20
-1.626612
30
-3.238574
70
192
0
VERTEX
8
skin
10
-0.014653
20
-1.890387
30
-3.238574
70
192
0
VERTEX
8
skin
10
-0.952520
20
-1.626612
30
-3.238574
70
192
0
VERTEX
8
skin
10
-1.626611
20
-0.952520
30
-3.238574
70
192
0
VERTEX
8
skin
10
-1.890386
20
-0.014654
30
-3.238574
70
192
0
VERTEX
8
skin
10
-1.626611
20
0.923212
30
-3.238574
70
192
0
VERTEX
8
skin
10
-0.952520
20
1.626612
30
-3.238574
70
192
0
VERTEX
8
skin
10
-0.014653
20
1.861078
30
-3.238574
70
192
0
VERTEX
8
skin
10
0.923212
20
1.626612
30
-3.238574
70
192
0
VERTEX
8
skin
10
1.626612
20
0.923212
30
-3.238574
70
192
0
VERTEX
8
skin
10
-0.014653
20
-0.014654
30
-3.736816
70
192
0
VERTEX
8
skin
10
1.626611
20
-0.952520
30
3.238566
70
192
0
VERTEX
8
skin
10
1.861078
20
-0.014654
30
3.238566
70
192
0
VERTEX
8
skin
10
-0.014655
20
-0.014654
30
3.736809
70
192
0
VERTEX
8
skin
10
0.923211
20
-1.626612
30
3.238566
70
192
0
VERTEX
8
skin
10
-0.014655
20
-1.890387
30
3.238566
70
192
0
VERTEX
8
skin
10
-0.952521
20
-1.626612
30
3.238566
70
192
0
VERTEX
8
skin
10
-1.626612
20
-0.952520
30
3.238566
70
192
0
VERTEX
8
skin
10
-1.890387
20
-0.014654
30
3.238566
70
192
0
VERTEX
8
skin
10
-1.626612
20
0.923212
30
3.238566
70
192
0
VERTEX
8
skin
10
-0.952521
20
1.626612
30
3.238566
70
192
0
VERTEX
8
skin
10
-0.014655
20
1.861078
30
3.238566
70
192
0
VERTEX
8
skin
10
0.923211
20
1.626612
30
3.238566
70
192
0
VERTEX
8
skin
10
1.626611
20
0.923212
30
3.238566
70
192
0
VERTEX
8
skin
10
2.798944
20
-1.626612
30
1.861076
70
192
0
VERTEX
8
skin
10
3.238569
20
-0.014654
30
1.861076
70
192
0
VERTEX
8
skin
10
1.626611
20
-2.828254
30
1.861076
70
192
0
VERTEX
8
skin
10
-0.014655
20
-3.238570
30
1.861076
70
192
0
VERTEX
8
skin
10
-1.626612
20
-2.828254
30
1.861076
70
192
0
VERTEX
8
skin
10
-2.828254
20
-1.626612
30
1.861076
70
192
0
VERTEX
8
skin
10
-3.238570
20
-0.014654
30
1.861076
70
192
0
VERTEX
8
skin
10
-2.828254
20
1.626612
30
1.861076
70
192
0
VERTEX
8
skin
10
-1.626612
20
2.798944
30
1.861076
70
192
0
VERTEX
8
skin
10
-0.014655
20
3.238570
30
1.861076
70
192
0
VERTEX
8
skin
10
1.626611
20
2.798944
30
1.861076
70
192
0
VERTEX
8
skin
10
2.798944
20
1.626612
30
1.861076
70
192
0
VERTEX
8
skin
10
3.238569
20
-1.890387
30
-0.014659
70
192
0
VERTEX
8
skin
10
3.736810
20
-0.014654
30
-0.014659
70
192
0
VERTEX
8
skin
10
1.861078
20
-3.238570
30
-0.014659
70
192
0
VERTEX
8
skin
10
-0.014655
20
-3.736811
30
-0.014659
70
192
0
VERTEX
8
skin
10
-1.890387
20
-3.238570
30
-0.014659
70
192
0
VERTEX
8
skin
10
-3.238570
20
-1.890387
30
-0.014659
70
192
0
VERTEX
8
skin
10
-3.736811
20
-0.014654
30
-0.014659
70
192
0
VERTEX
8
skin
10
-3.238570
20
1.861078
30
-0.014659
70
192
0
VERTEX
8
skin
10
-1.890387
20
3.238570
30
-0.014659
70
192
0
VERTEX
8
skin
10
-0.014655
20
3.736811
30
-0.014659
70
192
0
VERTEX
8
skin
10
1.861078
20
3.238570
30
-0.014659
70
192
0
VERTEX
8
skin
10
3.238569
20
1.861078
30
-0.014659
70
192
0
VERTEX
8
skin
10
2.798944
20
-1.626612
30
-1.890391
70
192
0
VERTEX
8
skin
10
3.238569
20
-0.014654
30
-1.890391
70
192
0
VERTEX
8
skin
10
1.626611
20
-2.828254
30
-1.890391
70
192
0
VERTEX
8
skin
10
-0.014655
20
-3.238570
30
-1.890391
70
192
0
VERTEX
8
skin
10
-1.626612
20
-2.828254
30
-1.890391
70
192
0
VERTEX
8
skin
10
-2.828254
20
-1.626612
30
-1.890391
70
192
0
VERTEX
8
skin
10
-3.238570
20
-0.014654
30
-1.890391
70
192
0
VERTEX
8
skin
10
-2.828254
20
1.626612
30
-1.890391
70
192
0
VERTEX
8
skin
10
-1.626612
20
2.798944
30
-1.890391
70
192
0
VERTEX
8
skin
10
-0.014655
20
3.238570
30
-1.890391
70
192
0
VERTEX
8
skin
10
1.626611
20
2.798944
30
-1.890391
70
192
0
VERTEX
8
skin
10
2.798944
20
1.626612
30
-1.890391
70
192
0
VERTEX
8
skin
10
1.626611
20
-0.952520
30
-3.238576
70
192
0
VERTEX
8
skin
10
1.861078
20
-0.014654
30
-3.238576
70
192
0
VERTEX
8
skin
10
0.923211
20
-1.626612
30
-3.238576
70
192
0
VERTEX
8
skin
10
-0.014655
20
-1.890387
30
-3.238576
70
192
0
VERTEX
8
skin
10
-0.952521
20
-1.626612
30
-3.238576
70
192
0
VERTEX
8
skin
10
-1.626612
20
-0.952520
30
-3.238576
70
192
0
VERTEX
8
skin
10
-1.890387
20
-0.014654
30
-3.238576
70
192
0
VERTEX
8
skin
10
-1.626612
20
0.923212
30
-3.238576
70
192
0
VERTEX
8
skin
10
-0.952521
20
1.626612
30
-3.238576
70
192
0
VERTEX
8
skin
10
-0.014655
20
1.861078
30
-3.238576
70
192
0
VERTEX
8
skin
10
0.923211
20
1.626612
30
-3.238576
70
192
0
VERTEX
8
skin
10
1.626611
20
0.923212
30
-3.238576
70
192
0
VERTEX
8
skin
10
-0.014655
20
-0.014654
30
-3.736811
70
192
0
VERTEX
8
skin
10
1.219959
20
-0.714390
30
2.428925
70
192
0
VERTEX
8
skin
10
1.395809
20
-0.010991
30
2.428925
70
192
0
VERTEX
8
skin
10
-0.010991
20
-0.010991
30
2.802610
70
192
0
VERTEX
8
skin
10
0.692409
20
-1.219959
30
2.428925
70
192
0
VERTEX
8
skin
10
-0.010991
20
-1.417790
30
2.428925
70
192
0
VERTEX
8
skin
10
-0.714390
20
-1.219959
30
2.428925
70
192
0
VERTEX
8
skin
10
-1.219959
20
-0.714390
30
2.428925
70
192
0
VERTEX
8
skin
10
-1.417790
20
-0.010991
30
2.428925
70
192
0
VERTEX
8
skin
10
-1.219959
20
0.692409
30
2.428925
70
192
0
VERTEX
8
skin
10
-0.714390
20
1.219959
30
2.428925
70
192
0
VERTEX
8
skin
10
-0.010991
20
1.395809
30
2.428925
70
192
0
VERTEX
8
skin
10
0.692409
20
1.219959
30
2.428925
70
192
0
VERTEX
8
skin
10
1.219959
20
0.692409
30
2.428925
70
192
0
VERTEX
8
skin
10
2.099209
20
-1.219959
30
1.395810
70
192
0
VERTEX
8
skin
10
2.428927
20
-0.010991
30
1.395810
70
192
0
VERTEX
8
skin
10
1.219959
20
-2.121190
30
1.395810
70
192
0
VERTEX
8
skin
10
-0.010991
20
-2.428927
30
1.395810
70
192
0
VERTEX
8
skin
10
-1.219959
20
-2.121190
30
1.395810
70
192
0
VERTEX
8
skin
10
-2.121190
20
-1.219959
30
1.395810
70
192
0
VERTEX
8
skin
10
-2.428928
20
-0.010991
30
1.395810
70
192
0
VERTEX
8
skin
10
-2.121190
20
1.219959
30
1.395810
70
192
0
VERTEX
8
skin
10
-1.219959
20
2.099208
30
1.395810
70
192
0
VERTEX
8
skin
10
-0.010991
20
2.428927
30
1.395810
70
192
0
VERTEX
8
skin
10
1.219959
20
2.099208
30
1.395810
70
192
0
VERTEX
8
skin
10
2.099209
20
1.219959
30
1.395810
70
192
0
VERTEX
8
skin
10
2.428927
20
-1.417790
30
-0.010997
70
192
0
VERTEX
8
skin
10
2.802608
20
-0.010991
30
-0.010997
70
192
0
VERTEX
8
skin
10
1.395809
20
-2.428927
30
-0.010997
70
192
0
VERTEX
8
skin
10
-0.010991
20
-2.802608
30
-0.010997
70
192
0
VERTEX
8
skin
10
-1.417790
20
-2.428927
30
-0.010997
70
192
0
VERTEX
8
skin
10
-2.428928
20
-1.417790
30
-0.010997
70
192
0
VERTEX
8
skin
10
-2.802608
20
-0.010991
30
-0.010997
70
192
0
VERTEX
8
skin
10
-2.428928
20
1.395809
30
-0.010997
70
192
0
VERTEX
8
skin
10
-1.417790
20
2.428927
30
-0.010997
70
192
0
VERTEX
8
skin
10
-0.010991
20
2.802608
30
-0.010997
70
192
0
VERTEX
8
skin
10
1.395809
20
2.428927
30
-0.010997
70
192
0
VERTEX
8
skin
10
2.428927
20
1.395809
30
-0.010997
70
192
0
VERTEX
8
skin
10
2.099209
20
-1.219959
30
-1.417796
70
192
0
VERTEX
8
skin
10
2.428927
20
-0.010991
30
-1.417796
70
192
0
VERTEX
8
skin
10
1.219959
20
-2.121190
30
-1.417796
70
192
0
VERTEX
8
skin
10
-0.010991
20
-2.428927
30
-1.417796
70
192
0
VERTEX
8
skin
10
-1.219959
20
-2.121190
30
-1.417796
70
192
0
VERTEX
8
skin
10
-2.121190
20
-1.219959
30
-1.417796
70
192
0
VERTEX
8
skin
10
-2.428928
20
-0.010991
30
-1.417796
70
192
0
VERTEX
8
skin
10
-2.121190
20
1.219959
30
-1.417796
70
192
0
VERTEX
8
skin
10
-1.219959
20
2.099208
30
-1.417796
70
192
0
VERTEX
8
skin
10
-0.010991
20
2.428927
30
-1.417796
70
192
0
VERTEX
8
skin
10
1.219959
20
2.099208
30
-1.417796
70
192
0
VERTEX
8
skin
10
2.099209
20
1.219959
30
-1.417796
70
192
0
VERTEX
8
skin
10
1.219959
20
-0.714390
30
-2.428927
70
192
0
VERTEX
8
skin
10
1.395809
20
-0.010991
30
-2.428927
70
192
0
VERTEX
8
skin
10
0.692409
20
-1.219959
30
-2.428927
70
192
0
VERTEX
8
skin
10
-0.010991
20
-1.417790
30
-2.428927
70
192
0
VERTEX
8
skin
10
-0.714390
20
-1.219959
30
-2.428927
70
192
0
VERTEX
8
skin
10
-1.219959
20
-0.714390
30
-2.428927
70
192
0
VERTEX
8
skin
10
-1.417790
20
-0.010991
30
-2.428927
70
192
0
VERTEX
8
skin
10
-1.219959
20
0.692409
30
-2.428927
70
192
0
VERTEX
8
skin
10
-0.714390
20
1.219959
30
-2.428927
70
192
0
VERTEX
8
skin
10
-0.010991
20
1.395809
30
-2.428927
70
192
0
VERTEX
8
skin
10
0.692409
20
1.219959
30
-2.428927
70
192
0
VERTEX
8
skin
10
1.219959
20
0.692409
30
-2.428927
70
192
0
VERTEX
8
skin
10
-0.010991
20
-0.010991
30
-2.802607
70
192
0
VERTEX
8
skin
10
1.626612
20
-0.952520
30
3.238574
70
192
0
VERTEX
8
skin
10
1.861078
20
-0.014654
30
3.238574
70
192
0
VERTEX
8
skin
10
-0.014654
20
-0.014654
30
3.736814
70
192
0
VERTEX
8
skin
10
0.923212
20
-1.626612
30
3.238574
70
192
0
VERTEX
8
skin
10
-0.014654
20
-1.890387
30
3.238574
70
192
0
VERTEX
8
skin
10
-0.952520
20
-1.626612
30
3.238574
70
192
0
VERTEX
8
skin
10
-1.626612
20
-0.952520
30
3.238574
70
192
0
VERTEX
8
skin
10
-1.890387
20
-0.014654
30
3.238574
70
192
0
VERTEX
8
skin
10
-1.626612
20
0.923212
30
3.238574
70
192
0
VERTEX
8
skin
10
-0.952520
20
1.626612
30
3.238574
70
192
0
VERTEX
8
skin
10
-0.014654
20
1.861078
30
3.238574
70
192
0
VERTEX
8
skin
10
0.923212
20
1.626612
30
3.238574
70
192
0
VERTEX
8
skin
10
1.626612
20
0.923212
30
3.238574
70
192
0
VERTEX
8
skin
10
2.798944
20
-1.626612
30
1.861081
70
192
0
VERTEX
8
skin
10
3.238569
20
-0.014654
30
1.861081
70
192
0
VERTEX
8
skin
10
1.626612
20
-2.828253
30
1.861081
70
192
0
VERTEX
8
skin
10
-0.014654
20
-3.238569
30
1.861081
70
192
0
VERTEX
8
skin
10
-1.626612
20
-2.828253
30
1.861081
70
192
0
VERTEX
8
skin
10
-2.828254
20
-1.626612
30
1.861081
70
192
0
VERTEX
8
skin
10
-3.238570
20
-0.014654
30
1.861081
70
192
0
VERTEX
8
skin
10
-2.828254
20
1.626612
30
1.861081
70
192
0
VERTEX
8
skin
10
-1.626612
20
2.798945
30
1.861081
70
192
0
VERTEX
8
skin
10
-0.014654
20
3.238570
30
1.861081
70
192
0
VERTEX
8
skin
10
1.626612
20
2.798945
30
1.861081
70
192
0
VERTEX
8
skin
10
2.798944
20
1.626612
30
1.861081
70
192
0
VERTEX
8
skin
10
3.238569
20
-1.890387
30
-0.014661
70
192
0
VERTEX
8
skin
10
3.736811
20
-0.014654
30
-0.014661
70
192
0
VERTEX
8
skin
10
1.861078
20
-3.238569
30
-0.014661
70
192
0
VERTEX
8
skin
10
-0.014654
20
-3.736811
30
-0.014661
70
192
0
VERTEX
8
skin
10
-1.890387
20
-3.238569
30
-0.014661
70
192
0
VERTEX
8
skin
10
-3.238570
20
-1.890387
30
-0.014661
70
192
0
VERTEX
8
skin
10
-3.736811
20
-0.014654
30
-0.014661
70
192
0
VERTEX
8
skin
10
-3.238570
20
1.861078
30
-0.014661
70
192
0
VERTEX
8
skin
10
-1.890387
20
3.238570
30
-0.014661
70
192
0
VERTEX
8
skin
10
-0.014654
20
3.736811
30
-0.014661
70
192
0
VERTEX
8
skin
10
1.861078
20
3.238570
30
-0.014661
70
192
0
VERTEX
8
skin
10
3.238569
20
1.861078
30
-0.014661
70
192
0
VERTEX
8
skin
10
2.798944
20
-1.626612
30
-1.890394
70
192
0
VERTEX
8
skin
10
3.238569
20
-0.014654
30
-1.890394
70
192
0
VERTEX
8
skin
10
1.626612
20
-2.828253
30
-1.890394
70
192
0
VERTEX
8
skin
10
-0.014654
20
-3.238569
30
-1.890394
70
192
0
VERTEX
8
skin
10
-1.626612
20
-2.828253
30
-1.890394
70
192
0
VERTEX
8
skin
10
-2.828254
20
-1.626612
30
-1.890394
70
192
0
VERTEX
8
skin
10
-3.238570
20
-0.014654
30
-1.890394
70
192
0
VERTEX
8
skin
10
-2.828254
20
1.626612
30
-1.890394
70
192
0
VERTEX
8
skin
10
-1.626612
20
2.798945
30
-1.890394
70
192
0
VERTEX
8
skin
10
-0.014654
20
3.238570
30
-1.890394
70
192
0
VERTEX
8
skin
10
1.626612
20
2.798945
30
-1.890394
70
192
0
VERTEX
8
skin
10
2.798944
20
1.626612
30
-1.890394
70
192
0
VERTEX
8
skin
10
1.626612
20
-0.952520
30
-3.238574
70
192
0
VERTEX
8
skin
10
1.861078
20
-0.014654
30
-3.238574
70
192
0
VERTEX
8
skin
10
0.923212
20
-1.626612
30
-3.238574
70
192
0
VERTEX
8
skin
10
-0.014654
20
-1.890387
30
-3.238574
70
192
0
VERTEX
8
skin
10
-0.952520
20
-1.626612
30
-3.238574
70
192
0
VERTEX
8
skin
10
-1.626612
20
-0.952520
30
-3.238574
70
192
0
VERTEX
8
skin
10
-1.890387
20
-0.014654
30
-3.238574
70
192
0
VERTEX
8
skin
10
-1.626612
20
0.923212
30
-3.238574
70
192
0
VERTEX
8
skin
10
-0.952520
20
1.626612
30
-3.238574
70
192
0
VERTEX
8
skin
10
-0.014654
20
1.861078
30
-3.238574
70
192
0
VERTEX
8
skin
10
0.923212
20
1.626612
30
-3.238574
70
192
0
VERTEX
8
skin
10
1.626612
20
0.923212
30
-3.238574
70
192
0
VERTEX
8
skin
10
-0.014654
20
-0.014654
30
-3.736816
70
192
0
VERTEX
8
skin
10
1.626612
20
-0.952521
30
3.238571
70
192
0
VERTEX
8
skin
10
1.861079
20
-0.014655
30
3.238571
70
192
0
VERTEX
8
skin
10
-0.014654
20
-0.014655
30
3.736814
70
192
0
VERTEX
8
skin
10
0.923213
20
-1.626612
30
3.238571
70
192
0
VERTEX
8
skin
10
-0.014654
20
-1.890387
30
3.238571
70
192
0
VERTEX
8
skin
10
-0.952520
20
-1.626612
30
3.238571
70
192
0
VERTEX
8
skin
10
-1.626612
20
-0.952521
30
3.238571
70
192
0
VERTEX
8
skin
10
-1.890387
20
-0.014655
30
3.238571
70
192
0
VERTEX
8
skin
10
-1.626612
20
0.923211
30
3.238571
70
192
0
VERTEX
8
skin
10
-0.952520
20
1.626611
30
3.238571
70
192
0
VERTEX
8
skin
10
-0.014654
20
1.861078
30
3.238571
70
192
0
VERTEX
8
skin
10
0.923213
20
1.626611
30
3.238571
70
192
0
VERTEX
8
skin
10
1.626612
20
0.923211
30
3.238571
70
192
0
VERTEX
8
skin
10
2.798945
20
-1.626612
30
1.861081
70
192
0
VERTEX
8
skin
10
3.238570
20
-0.014655
30
1.861081
70
192
0
VERTEX
8
skin
10
1.626612
20
-2.828255
30
1.861081
70
192
0
VERTEX
8
skin
10
-0.014654
20
-3.238570
30
1.861081
70
192
0
VERTEX
8
skin
10
-1.626612
20
-2.828255
30
1.861081
70
192
0
VERTEX
8
skin
10
-2.828254
20
-1.626612
30
1.861081
70
192
0
VERTEX
8
skin
10
-3.238570
20
-0.014655
30
1.861081
70
192
0
VERTEX
8
skin
10
-2.828254
20
1.626611
30
1.861081
70
192
0
VERTEX
8
skin
10
-1.626612
20
2.798944
30
1.861081
70
192
0
VERTEX
8
skin
10
-0.014654
20
3.238569
30
1.861081
70
192
0
VERTEX
8
skin
10
1.626612
20
2.798944
30
1.861081
70
192
0
VERTEX
8
skin
10
2.798945
20
1.626611
30
1.861081
70
192
0
VERTEX
8
skin
10
3.238570
20
-1.890387
30
-0.014654
70
192
0
VERTEX
8
skin
10
3.736811
20
-0.014655
30
-0.014654
70
192
0
VERTEX
8
skin
10
1.861079
20
-3.238570
30
-0.014654
70
192
0
VERTEX
8
skin
10
-0.014654
20
-3.736810
30
-0.014654
70
192
0
VERTEX
8
skin
10
-1.890387
20
-3.238570
30
-0.014654
70
192
0
VERTEX
8
skin
10
-3.238570
20
-1.890387
30
-0.014654
70
192
0
VERTEX
8
skin
10
-3.736811
20
-0.014655
30
-0.014654
70
192
0
VERTEX
8
skin
10
-3.238570
20
1.861078
30
-0.014654
70
192
0
VERTEX
8
skin
10
-1.890387
20
3.238569
30
-0.014654
70
192
0
VERTEX
8
skin
10
-0.014654
20
3.736811
30
-0.014654
70
192
0
VERTEX
8
skin
10
1.861079
20
3.238569
30
-0.014654
70
192
0
VERTEX
8
skin
10
3.238570
20
1.861078
30
-0.014654
70
192
0
VERTEX
8
skin
10
2.798945
20
-1.626612
30
-1.890386
70
192
0
VERTEX
8
skin
10
3.238570
20
-0.014655
30
-1.890386
70
192
0
VERTEX
8
skin
10
1.626612
20
-2.828255
30
-1.890386
70
192
0
VERTEX
8
skin
10
-0.014654
20
-3.238570
30
-1.890386
70
192
0
VERTEX
8
skin
10
-1.626612
20
-2.828255
30
-1.890386
70
192
0
VERTEX
8
skin
10
-2.828254
20
-1.626612
30
-1.890386
70
192
0
VERTEX
8
skin
10
-3.238570
20
-0.014655
30
-1.890386
70
192
0
VERTEX
8
skin
10
-2.828254
20
1.626611
30
-1.890386
70
192
0
VERTEX
8
skin
10
-1.626612
20
2.798944
30
-1.890386
70
192
0
VERTEX
8
skin
10
-0.014654
20
3.238569
30
-1.890386
70
192
0
VERTEX
8
skin
10
1.626612
20
2.798944
30
-1.890386
70
192
0
VERTEX
8
skin
10
2.798945
20
1.626611
30
-1.890386
70
192
0
VERTEX
8
skin
10
1.626612
20
-0.952521
30
-3.238569
70
192
0
VERTEX
8
skin
10
1.861079
20
-0.014655
30
-3.238569
70
192
0
VERTEX
8
skin
10
0.923213
20
-1.626612
30
-3.238569
70
192
0
VERTEX
8
skin
10
-0.014654
20
-1.890387
30
-3.238569
70
192
0
VERTEX
8
skin
10
-0.952520
20
-1.626612
30
-3.238569
70
192
0
VERTEX
8
skin
10
-1.626612
20
-0.952521
30
-3.238569
70
192
0
VERTEX
8
skin
10
-1.890387
20
-0.014655
30
-3.238569
70
192
0
VERTEX
8
skin
10
-1.626612
20
0.923211
30
-3.238569
70
192
0
VERTEX
8
skin
10
-0.952520
20
1.626611
30
-3.238569
70
192
0
VERTEX
8
skin
10
-0.014654
20
1.861078
30
-3.238569
70
192
0
VERTEX
8
skin
10
0.923213
20
1.626611
30
-3.238569
70
192
0
VERTEX
8
skin
10
1.626612
20
0.923211
30
-3.238569
70
192
0
VERTEX
8
skin
10
-0.014654
20
-0.014655
30
-3.736809
70
192
0
VERTEX
8
skin
10
0.0
20
0.0
30
0.0
70
128
71
14
72
2
73
1
0
VERTEX
8
skin
10
0.0
20
0.0
30
0.0
70
128
71
2
72
14
73
13
0
VERTEX
8
skin
10
0.0
20
0.0
30
0.0
70
128
71
13
72
3
73
2
0
VERTEX
8
skin
10
0.0
20
0.0
30
0.0
70
128
71
3
72
13
73
15
0
VERTEX
8
skin
10
0.0
20
0.0
30
0.0
70
128
71
15
72
4
73
3
0
VERTEX
8
skin
10
0.0
20
0.0
30
0.0
70
128
71
4
72
15
73
16
0
VERTEX
8
skin
10
0.0
20
0.0
30
0.0
70
128
71
16
72
5
73
4
0
VERTEX
8
skin
10
0.0
20
0.0
30
0.0
70
128
71
5
72
16
73
17
0
VERTEX
8
skin
10
0.0
20
0.0
30
0.0
70
128
71
17
72
6
73
5
0
VERTEX
8
skin
10
0.0
20
0.0
30
0.0
70
128
71
6
72
17
73
18
0
VERTEX
8
skin
10
0.0
20
0.0
30
0.0
70
128
71
18
72
7
73
6
0
VERTEX
8
skin
10
0.0
20
0.0
30
0.0
70
128
71
7
72
18
73
19
0
VERTEX
8
skin
10
0.0
20
0.0
30
0.0
70
128
71
19
72
8
73
7
0
VERTEX
8
skin
10
0.0
20
0.0
30
0.0
70
128
71
8
72
19
73
20
0
VERTEX
8
skin
10
0.0
20
0.0
30
0.0
70
128
71
20
72
9
73
8
0
VERTEX
8
skin
10
0.0
20
0.0
30
0.0
70
128
71
9
72
20
73
21
0
VERTEX
8
skin
10
0.0
20
0.0
30
0.0
70
128
71
21
72
10
73
9
0
VERTEX
8
skin
10
0.0
20
0.0
30
0.0
70
128
71
10
72
21
73
22
0
VERTEX
8
skin
10
0.0
20
0.0
30
0.0
70
128
71
22
72
11
73
10
0
VERTEX
8
skin
10
0.0
20
0.0
30
0.0
70
128
71
11
72
22
73
23
0
VERTEX
8
skin
10
0.0
20
0.0
30
0.0
70
128
71
23
72
12
73
11
0
VERTEX
8
skin
10
0.0
20
0.0
30
0.0
70
128
71
12
72
23
73
24
0
VERTEX
8
skin
10
0.0
20
0.0
30
0.0
70
128
71
24
72
1
73
12
0
VERTEX
8
skin
10
0.0
20
0.0
30
0.0
70
128
71
1
72
24
73
14
0
VERTEX
8
skin
10
0.0
20
0.0
30
0.0
70
128
71
1
72
26
73
25
0
VERTEX
8
skin
10
0.0
20
0.0
30
0.0
70
128
71
26
72
1
73
2
0
VERTEX
8
skin
10
0.0
20
0.0
30
0.0
70
128
71
2
72
27
73
26
0
VERTEX
8
skin
10
0.0
20
0.0
30
0.0
70
128
71
27
72
2
73
3
0
VERTEX
8
skin
10
0.0
20
0.0
30
0.0
70
128
71
3
72
28
73
27
0
VERTEX
8
skin
10
0.0
20
0.0
30
0.0
70
128
71
28
72
3
73
4
0
VERTEX
8
skin
10
0.0
20
0.0
30
0.0
70
128
71
4
72
29
73
28
0
VERTEX
8
skin
10
0.0
20
0.0
30
0.0
70
128
71
29
72
4
73
5
0
VERTEX
8
skin
10
0.0
20
0.0
30
0.0
70
128
71
5
72
30
73
29
0
VERTEX
8
skin
10
0.0
20
0.0
30
0.0
70
128
71
30
72
5
73
6
0
VERTEX
8
skin
10
0.0
20
0.0
30
0.0
70
128
71
6
72
31
73
30
0
VERTEX
8
skin
10
0.0
20
0.0
30
0.0
70
128
71
31
72
6
73
7
0
VERTEX
8
skin
10
0.0
20
0.0
30
0.0
70
128
71
7
72
32
73
31
0
VERTEX
8
skin
10
0.0
20
0.0
30
0.0
70
128
71
32
72
7
73
8
0
VERTEX
8
skin
10
0.0
20
0.0
30
0.0
70
128
71
8
72
33
73
32
0
VERTEX
8
skin
10
0.0
20
0.0
30
0.0
70
128
71
33
72
8
73
9
0
VERTEX
8
skin
10
0.0
20
0.0
30
0.0
70
128
71
9
72
34
73
33
0
VERTEX
8
skin
10
0.0
20
0.0
30
0.0
70
128
71
34
72
9
73
10
0
VERTEX
8
skin
10
0.0
20
0.0
30
0.0
70
128
71
10
72
35
73
34
0
VERTEX
8
skin
10
0.0
20
0.0
30
0.0
70
128
71
35
72
10
73
11
0
VERTEX
8
skin
10
0.0
20
0.0
30
0.0
70
128
71
11
72
36
73
35
0
VERTEX
8
skin
10
0.0
20
0.0
30
0.0
70
128
71
36
72
11
73
12
0
VERTEX
8
skin
10
0.0
20
0.0
30
0.0
70
128
71
12
72
25
73
36
0
VERTEX
8
skin
10
0.0
20
0.0
30
0.0
70
128
71
25
72
12
73
1
0
VERTEX
8
skin
10
0.0
20
0.0
30
0.0
70
128
71
37
72
25
73
26
0
VERTEX
8
skin
10
0.0
20
0.0
30
0.0
70
128
71
25
72
37
73
38
0
VERTEX
8
skin
10
0.0
20
0.0
30
0.0
70
128
71
39
72
40
73
41
0
VERTEX
8
skin
10
0.0
20
0.0
30
0.0
70
128
71
41
72
42
73
39
0
VERTEX
8
skin
10
0.0
20
0.0
30
0.0
70
128
71
42
72
41
73
25
0
VERTEX
8
skin
10
0.0
20
0.0
30
0.0
70
128
71
25
72
38
73
42
0
VERTEX
8
skin
10
0.0
20
0.0
30
0.0
70
128
71
39
72
26
73
40
0
VERTEX
8
skin
10
0.0
20
0.0
30
0.0
70
128
71
26
72
39
73
37
0
VERTEX
8
skin
10
0.0
20
0.0
30
0.0
70
128
71
60
72
28
73
61
0
VERTEX
8
skin
10
0.0
20
0.0
30
0.0
70
128
71
28
72
60
73
27
0
VERTEX
8
skin
10
0.0
20
0.0
30
0.0
70
128
71
75
72
74
73
43
0
VERTEX
8
skin
10
0.0
20
0.0
30
0.0
70
128
71
43
72
44
73
75
0
VERTEX
8
skin
10
0.0
20
0.0
30
0.0
70
128
71
75
72
27
73
60
0
VERTEX
8
skin
10
0.0
20
0.0
30
0.0
70
128
71
27
72
75
73
44
0
VERTEX
8
skin
10
0.0
20
0.0
30
0.0
70
128
71
74
72
61
73
28
0
VERTEX
8
skin
10
0.0
20
0.0
30
0.0
70
128
71
28
72
43
73
74
0
VERTEX
8
skin
10
0.0
20
0.0
30
0.0
70
128
71
62
72
30
73
63
0
VERTEX
8
skin
10
0.0
20
0.0
30
0.0
70
128
71
30
72
62
73
29
0
VERTEX
8
skin
10
0.0
20
0.0
30
0.0
70
128
71
81
72
80
73
45
0
VERTEX
8
skin
10
0.0
20
0.0
30
0.0
70
128
71
45
72
46
73
81
0
VERTEX
8
skin
10
0.0
20
0.0
30
0.0
70
128
71
81
72
29
73
62
0
VERTEX
8
skin
10
0.0
20
0.0
30
0.0
70
128
71
29
72
81
73
46
0
VERTEX
8
skin
10
0.0
20
0.0
30
0.0
70
128
71
80
72
63
73
30
0
VERTEX
8
skin
10
0.0
20
0.0
30
0.0
70
128
71
30
72
45
73
80
0
VERTEX
8
skin
10
0.0
20
0.0
30
0.0
70
128
71
31
72
47
73
64
0
VERTEX
8
skin
10
0.0
20
0.0
30
0.0
70
128
71
47
72
31
73
32
0
VERTEX
8
skin
10
0.0
20
0.0
30
0.0
70
128
71
48
72
84
73
87
0
VERTEX
8
skin
10
0.0
20
0.0
30
0.0
70
128
71
87
72
49
73
48
0
VERTEX
8
skin
10
0.0
20
0.0
30
0.0
70
128
71
49
72
87
73
47
0
VERTEX
8
skin
10
0.0
20
0.0
30
0.0
70
128
71
47
72
32
73
49
0
VERTEX
8
skin
10
0.0
20
0.0
30
0.0
70
128
71
48
72
64
73
84
0
VERTEX
8
skin
10
0.0
20
0.0
30
0.0
70
128
71
64
72
48
73
31
0
VERTEX
8
skin
10
0.0
20
0.0
30
0.0
70
128
71
36
72
54
73
35
0
VERTEX
8
skin
10
0.0
20
0.0
30
0.0
70
128
71
54
72
36
73
55
0
VERTEX
8
skin
10
0.0
20
0.0
30
0.0
70
128
71
56
72
57
73
58
0
VERTEX
8
skin
10
0.0
20
0.0
30
0.0
70
128
71
58
72
59
73
56
0
VERTEX
8
skin
10
0.0
20
0.0
30
0.0
70
128
71
56
72
55
73
36
0
VERTEX
8
skin
10
0.0
20
0.0
30
0.0
70
128
71
55
72
56
73
59
0
VERTEX
8
skin
10
0.0
20
0.0
30
0.0
70
128
71
57
72
35
73
54
0
VERTEX
8
skin
10
0.0
20
0.0
30
0.0
70
128
71
54
72
58
73
57
0
VERTEX
8
skin
10
0.0
20
0.0
30
0.0
70
128
71
66
72
38
73
37
0
VERTEX
8
skin
10
0.0
20
0.0
30
0.0
70
128
71
38
72
66
73
67
0
VERTEX
8
skin
10
0.0
20
0.0
30
0.0
70
128
71
68
72
39
73
42
0
VERTEX
8
skin
10
0.0
20
0.0
30
0.0
70
128
71
42
72
69
73
68
0
VERTEX
8
skin
10
0.0
20
0.0
30
0.0
70
128
71
69
72
42
73
38
0
VERTEX
8
skin
10
0.0
20
0.0
30
0.0
70
128
71
38
72
67
73
69
0
VERTEX
8
skin
10
0.0
20
0.0
30
0.0
70
128
71
68
72
37
73
39
0
VERTEX
8
skin
10
0.0
20
0.0
30
0.0
70
128
71
37
72
68
73
66
0
VERTEX
8
skin
10
0.0
20
0.0
30
0.0
70
128
71
68
72
67
73
66
0
VERTEX
8
skin
10
0.0
20
0.0
30
0.0
70
128
71
67
72
68
73
69
0
VERTEX
8
skin
10
0.0
20
0.0
30
0.0
70
128
71
70
72
61
73
71
0
VERTEX
8
skin
10
0.0
20
0.0
30
0.0
70
128
71
61
72
70
73
60
0
VERTEX
8
skin
10
0.0
20
0.0
30
0.0
70
128
71
72
72
73
73
74
0
VERTEX
8
skin
10
0.0
20
0.0
30
0.0
70
128
71
74
72
75
73
72
0
VERTEX
8
skin
10
0.0
20
0.0
30
0.0
70
128
71
72
72
71
73
73
0
VERTEX
8
skin
10
0.0
20
0.0
30
0.0
70
128
71
71
72
72
73
70
0
VERTEX
8
skin
10
0.0
20
0.0
30
0.0
70
128
71
72
72
60
73
70
0
VERTEX
8
skin
10
0.0
20
0.0
30
0.0
70
128
71
60
72
72
73
75
0
VERTEX
8
skin
10
0.0
20
0.0
30
0.0
70
128
71
73
72
71
73
61
0
VERTEX
8
skin
10
0.0
20
0.0
30
0.0
70
128
71
61
72
74
73
73
0
VERTEX
8
skin
10
0.0
20
0.0
30
0.0
70
128
71
76
72
63
73
77
0
VERTEX
8
skin
10
0.0
20
0.0
30
0.0
70
128
71
63
72
76
73
62
0
VERTEX
8
skin
10
0.0
20
0.0
30
0.0
70
128
71
78
72
79
73
80
0
VERTEX
8
skin
10
0.0
20
0.0
30
0.0
70
128
71
80
72
81
73
78
0
VERTEX
8
skin
10
0.0
20
0.0
30
0.0
70
128
71
78
72
77
73
79
0
VERTEX
8
skin
10
0.0
20
0.0
30
0.0
70
128
71
77
72
78
73
76
0
VERTEX
8
skin
10
0.0
20
0.0
30
0.0
70
128
71
78
72
62
73
76
0
VERTEX
8
skin
10
0.0
20
0.0
30
0.0
70
128
71
62
72
78
73
81
0
VERTEX
8
skin
10
0.0
20
0.0
30
0.0
70
128
71
79
72
77
73
63
0
VERTEX
8
skin
10
0.0
20
0.0
30
0.0
70
128
71
63
72
80
73
79
0
VERTEX
8
skin
10
0.0
20
0.0
30
0.0
70
128
71
64
72
82
73
83
0
VERTEX
8
skin
10
0.0
20
0.0
30
0.0
70
128
71
82
72
64
73
47
0
VERTEX
8
skin
10
0.0
20
0.0
30
0.0
70
128
71
84
72
85
73
86
0
VERTEX
8
skin
10
0.0
20
0.0
30
0.0
70
128
71
86
72
87
73
84
0
VERTEX
8
skin
10
0.0
20
0.0
30
0.0
70
128
71
87
72
86
73
82
0
VERTEX
8
skin
10
0.0
20
0.0
30
0.0
70
128
71
82
72
47
73
87
0
VERTEX
8
skin
10
0.0
20
0.0
30
0.0
70
128
71
84
72
83
73
85
0
VERTEX
8
skin
10
0.0
20
0.0
30
0.0
70
128
71
83
72
84
73
64
0
VERTEX
8
skin
10
0.0
20
0.0
30
0.0
70
128
71
85
72
83
73
82
0
VERTEX
8
skin
10
0.0
20
0.0
30
0.0
70
128
71
82
72
86
73
85
0
VERTEX
8
skin
10
0.0
20
0.0
30
0.0
70
128
71
51
72
88
73
65
0
VERTEX
8
skin
10
0.0
20
0.0
30
0.0
70
128
71
88
72
51
73
89
0
VERTEX
8
skin
10
0.0
20
0.0
30
0.0
70
128
71
50
72
90
73
91
0
VERTEX
8
skin
10
0.0
20
0.0
30
0.0
70
128
71
91
72
92
73
50
0
VERTEX
8
skin
10
0.0
20
0.0
30
0.0
70
128
71
92
72
91
73
88
0
VERTEX
8
skin
10
0.0
20
0.0
30
0.0
70
128
71
88
72
89
73
92
0
VERTEX
8
skin
10
0.0
20
0.0
30
0.0
70
128
71
50
72
89
73
51
0
VERTEX
8
skin
10
0.0
20
0.0
30
0.0
70
128
71
89
72
50
73
92
0
VERTEX
8
skin
10
0.0
20
0.0
30
0.0
70
128
71
90
72
65
73
88
0
VERTEX
8
skin
10
0.0
20
0.0
30
0.0
70
128
71
88
72
91
73
90
0
VERTEX
8
skin
10
0.0
20
0.0
30
0.0
70
128
71
55
72
93
73
54
0
VERTEX
8
skin
10
0.0
20
0.0
30
0.0
70
128
71
93
72
55
73
94
0
VERTEX
8
skin
10
0.0
20
0.0
30
0.0
70
128
71
59
72
58
73
95
0
VERTEX
8
skin
10
0.0
20
0.0
30
0.0
70
128
71
95
72
96
73
59
0
VERTEX
8
skin
10
0.0
20
0.0
30
0.0
70
128
71
96
72
95
73
93
0
VERTEX
8
skin
10
0.0
20
0.0
30
0.0
70
128
71
93
72
94
73
96
0
VERTEX
8
skin
10
0.0
20
0.0
30
0.0
70
128
71
59
72
94
73
55
0
VERTEX
8
skin
10
0.0
20
0.0
30
0.0
70
128
71
94
72
59
73
96
0
VERTEX
8
skin
10
0.0
20
0.0
30
0.0
70
128
71
58
72
54
73
93
0
VERTEX
8
skin
10
0.0
20
0.0
30
0.0
70
128
71
93
72
95
73
58
0
VERTEX
8
skin
10
0.0
20
0.0
30
0.0
70
128
71
90
72
53
73
33
0
VERTEX
8
skin
10
0.0
20
0.0
30
0.0
70
128
71
33
72
65
73
90
0
VERTEX
8
skin
10
0.0
20
0.0
30
0.0
70
128
71
52
72
51
73
34
0
VERTEX
8
skin
10
0.0
20
0.0
30
0.0
70
128
71
50
72
51
73
52
0
VERTEX
8
skin
10
0.0
20
0.0
30
0.0
70
128
71
52
72
53
73
90
0
VERTEX
8
skin
10
0.0
20
0.0
30
0.0
70
128
71
50
72
52
73
90
0
VERTEX
8
skin
10
0.0
20
0.0
30
0.0
70
128
71
33
72
34
73
51
0
VERTEX
8
skin
10
0.0
20
0.0
30
0.0
70
128
71
33
72
51
73
65
0
VERTEX
8
skin
10
0.0
20
0.0
30
0.0
70
128
71
97
72
40
73
44
0
VERTEX
8
skin
10
0.0
20
0.0
30
0.0
70
128
71
40
72
97
73
98
0
VERTEX
8
skin
10
0.0
20
0.0
30
0.0
70
128
71
99
72
100
73
101
0
VERTEX
8
skin
10
0.0
20
0.0
30
0.0
70
128
71
101
72
102
73
99
0
VERTEX
8
skin
10
0.0
20
0.0
30
0.0
70
128
71
102
72
101
73
40
0
VERTEX
8
skin
10
0.0
20
0.0
30
0.0
70
128
71
40
72
98
73
102
0
VERTEX
8
skin
10
0.0
20
0.0
30
0.0
70
128
71
99
72
44
73
100
0
VERTEX
8
skin
10
0.0
20
0.0
30
0.0
70
128
71
44
72
99
73
97
0
VERTEX
8
skin
10
0.0
20
0.0
30
0.0
70
128
71
99
72
98
73
97
0
VERTEX
8
skin
10
0.0
20
0.0
30
0.0
70
128
71
98
72
99
73
102
0
VERTEX
8
skin
10
0.0
20
0.0
30
0.0
70
128
71
103
72
46
73
104
0
VERTEX
8
skin
10
0.0
20
0.0
30
0.0
70
128
71
46
72
103
73
43
0
VERTEX
8
skin
10
0.0
20
0.0
30
0.0
70
128
71
105
72
106
73
107
0
VERTEX
8
skin
10
0.0
20
0.0
30
0.0
70
128
71
107
72
100
73
105
0
VERTEX
8
skin
10
0.0
20
0.0
30
0.0
70
128
71
105
72
104
73
106
0
VERTEX
8
skin
10
0.0
20
0.0
30
0.0
70
128
71
104
72
105
73
103
0
VERTEX
8
skin
10
0.0
20
0.0
30
0.0
70
128
71
105
72
43
73
103
0
VERTEX
8
skin
10
0.0
20
0.0
30
0.0
70
128
71
43
72
105
73
100
0
VERTEX
8
skin
10
0.0
20
0.0
30
0.0
70
128
71
106
72
104
73
46
0
VERTEX
8
skin
10
0.0
20
0.0
30
0.0
70
128
71
46
72
107
73
106
0
VERTEX
8
skin
10
0.0
20
0.0
30
0.0
70
128
71
108
72
48
73
109
0
VERTEX
8
skin
10
0.0
20
0.0
30
0.0
70
128
71
48
72
108
73
45
0
VERTEX
8
skin
10
0.0
20
0.0
30
0.0
70
128
71
110
72
111
73
112
0
VERTEX
8
skin
10
0.0
20
0.0
30
0.0
70
128
71
112
72
107
73
110
0
VERTEX
8
skin
10
0.0
20
0.0
30
0.0
70
128
71
110
72
109
73
111
0
VERTEX
8
skin
10
0.0
20
0.0
30
0.0
70
128
71
109
72
110
73
108
0
VERTEX
8
skin
10
0.0
20
0.0
30
0.0
70
128
71
110
72
45
73
108
0
VERTEX
8
skin
10
0.0
20
0.0
30
0.0
70
128
71
45
72
110
73
107
0
VERTEX
8
skin
10
0.0
20
0.0
30
0.0
70
128
71
111
72
109
73
48
0
VERTEX
8
skin
10
0.0
20
0.0
30
0.0
70
128
71
48
72
112
73
111
0
VERTEX
8
skin
10
0.0
20
0.0
30
0.0
70
128
71
49
72
113
73
114
0
VERTEX
8
skin
10
0.0
20
0.0
30
0.0
70
128
71
113
72
49
73
53
0
VERTEX
8
skin
10
0.0
20
0.0
30
0.0
70
128
71
112
72
115
73
116
0
VERTEX
8
skin
10
0.0
20
0.0
30
0.0
70
128
71
116
72
117
73
112
0
VERTEX
8
skin
10
0.0
20
0.0
30
0.0
70
128
71
117
72
116
73
113
0
VERTEX
8
skin
10
0.0
20
0.0
30
0.0
70
128
71
113
72
53
73
117
0
VERTEX
8
skin
10
0.0
20
0.0
30
0.0
70
128
71
112
72
114
73
115
0
VERTEX
8
skin
10
0.0
20
0.0
30
0.0
70
128
71
114
72
112
73
49
0
VERTEX
8
skin
10
0.0
20
0.0
30
0.0
70
128
71
115
72
114
73
113
0
VERTEX
8
skin
10
0.0
20
0.0
30
0.0
70
128
71
113
72
116
73
115
0
VERTEX
8
skin
10
0.0
20
0.0
30
0.0
70
128
71
57
72
118
73
52
0
VERTEX
8
skin
10
0.0
20
0.0
30
0.0
70
128
71
118
72
57
73
119
0
VERTEX
8
skin
10
0.0
20
0.0
30
0.0
70
128
71
120
72
117
73
121
0
VERTEX
8
skin
10
0.0
20
0.0
30
0.0
70
128
71
121
72
122
73
120
0
VERTEX
8
skin
10
0.0
20
0.0
30
0.0
70
128
71
122
72
121
73
118
0
VERTEX
8
skin
10
0.0
20
0.0
30
0.0
70
128
71
118
72
119
73
122
0
VERTEX
8
skin
10
0.0
20
0.0
30
0.0
70
128
71
120
72
119
73
57
0
VERTEX
8
skin
10
0.0
20
0.0
30
0.0
70
128
71
119
72
120
73
122
0
VERTEX
8
skin
10
0.0
20
0.0
30
0.0
70
128
71
117
72
52
73
118
0
VERTEX
8
skin
10
0.0
20
0.0
30
0.0
70
128
71
118
72
121
73
117
0
VERTEX
8
skin
10
0.0
20
0.0
30
0.0
70
128
71
41
72
123
73
56
0
VERTEX
8
skin
10
0.0
20
0.0
30
0.0
70
128
71
123
72
41
73
124
0
VERTEX
8
skin
10
0.0
20
0.0
30
0.0
70
128
71
101
72
120
73
125
0
VERTEX
8
skin
10
0.0
20
0.0
30
0.0
70
128
71
125
72
126
73
101
0
VERTEX
8
skin
10
0.0
20
0.0
30
0.0
70
128
71
126
72
125
73
123
0
VERTEX
8
skin
10
0.0
20
0.0
30
0.0
70
128
71
123
72
124
73
126
0
VERTEX
8
skin
10
0.0
20
0.0
30
0.0
70
128
71
101
72
124
73
41
0
VERTEX
8
skin
10
0.0
20
0.0
30
0.0
70
128
71
124
72
101
73
126
0
VERTEX
8
skin
10
0.0
20
0.0
30
0.0
70
128
71
120
72
56
73
123
0
VERTEX
8
skin
10
0.0
20
0.0
30
0.0
70
128
71
123
72
125
73
120
0
VERTEX
8
skin
10
0.0
20
0.0
30
0.0
70
128
71
100
72
107
73
112
0
VERTEX
8
skin
10
0.0
20
0.0
30
0.0
70
128
71
112
72
117
73
120
0
VERTEX
8
skin
10
0.0
20
0.0
30
0.0
70
128
71
120
72
101
73
100
0
VERTEX
8
skin
10
0.0
20
0.0
30
0.0
70
128
71
100
72
112
73
120
0
VERTEX
8
skin
10
0.0
20
0.0
30
0.0
70
128
71
44
72
40
73
27
0
VERTEX
8
skin
10
0.0
20
0.0
30
0.0
70
128
71
26
72
27
73
40
0
VERTEX
8
skin
10
0.0
20
0.0
30
0.0
70
128
71
25
72
41
73
56
0
VERTEX
8
skin
10
0.0
20
0.0
30
0.0
70
128
71
56
72
36
73
25
0
VERTEX
8
skin
10
0.0
20
0.0
30
0.0
70
128
71
57
72
52
73
35
0
VERTEX
8
skin
10
0.0
20
0.0
30
0.0
70
128
71
34
72
35
73
52
0
VERTEX
8
skin
10
0.0
20
0.0
30
0.0
70
128
71
53
72
49
73
33
0
VERTEX
8
skin
10
0.0
20
0.0
30
0.0
70
128
71
32
72
33
73
49
0
VERTEX
8
skin
10
0.0
20
0.0
30
0.0
70
128
71
48
72
45
73
31
0
VERTEX
8
skin
10
0.0
20
0.0
30
0.0
70
128
71
30
72
31
73
45
0
VERTEX
8
skin
10
0.0
20
0.0
30
0.0
70
128
71
46
72
43
73
29
0
VERTEX
8
skin
10
0.0
20
0.0
30
0.0
70
128
71
28
72
29
73
43
0
VERTEX
8
skin
10
0.0
20
0.0
30
0.0
70
128
71
107
72
46
73
45
0
VERTEX
8
skin
10
0.0
20
0.0
30
0.0
70
128
71
48
72
49
73
112
0
VERTEX
8
skin
10
0.0
20
0.0
30
0.0
70
128
71
117
72
53
73
52
0
VERTEX
8
skin
10
0.0
20
0.0
30
0.0
70
128
71
120
72
57
73
56
0
VERTEX
8
skin
10
0.0
20
0.0
30
0.0
70
128
71
101
72
41
73
40
0
VERTEX
8
skin
10
0.0
20
0.0
30
0.0
70
128
71
100
72
44
73
43
0
VERTEX
8
skin
10
0.0
20
0.0
30
0.0
70
128
71
127
72
128
73
129
0
VERTEX
8
skin
10
0.0
20
0.0
30
0.0
70
128
71
130
72
127
73
129
0
VERTEX
8
skin
10
0.0
20
0.0
30
0.0
70
128
71
131
72
130
73
129
0
VERTEX
8
skin
10
0.0
20
0.0
30
0.0
70
128
71
132
72
131
73
129
0
VERTEX
8
skin
10
0.0
20
0.0
30
0.0
70
128
71
133
72
132
73
129
0
VERTEX
8
skin
10
0.0
20
0.0
30
0.0
70
128
71
134
72
133
73
129
0
VERTEX
8
skin
10
0.0
20
0.0
30
0.0
70
128
71
135
72
134
73
129
0
VERTEX
8
skin
10
0.0
20
0.0
30
0.0
70
128
71
136
72
135
73
129
0
VERTEX
8
skin
10
0.0
20
0.0
30
0.0
70
128
71
137
72
136
73
129
0
VERTEX
8
skin
10
0.0
20
0.0
30
0.0
70
128
71
138
72
137
73
129
0
VERTEX
8
skin
10
0.0
20
0.0
30
0.0
70
128
71
139
72
138
73
129
0
VERTEX
8
skin
10
0.0
20
0.0
30
0.0
70
128
71
128
72
139
73
129
0
VERTEX
8
skin
10
0.0
20
0.0
30
0.0
70
128
71
140
72
141
73
128
0
VERTEX
8
skin
10
0.0
20
0.0
30
0.0
70
128
71
128
72
127
73
140
0
VERTEX
8
skin
10
0.0
20
0.0
30
0.0
70
128
71
142
72
140
73
127
0
VERTEX
8
skin
10
0.0
20
0.0
30
0.0
70
128
71
127
72
130
73
142
0
VERTEX
8
skin
10
0.0
20
0.0
30
0.0
70
128
71
143
72
142
73
130
0
VERTEX
8
skin
10
0.0
20
0.0
30
0.0
70
128
71
130
72
131
73
143
0
VERTEX
8
skin
10
0.0
20
0.0
30
0.0
70
128
71
144
72
143
73
131
0
VERTEX
8
skin
10
0.0
20
0.0
30
0.0
70
128
71
131
72
132
73
144
0
VERTEX
8
skin
10
0.0
20
0.0
30
0.0
70
128
71
145
72
144
73
132
0
VERTEX
8
skin
10
0.0
20
0.0
30
0.0
70
128
71
132
72
133
73
145
0
VERTEX
8
skin
10
0.0
20
0.0
30
0.0
70
128
71
146
72
145
73
133
0
VERTEX
8
skin
10
0.0
20
0.0
30
0.0
70
128
71
133
72
134
73
146
0
VERTEX
8
skin
10
0.0
20
0.0
30
0.0
70
128
71
147
72
146
73
134
0
VERTEX
8
skin
10
0.0
20
0.0
30
0.0
70
128
71
134
72
135
73
147
0
VERTEX
8
skin
10
0.0
20
0.0
30
0.0
70
128
71
148
72
147
73
135
0
VERTEX
8
skin
10
0.0
20
0.0
30
0.0
70
128
71
135
72
136
73
148
0
VERTEX
8
skin
10
0.0
20
0.0
30
0.0
70
128
71
149
72
148
73
136
0
VERTEX
8
skin
10
0.0
20
0.0
30
0.0
70
128
71
136
72
137
73
149
0
VERTEX
8
skin
10
0.0
20
0.0
30
0.0
70
128
71
150
72
149
73
137
0
VERTEX
8
skin
10
0.0
20
0.0
30
0.0
70
128
71
137
72
138
73
150
0
VERTEX
8
skin
10
0.0
20
0.0
30
0.0
70
128
71
151
72
150
73
138
0
VERTEX
8
skin
10
0.0
20
0.0
30
0.0
70
128
71
138
72
139
73
151
0
VERTEX
8
skin
10
0.0
20
0.0
30
0.0
70
128
71
141
72
151
73
139
0
VERTEX
8
skin
10
0.0
20
0.0
30
0.0
70
128
71
139
72
128
73
141
0
VERTEX
8
skin
10
0.0
20
0.0
30
0.0
70
128
71
152
72
153
73
141
0
VERTEX
8
skin
10
0.0
20
0.0
30
0.0
70
128
71
141
72
140
73
152
0
VERTEX
8
skin
10
0.0
20
0.0
30
0.0
70
128
71
154
72
152
73
140
0
VERTEX
8
skin
10
0.0
20
0.0
30
0.0
70
128
71
140
72
142
73
154
0
VERTEX
8
skin
10
0.0
20
0.0
30
0.0
70
128
71
155
72
154
73
142
0
VERTEX
8
skin
10
0.0
20
0.0
30
0.0
70
128
71
142
72
143
73
155
0
VERTEX
8
skin
10
0.0
20
0.0
30
0.0
70
128
71
156
72
155
73
143
0
VERTEX
8
skin
10
0.0
20
0.0
30
0.0
70
128
71
143
72
144
73
156
0
VERTEX
8
skin
10
0.0
20
0.0
30
0.0
70
128
71
157
72
156
73
144
0
VERTEX
8
skin
10
0.0
20
0.0
30
0.0
70
128
71
144
72
145
73
157
0
VERTEX
8
skin
10
0.0
20
0.0
30
0.0
70
128
71
158
72
157
73
145
0
VERTEX
8
skin
10
0.0
20
0.0
30
0.0
70
128
71
145
72
146
73
158
0
VERTEX
8
skin
10
0.0
20
0.0
30
0.0
70
128
71
159
72
158
73
146
0
VERTEX
8
skin
10
0.0
20
0.0
30
0.0
70
128
71
146
72
147
73
159
0
VERTEX
8
skin
10
0.0
20
0.0
30
0.0
70
128
71
160
72
159
73
147
0
VERTEX
8
skin
10
0.0
20
0.0
30
0.0
70
128
71
147
72
148
73
160
0
VERTEX
8
skin
10
0.0
20
0.0
30
0.0
70
128
71
161
72
160
73
148
0
VERTEX
8
skin
10
0.0
20
0.0
30
0.0
70
128
71
148
72
149
73
161
0
VERTEX
8
skin
10
0.0
20
0.0
30
0.0
70
128
71
162
72
161
73
149
0
VERTEX
8
skin
10
0.0
20
0.0
30
0.0
70
128
71
149
72
150
73
162
0
VERTEX
8
skin
10
0.0
20
0.0
30
0.0
70
128
71
163
72
162
73
150
0
VERTEX
8
skin
10
0.0
20
0.0
30
0.0
70
128
71
150
72
151
73
163
0
VERTEX
8
skin
10
0.0
20
0.0
30
0.0
70
128
71
153
72
163
73
151
0
VERTEX
8
skin
10
0.0
20
0.0
30
0.0
70
128
71
151
72
141
73
153
0
VERTEX
8
skin
10
0.0
20
0.0
30
0.0
70
128
71
164
72
165
73
153
0
VERTEX
8
skin
10
0.0
20
0.0
30
0.0
70
128
71
153
72
152
73
164
0
VERTEX
8
skin
10
0.0
20
0.0
30
0.0
70
128
71
166
72
164
73
152
0
VERTEX
8
skin
10
0.0
20
0.0
30
0.0
70
128
71
152
72
154
73
166
0
VERTEX
8
skin
10
0.0
20
0.0
30
0.0
70
128
71
167
72
166
73
154
0
VERTEX
8
skin
10
0.0
20
0.0
30
0.0
70
128
71
154
72
155
73
167
0
VERTEX
8
skin
10
0.0
20
0.0
30
0.0
70
128
71
168
72
167
73
155
0
VERTEX
8
skin
10
0.0
20
0.0
30
0.0
70
128
71
155
72
156
73
168
0
VERTEX
8
skin
10
0.0
20
0.0
30
0.0
70
128
71
169
72
168
73
156
0
VERTEX
8
skin
10
0.0
20
0.0
30
0.0
70
128
71
156
72
157
73
169
0
VERTEX
8
skin
10
0.0
20
0.0
30
0.0
70
128
71
170
72
169
73
157
0
VERTEX
8
skin
10
0.0
20
0.0
30
0.0
70
128
71
157
72
158
73
170
0
VERTEX
8
skin
10
0.0
20
0.0
30
0.0
70
128
71
171
72
170
73
158
0
VERTEX
8
skin
10
0.0
20
0.0
30
0.0
70
128
71
158
72
159
73
171
0
VERTEX
8
skin
10
0.0
20
0.0
30
0.0
70
128
71
172
72
171
73
159
0
VERTEX
8
skin
10
0.0
20
0.0
30
0.0
70
128
71
159
72
160
73
172
0
VERTEX
8
skin
10
0.0
20
0.0
30
0.0
70
128
71
173
72
172
73
160
0
VERTEX
8
skin
10
0.0
20
0.0
30
0.0
70
128
71
160
72
161
73
173
0
VERTEX
8
skin
10
0.0
20
0.0
30
0.0
70
128
71
174
72
173
73
161
0
VERTEX
8
skin
10
0.0
20
0.0
30
0.0
70
128
71
161
72
162
73
174
0
VERTEX
8
skin
10
0.0
20
0.0
30
0.0
70
128
71
175
72
174
73
162
0
VERTEX
8
skin
10
0.0
20
0.0
30
0.0
70
128
71
162
72
163
73
175
0
VERTEX
8
skin
10
0.0
20
0.0
30
0.0
70
128
71
165
72
175
73
163
0
VERTEX
8
skin
10
0.0
20
0.0
30
0.0
70
128
71
163
72
153
73
165
0
VERTEX
8
skin
10
0.0
20
0.0
30
0.0
70
128
71
176
72
177
73
165
0
VERTEX
8
skin
10
0.0
20
0.0
30
0.0
70
128
71
165
72
164
73
176
0
VERTEX
8
skin
10
0.0
20
0.0
30
0.0
70
128
71
178
72
176
73
164
0
VERTEX
8
skin
10
0.0
20
0.0
30
0.0
70
128
71
164
72
166
73
178
0
VERTEX
8
skin
10
0.0
20
0.0
30
0.0
70
128
71
179
72
178
73
166
0
VERTEX
8
skin
10
0.0
20
0.0
30
0.0
70
128
71
166
72
167
73
179
0
VERTEX
8
skin
10
0.0
20
0.0
30
0.0
70
128
71
180
72
179
73
167
0
VERTEX
8
skin
10
0.0
20
0.0
30
0.0
70
128
71
167
72
168
73
180
0
VERTEX
8
skin
10
0.0
20
0.0
30
0.0
70
128
71
181
72
180
73
168
0
VERTEX
8
skin
10
0.0
20
0.0
30
0.0
70
128
71
168
72
169
73
181
0
VERTEX
8
skin
10
0.0
20
0.0
30
0.0
70
128
71
182
72
181
73
169
0
VERTEX
8
skin
10
0.0
20
0.0
30
0.0
70
128
71
169
72
170
73
182
0
VERTEX
8
skin
10
0.0
20
0.0
30
0.0
70
128
71
183
72
182
73
170
0
VERTEX
8
skin
10
0.0
20
0.0
30
0.0
70
128
71
170
72
171
73
183
0
VERTEX
8
skin
10
0.0
20
0.0
30
0.0
70
128
71
184
72
183
73
171
0
VERTEX
8
skin
10
0.0
20
0.0
30
0.0
70
128
71
171
72
172
73
184
0
VERTEX
8
skin
10
0.0
20
0.0
30
0.0
70
128
71
185
72
184
73
172
0
VERTEX
8
skin
10
0.0
20
0.0
30
0.0
70
128
71
172
72
173
73
185
0
VERTEX
8
skin
10
0.0
20
0.0
30
0.0
70
128
71
186
72
185
73
173
0
VERTEX
8
skin
10
0.0
20
0.0
30
0.0
70
128
71
173
72
174
73
186
0
VERTEX
8
skin
10
0.0
20
0.0
30
0.0
70
128
71
187
72
186
73
174
0
VERTEX
8
skin
10
0.0
20
0.0
30
0.0
70
128
71
174
72
175
73
187
0
VERTEX
8
skin
10
0.0
20
0.0
30
0.0
70
128
71
177
72
187
73
175
0
VERTEX
8
skin
10
0.0
20
0.0
30
0.0
70
128
71
175
72
165
73
177
0
VERTEX
8
skin
10
0.0
20
0.0
30
0.0
70
128
71
177
72
176
73
188
0
VERTEX
8
skin
10
0.0
20
0.0
30
0.0
70
128
71
176
72
178
73
188
0
VERTEX
8
skin
10
0.0
20
0.0
30
0.0
70
128
71
178
72
179
73
188
0
VERTEX
8
skin
10
0.0
20
0.0
30
0.0
70
128
71
179
72
180
73
188
0
VERTEX
8
skin
10
0.0
20
0.0
30
0.0
70
128
71
180
72
181
73
188
0
VERTEX
8
skin
10
0.0
20
0.0
30
0.0
70
128
71
181
72
182
73
188
0
VERTEX
8
skin
10
0.0
20
0.0
30
0.0
70
128
71
182
72
183
73
188
0
VERTEX
8
skin
10
0.0
20
0.0
30
0.0
70
128
71
183
72
184
73
188
0
VERTEX
8
skin
10
0.0
20
0.0
30
0.0
70
128
71
184
72
185
73
188
0
VERTEX
8
skin
10
0.0
20
0.0
30
0.0
70
128
71
185
72
186
73
188
0
VERTEX
8
skin
10
0.0
20
0.0
30
0.0
70
128
71
186
72
187
73
188
0
VERTEX
8
skin
10
0.0
20
0.0
30
0.0
70
128
71
187
72
177
73
188
0
VERTEX
8
skin
10
0.0
20
0.0
30
0.0
70
128
71
189
72
190
73
191
0
VERTEX
8
skin
10
0.0
20
0.0
30
0.0
70
128
71
192
72
189
73
191
0
VERTEX
8
skin
10
0.0
20
0.0
30
0.0
70
128
71
193
72
192
73
191
0
VERTEX
8
skin
10
0.0
20
0.0
30
0.0
70
128
71
194
72
193
73
191
0
VERTEX
8
skin
10
0.0
20
0.0
30
0.0
70
128
71
195
72
194
73
191
0
VERTEX
8
skin
10
0.0
20
0.0
30
0.0
70
128
71
196
72
195
73
191
0
VERTEX
8
skin
10
0.0
20
0.0
30
0.0
70
128
71
197
72
196
73
191
0
VERTEX
8
skin
10
0.0
20
0.0
30
0.0
70
128
71
198
72
197
73
191
0
VERTEX
8
skin
10
0.0
20
0.0
30
0.0
70
128
71
199
72
198
73
191
0
VERTEX
8
skin
10
0.0
20
0.0
30
0.0
70
128
71
200
72
199
73
191
0
VERTEX
8
skin
10
0.0
20
0.0
30
0.0
70
128
71
201
72
200
73
191
0
VERTEX
8
skin
10
0.0
20
0.0
30
0.0
70
128
71
190
72
201
73
191
0
VERTEX
8
skin
10
0.0
20
0.0
30
0.0
70
128
71
202
72
203
73
190
0
VERTEX
8
skin
10
0.0
20
0.0
30
0.0
70
128
71
190
72
189
73
202
0
VERTEX
8
skin
10
0.0
20
0.0
30
0.0
70
128
71
204
72
202
73
189
0
VERTEX
8
skin
10
0.0
20
0.0
30
0.0
70
128
71
189
72
192
73
204
0
VERTEX
8
skin
10
0.0
20
0.0
30
0.0
70
128
71
205
72
204
73
192
0
VERTEX
8
skin
10
0.0
20
0.0
30
0.0
70
128
71
192
72
193
73
205
0
VERTEX
8
skin
10
0.0
20
0.0
30
0.0
70
128
71
206
72
205
73
193
0
VERTEX
8
skin
10
0.0
20
0.0
30
0.0
70
128
71
193
72
194
73
206
0
VERTEX
8
skin
10
0.0
20
0.0
30
0.0
70
128
71
207
72
206
73
194
0
VERTEX
8
skin
10
0.0
20
0.0
30
0.0
70
128
71
194
72
195
73
207
0
VERTEX
8
skin
10
0.0
20
0.0
30
0.0
70
128
71
208
72
207
73
195
0
VERTEX
8
skin
10
0.0
20
0.0
30
0.0
70
128
71
195
72
196
73
208
0
VERTEX
8
skin
10
0.0
20
0.0
30
0.0
70
128
71
209
72
208
73
196
0
VERTEX
8
skin
10
0.0
20
0.0
30
0.0
70
128
71
196
72
197
73
209
0
VERTEX
8
skin
10
0.0
20
0.0
30
0.0
70
128
71
210
72
209
73
197
0
VERTEX
8
skin
10
0.0
20
0.0
30
0.0
70
128
71
197
72
198
73
210
0
VERTEX
8
skin
10
0.0
20
0.0
30
0.0
70
128
71
211
72
210
73
198
0
VERTEX
8
skin
10
0.0
20
0.0
30
0.0
70
128
71
198
72
199
73
211
0
VERTEX
8
skin
10
0.0
20
0.0
30
0.0
70
128
71
212
72
211
73
199
0
VERTEX
8
skin
10
0.0
20
0.0
30
0.0
70
128
71
199
72
200
73
212
0
VERTEX
8
skin
10
0.0
20
0.0
30
0.0
70
128
71
213
72
212
73
200
0
VERTEX
8
skin
10
0.0
20
0.0
30
0.0
70
128
71
200
72
201
73
213
0
VERTEX
8
skin
10
0.0
20
0.0
30
0.0
70
128
71
203
72
213
73
201
0
VERTEX
8
skin
10
0.0
20
0.0
30
0.0
70
128
71
201
72
190
73
203
0
VERTEX
8
skin
10
0.0
20
0.0
30
0.0
70
128
71
214
72
215
73
203
0
VERTEX
8
skin
10
0.0
20
0.0
30
0.0
70
128
71
203
72
202
73
214
0
VERTEX
8
skin
10
0.0
20
0.0
30
0.0
70
128
71
216
72
214
73
202
0
VERTEX
8
skin
10
0.0
20
0.0
30
0.0
70
128
71
202
72
204
73
216
0
VERTEX
8
skin
10
0.0
20
0.0
30
0.0
70
128
71
217
72
216
73
204
0
VERTEX
8
skin
10
0.0
20
0.0
30
0.0
70
128
71
204
72
205
73
217
0
VERTEX
8
skin
10
0.0
20
0.0
30
0.0
70
128
71
218
72
217
73
205
0
VERTEX
8
skin
10
0.0
20
0.0
30
0.0
70
128
71
205
72
206
73
218
0
VERTEX
8
skin
10
0.0
20
0.0
30
0.0
70
128
71
219
72
218
73
206
0
VERTEX
8
skin
10
0.0
20
0.0
30
0.0
70
128
71
206
72
207
73
219
0
VERTEX
8
skin
10
0.0
20
0.0
30
0.0
70
128
71
220
72
219
73
207
0
VERTEX
8
skin
10
0.0
20
0.0
30
0.0
70
128
71
207
72
208
73
220
0
VERTEX
8
skin
10
0.0
20
0.0
30
0.0
70
128
71
221
72
220
73
208
0
VERTEX
8
skin
10
0.0
20
0.0
30
0.0
70
128
71
208
72
209
73
221
0
VERTEX
8
skin
10
0.0
20
0.0
30
0.0
70
128
71
222
72
221
73
209
0
VERTEX
8
skin
10
0.0
20
0.0
30
0.0
70
128
71
209
72
210
73
222
0
VERTEX
8
skin
10
0.0
20
0.0
30
0.0
70
128
71
223
72
222
73
210
0
VERTEX
8
skin
10
0.0
20
0.0
30
0.0
70
128
71
210
72
211
73
223
0
VERTEX
8
skin
10
0.0
20
0.0
30
0.0
70
128
71
224
72
223
73
211
0
VERTEX
8
skin
10
0.0
20
0.0
30
0.0
70
128
71
211
72
212
73
224
0
VERTEX
8
skin
10
0.0
20
0.0
30
0.0
70
128
71
225
72
224
73
212
0
VERTEX
8
skin
10
0.0
20
0.0
30
0.0
70
128
71
212
72
213
73
225
0
VERTEX
8
skin
10
0.0
20
0.0
30
0.0
70
128
71
215
72
225
73
213
0
VERTEX
8
skin
10
0.0
20
0.0
30
0.0
70
128
71
213
72
203
73
215
0
VERTEX
8
skin
10
0.0
20
0.0
30
0.0
70
128
71
226
72
227
73
215
0
VERTEX
8
skin
10
0.0
20
0.0
30
0.0
70
128
71
215
72
214
73
226
0
VERTEX
8
skin
10
0.0
20
0.0
30
0.0
70
128
71
228
72
226
73
214
0
VERTEX
8
skin
10
0.0
20
0.0
30
0.0
70
128
71
214
72
216
73
228
0
VERTEX
8
skin
10
0.0
20
0.0
30
0.0
70
128
71
229
72
228
73
216
0
VERTEX
8
skin
10
0.0
20
0.0
30
0.0
70
128
71
216
72
217
73
229
0
VERTEX
8
skin
10
0.0
20
0.0
30
0.0
70
128
71
230
72
229
73
217
0
VERTEX
8
skin
10
0.0
20
0.0
30
0.0
70
128
71
217
72
218
73
230
0
VERTEX
8
skin
10
0.0
20
0.0
30
0.0
70
128
71
231
72
230
73
218
0
VERTEX
8
skin
10
0.0
20
0.0
30
0.0
70
128
71
218
72
219
73
231
0
VERTEX
8
skin
10
0.0
20
0.0
30
0.0
70
128
71
232
72
231
73
219
0
VERTEX
8
skin
10
0.0
20
0.0
30
0.0
70
128
71
219
72
220
73
232
0
VERTEX
8
skin
10
0.0
20
0.0
30
0.0
70
128
71
233
72
232
73
220
0
VERTEX
8
skin
10
0.0
20
0.0
30
0.0
70
128
71
220
72
221
73
233
0
VERTEX
8
skin
10
0.0
20
0.0
30
0.0
70
128
71
234
72
233
73
221
0
VERTEX
8
skin
10
0.0
20
0.0
30
0.0
70
128
71
221
72
222
73
234
0
VERTEX
8
skin
10
0.0
20
0.0
30
0.0
70
128
71
235
72
234
73
222
0
VERTEX
8
skin
10
0.0
20
0.0
30
0.0
70
128
71
222
72
223
73
235
0
VERTEX
8
skin
10
0.0
20
0.0
30
0.0
70
128
71
236
72
235
73
223
0
VERTEX
8
skin
10
0.0
20
0.0
30
0.0
70
128
71
223
72
224
73
236
0
VERTEX
8
skin
10
0.0
20
0.0
30
0.0
70
128
71
237
72
236
73
224
0
VERTEX
8
skin
10
0.0
20
0.0
30
0.0
70
128
71
224
72
225
73
237
0
VERTEX
8
skin
10
0.0
20
0.0
30
0.0
70
128
71
227
72
237
73
225
0
VERTEX
8
skin
10
0.0
20
0.0
30
0.0
70
128
71
225
72
215
73
227
0
VERTEX
8
skin
10
0.0
20
0.0
30
0.0
70
128
71
238
72
239
73
227
0
VERTEX
8
skin
10
0.0
20
0.0
30
0.0
70
128
71
227
72
226
73
238
0
VERTEX
8
skin
10
0.0
20
0.0
30
0.0
70
128
71
240
72
238
73
226
0
VERTEX
8
skin
10
0.0
20
0.0
30
0.0
70
128
71
226
72
228
73
240
0
VERTEX
8
skin
10
0.0
20
0.0
30
0.0
70
128
71
241
72
240
73
228
0
VERTEX
8
skin
10
0.0
20
0.0
30
0.0
70
128
71
228
72
229
73
241
0
VERTEX
8
skin
10
0.0
20
0.0
30
0.0
70
128
71
242
72
241
73
229
0
VERTEX
8
skin
10
0.0
20
0.0
30
0.0
70
128
71
229
72
230
73
242
0
VERTEX
8
skin
10
0.0
20
0.0
30
0.0
70
128
71
243
72
242
73
230
0
VERTEX
8
skin
10
0.0
20
0.0
30
0.0
70
128
71
230
72
231
73
243
0
VERTEX
8
skin
10
0.0
20
0.0
30
0.0
70
128
71
244
72
243
73
231
0
VERTEX
8
skin
10
0.0
20
0.0
30
0.0
70
128
71
231
72
232
73
244
0
VERTEX
8
skin
10
0.0
20
0.0
30
0.0
70
128
71
245
72
244
73
232
0
VERTEX
8
skin
10
0.0
20
0.0
30
0.0
70
128
71
232
72
233
73
245
0
VERTEX
8
skin
10
0.0
20
0.0
30
0.0
70
128
71
246
72
245
73
233
0
VERTEX
8
skin
10
0.0
20
0.0
30
0.0
70
128
71
233
72
234
73
246
0
VERTEX
8
skin
10
0.0
20
0.0
30
0.0
70
128
71
247
72
246
73
234
0
VERTEX
8
skin
10
0.0
20
0.0
30
0.0
70
128
71
234
72
235
73
247
0
VERTEX
8
skin
10
0.0
20
0.0
30
0.0
70
128
71
248
72
247
73
235
0
VERTEX
8
skin
10
0.0
20
0.0
30
0.0
70
128
71
235
72
236
73
248
0
VERTEX
8
skin
10
0.0
20
0.0
30
0.0
70
128
71
249
72
248
73
236
0
VERTEX
8
skin
10
0.0
20
0.0
30
0.0
70
128
71
236
72
237
73
249
0
VERTEX
8
skin
10
0.0
20
0.0
30
0.0
70
128
71
239
72
249
73
237
0
VERTEX
8
skin
10
0.0
20
0.0
30
0.0
70
128
71
237
72
227
73
239
0
VERTEX
8
skin
10
0.0
20
0.0
30
0.0
70
128
71
239
72
238
73
250
0
VERTEX
8
skin
10
0.0
20
0.0
30
0.0
70
128
71
238
72
240
73
250
0
VERTEX
8
skin
10
0.0
20
0.0
30
0.0
70
128
71
240
72
241
73
250
0
VERTEX
8
skin
10
0.0
20
0.0
30
0.0
70
128
71
241
72
242
73
250
0
VERTEX
8
skin
10
0.0
20
0.0
30
0.0
70
128
71
242
72
243
73
250
0
VERTEX
8
skin
10
0.0
20
0.0
30
0.0
70
128
71
243
72
244
73
250
0
VERTEX
8
skin
10
0.0
20
0.0
30
0.0
70
128
71
244
72
245
73
250
0
VERTEX
8
skin
10
0.0
20
0.0
30
0.0
70
128
71
245
72
246
73
250
0
VERTEX
8
skin
10
0.0
20
0.0
30
0.0
70
128
71
246
72
247
73
250
0
VERTEX
8
skin
10
0.0
20
0.0
30
0.0
70
128
71
247
72
248
73
250
0
VERTEX
8
skin
10
0.0
20
0.0
30
0.0
70
128
71
248
72
249
73
250
0
VERTEX
8
skin
10
0.0
20
0.0
30
0.0
70
128
71
249
72
239
73
250
0
VERTEX
8
skin
10
0.0
20
0.0
30
0.0
70
128
71
251
72
252
73
253
0
VERTEX
8
skin
10
0.0
20
0.0
30
0.0
70
128
71
254
72
251
73
253
0
VERTEX
8
skin
10
0.0
20
0.0
30
0.0
70
128
71
255
72
254
73
253
0
VERTEX
8
skin
10
0.0
20
0.0
30
0.0
70
128
71
256
72
255
73
253
0
VERTEX
8
skin
10
0.0
20
0.0
30
0.0
70
128
71
257
72
256
73
253
0
VERTEX
8
skin
10
0.0
20
0.0
30
0.0
70
128
71
258
72
257
73
253
0
VERTEX
8
skin
10
0.0
20
0.0
30
0.0
70
128
71
259
72
258
73
253
0
VERTEX
8
skin
10
0.0
20
0.0
30
0.0
70
128
71
260
72
259
73
253
0
VERTEX
8
skin
10
0.0
20
0.0
30
0.0
70
128
71
261
72
260
73
253
0
VERTEX
8
skin
10
0.0
20
0.0
30
0.0
70
128
71
262
72
261
73
253
0
VERTEX
8
skin
10
0.0
20
0.0
30
0.0
70
128
71
263
72
262
73
253
0
VERTEX
8
skin
10
0.0
20
0.0
30
0.0
70
128
71
252
72
263
73
253
0
VERTEX
8
skin
10
0.0
20
0.0
30
0.0
70
128
71
264
72
265
73
252
0
VERTEX
8
skin
10
0.0
20
0.0
30
0.0
70
128
71
252
72
251
73
264
0
VERTEX
8
skin
10
0.0
20
0.0
30
0.0
70
128
71
266
72
264
73
251
0
VERTEX
8
skin
10
0.0
20
0.0
30
0.0
70
128
71
251
72
254
73
266
0
VERTEX
8
skin
10
0.0
20
0.0
30
0.0
70
128
71
267
72
266
73
254
0
VERTEX
8
skin
10
0.0
20
0.0
30
0.0
70
128
71
254
72
255
73
267
0
VERTEX
8
skin
10
0.0
20
0.0
30
0.0
70
128
71
268
72
267
73
255
0
VERTEX
8
skin
10
0.0
20
0.0
30
0.0
70
128
71
255
72
256
73
268
0
VERTEX
8
skin
10
0.0
20
0.0
30
0.0
70
128
71
269
72
268
73
256
0
VERTEX
8
skin
10
0.0
20
0.0
30
0.0
70
128
71
256
72
257
73
269
0
VERTEX
8
skin
10
0.0
20
0.0
30
0.0
70
128
71
270
72
269
73
257
0
VERTEX
8
skin
10
0.0
20
0.0
30
0.0
70
128
71
257
72
258
73
270
0
VERTEX
8
skin
10
0.0
20
0.0
30
0.0
70
128
71
271
72
270
73
258
0
VERTEX
8
skin
10
0.0
20
0.0
30
0.0
70
128
71
258
72
259
73
271
0
VERTEX
8
skin
10
0.0
20
0.0
30
0.0
70
128
71
272
72
271
73
259
0
VERTEX
8
skin
10
0.0
20
0.0
30
0.0
70
128
71
259
72
260
73
272
0
VERTEX
8
skin
10
0.0
20
0.0
30
0.0
70
128
71
273
72
272
73
260
0
VERTEX
8
skin
10
0.0
20
0.0
30
0.0
70
128
71
260
72
261
73
273
0
VERTEX
8
skin
10
0.0
20
0.0
30
0.0
70
128
71
274
72
273
73
261
0
VERTEX
8
skin
10
0.0
20
0.0
30
0.0
70
128
71
261
72
262
73
274
0
VERTEX
8
skin
10
0.0
20
0.0
30
0.0
70
128
71
275
72
274
73
262
0
VERTEX
8
skin
10
0.0
20
0.0
30
0.0
70
128
71
262
72
263
73
275
0
VERTEX
8
skin
10
0.0
20
0.0
30
0.0
70
128
71
265
72
275
73
263
0
VERTEX
8
skin
10
0.0
20
0.0
30
0.0
70
128
71
263
72
252
73
265
0
VERTEX
8
skin
10
0.0
20
0.0
30
0.0
70
128
71
276
72
277
73
265
0
VERTEX
8
skin
10
0.0
20
0.0
30
0.0
70
128
71
265
72
264
73
276
0
VERTEX
8
skin
10
0.0
20
0.0
30
0.0
70
128
71
278
72
276
73
264
0
VERTEX
8
skin
10
0.0
20
0.0
30
0.0
70
128
71
264
72
266
73
278
0
VERTEX
8
skin
10
0.0
20
0.0
30
0.0
70
128
71
279
72
278
73
266
0
VERTEX
8
skin
10
0.0
20
0.0
30
0.0
70
128
71
266
72
267
73
279
0
VERTEX
8
skin
10
0.0
20
0.0
30
0.0
70
128
71
280
72
279
73
267
0
VERTEX
8
skin
10
0.0
20
0.0
30
0.0
70
128
71
267
72
268
73
280
0
VERTEX
8
skin
10
0.0
20
0.0
30
0.0
70
128
71
281
72
280
73
268
0
VERTEX
8
skin
10
0.0
20
0.0
30
0.0
70
128
71
268
72
269
73
281
0
VERTEX
8
skin
10
0.0
20
0.0
30
0.0
70
128
71
282
72
281
73
269
0
VERTEX
8
skin
10
0.0
20
0.0
30
0.0
70
128
71
269
72
270
73
282
0
VERTEX
8
skin
10
0.0
20
0.0
30
0.0
70
128
71
283
72
282
73
270
0
VERTEX
8
skin
10
0.0
20
0.0
30
0.0
70
128
71
270
72
271
73
283
0
VERTEX
8
skin
10
0.0
20
0.0
30
0.0
70
128
71
284
72
283
73
271
0
VERTEX
8
skin
10
0.0
20
0.0
30
0.0
70
128
71
271
72
272
73
284
0
VERTEX
8
skin
10
0.0
20
0.0
30
0.0
70
128
71
285
72
284
73
272
0
VERTEX
8
skin
10
0.0
20
0.0
30
0.0
70
128
71
272
72
273
73
285
0
VERTEX
8
skin
10
0.0
20
0.0
30
0.0
70
128
71
286
72
285
73
273
0
VERTEX
8
skin
10
0.0
20
0.0
30
0.0
70
128
71
273
72
274
73
286
0
VERTEX
8
skin
10
0.0
20
0.0
30
0.0
70
128
71
287
72
286
73
274
0
VERTEX
8
skin
10
0.0
20
0.0
30
0.0
70
128
71
274
72
275
73
287
0
VERTEX
8
skin
10
0.0
20
0.0
30
0.0
70
128
71
277
72
287
73
275
0
VERTEX
8
skin
10
0.0
20
0.0
30
0.0
70
128
71
275
72
265
73
277
0
VERTEX
8
skin
10
0.0
20
0.0
30
0.0
70
128
71
288
72
289
73
277
0
VERTEX
8
skin
10
0.0
20
0.0
30
0.0
70
128
71
277
72
276
73
288
0
VERTEX
8
skin
10
0.0
20
0.0
30
0.0
70
128
71
290
72
288
73
276
0
VERTEX
8
skin
10
0.0
20
0.0
30
0.0
70
128
71
276
72
278
73
290
0
VERTEX
8
skin
10
0.0
20
0.0
30
0.0
70
128
71
291
72
290
73
278
0
VERTEX
8
skin
10
0.0
20
0.0
30
0.0
70
128
71
278
72
279
73
291
0
VERTEX
8
skin
10
0.0
20
0.0
30
0.0
70
128
71
292
72
291
73
279
0
VERTEX
8
skin
10
0.0
20
0.0
30
0.0
70
128
71
279
72
280
73
292
0
VERTEX
8
skin
10
0.0
20
0.0
30
0.0
70
128
71
293
72
292
73
280
0
VERTEX
8
skin
10
0.0
20
0.0
30
0.0
70
128
71
280
72
281
73
293
0
VERTEX
8
skin
10
0.0
20
0.0
30
0.0
70
128
71
294
72
293
73
281
0
VERTEX
8
skin
10
0.0
20
0.0
30
0.0
70
128
71
281
72
282
73
294
0
VERTEX
8
skin
10
0.0
20
0.0
30
0.0
70
128
71
295
72
294
73
282
0
VERTEX
8
skin
10
0.0
20
0.0
30
0.0
70
128
71
282
72
283
73
295
0
VERTEX
8
skin
10
0.0
20
0.0
30
0.0
70
128
71
296
72
295
73
283
0
VERTEX
8
skin
10
0.0
20
0.0
30
0.0
70
128
71
283
72
284
73
296
0
VERTEX
8
skin
10
0.0
20
0.0
30
0.0
70
128
71
297
72
296
73
284
0
VERTEX
8
skin
10
0.0
20
0.0
30
0.0
70
128
71
284
72
285
73
297
0
VERTEX
8
skin
10
0.0
20
0.0
30
0.0
70
128
71
298
72
297
73
285
0
VERTEX
8
skin
10
0.0
20
0.0
30
0.0
70
128
71
285
72
286
73
298
0
VERTEX
8
skin
10
0.0
20
0.0
30
0.0
70
128
71
299
72
298
73
286
0
VERTEX
8
skin
10
0.0
20
0.0
30
0.0
70
128
71
286
72
287
73
299
0
VERTEX
8
skin
10
0.0
20
0.0
30
0.0
70
128
71
289
72
299
73
287
0
VERTEX
8
skin
10
0.0
20
0.0
30
0.0
70
128
71
287
72
277
73
289
0
VERTEX
8
skin
10
0.0
20
0.0
30
0.0
70
128
71
300
72
301
73
289
0
VERTEX
8
skin
10
0.0
20
0.0
30
0.0
70
128
71
289
72
288
73
300
0
VERTEX
8
skin
10
0.0
20
0.0
30
0.0
70
128
71
302
72
300
73
288
0
VERTEX
8
skin
10
0.0
20
0.0
30
0.0
70
128
71
288
72
290
73
302
0
VERTEX
8
skin
10
0.0
20
0.0
30
0.0
70
128
71
303
72
302
73
290
0
VERTEX
8
skin
10
0.0
20
0.0
30
0.0
70
128
71
290
72
291
73
303
0
VERTEX
8
skin
10
0.0
20
0.0
30
0.0
70
128
71
304
72
303
73
291
0
VERTEX
8
skin
10
0.0
20
0.0
30
0.0
70
128
71
291
72
292
73
304
0
VERTEX
8
skin
10
0.0
20
0.0
30
0.0
70
128
71
305
72
304
73
292
0
VERTEX
8
skin
10
0.0
20
0.0
30
0.0
70
128
71
292
72
293
73
305
0
VERTEX
8
skin
10
0.0
20
0.0
30
0.0
70
128
71
306
72
305
73
293
0
VERTEX
8
skin
10
0.0
20
0.0
30
0.0
70
128
71
293
72
294
73
306
0
VERTEX
8
skin
10
0.0
20
0.0
30
0.0
70
128
71
307
72
306
73
294
0
VERTEX
8
skin
10
0.0
20
0.0
30
0.0
70
128
71
294
72
295
73
307
0
VERTEX
8
skin
10
0.0
20
0.0
30
0.0
70
128
71
308
72
307
73
295
0
VERTEX
8
skin
10
0.0
20
0.0
30
0.0
70
128
71
295
72
296
73
308
0
VERTEX
8
skin
10
0.0
20
0.0
30
0.0
70
128
71
309
72
308
73
296
0
VERTEX
8
skin
10
0.0
20
0.0
30
0.0
70
128
71
296
72
297
73
309
0
VERTEX
8
skin
10
0.0
20
0.0
30
0.0
70
128
71
310
72
309
73
297
0
VERTEX
8
skin
10
0.0
20
0.0
30
0.0
70
128
71
297
72
298
73
310
0
VERTEX
8
skin
10
0.0
20
0.0
30
0.0
70
128
71
311
72
310
73
298
0
VERTEX
8
skin
10
0.0
20
0.0
30
0.0
70
128
71
298
72
299
73
311
0
VERTEX
8
skin
10
0.0
20
0.0
30
0.0
70
128
71
301
72
311
73
299
0
VERTEX
8
skin
10
0.0
20
0.0
30
0.0
70
128
71
299
72
289
73
301
0
VERTEX
8
skin
10
0.0
20
0.0
30
0.0
70
128
71
301
72
300
73
312
0
VERTEX
8
skin
10
0.0
20
0.0
30
0.0
70
128
71
300
72
302
73
312
0
VERTEX
8
skin
10
0.0
20
0.0
30
0.0
70
128
71
302
72
303
73
312
0
VERTEX
8
skin
10
0.0
20
0.0
30
0.0
70
128
71
303
72
304
73
312
0
VERTEX
8
skin
10
0.0
20
0.0
30
0.0
70
128
71
304
72
305
73
312
0
VERTEX
8
skin
10
0.0
20
0.0
30
0.0
70
128
71
305
72
306
73
312
0
VERTEX
8
skin
10
0.0
20
0.0
30
0.0
70
128
71
306
72
307
73
312
0
VERTEX
8
skin
10
0.0
20
0.0
30
0.0
70
128
71
307
72
308
73
312
0
VERTEX
8
skin
10
0.0
20
0.0
30
0.0
70
128
71
308
72
309
73
312
0
VERTEX
8
skin
10
0.0
20
0.0
30
0.0
70
128
71
309
72
310
73
312
0
VERTEX
8
skin
10
0.0
20
0.0
30
0.0
70
128
71
310
72
311
73
312
0
VERTEX
8
skin
10
0.0
20
0.0
30
0.0
70
128
71
311
72
301
73
312
0
VERTEX
8
skin
10
0.0
20
0.0
30
0.0
70
128
71
313
72
314
73
315
0
VERTEX
8
skin
10
0.0
20
0.0
30
0.0
70
128
71
316
72
313
73
315
0
VERTEX
8
skin
10
0.0
20
0.0
30
0.0
70
128
71
317
72
316
73
315
0
VERTEX
8
skin
10
0.0
20
0.0
30
0.0
70
128
71
318
72
317
73
315
0
VERTEX
8
skin
10
0.0
20
0.0
30
0.0
70
128
71
319
72
318
73
315
0
VERTEX
8
skin
10
0.0
20
0.0
30
0.0
70
128
71
320
72
319
73
315
0
VERTEX
8
skin
10
0.0
20
0.0
30
0.0
70
128
71
321
72
320
73
315
0
VERTEX
8
skin
10
0.0
20
0.0
30
0.0
70
128
71
322
72
321
73
315
0
VERTEX
8
skin
10
0.0
20
0.0
30
0.0
70
128
71
323
72
322
73
315
0
VERTEX
8
skin
10
0.0
20
0.0
30
0.0
70
128
71
324
72
323
73
315
0
VERTEX
8
skin
10
0.0
20
0.0
30
0.0
70
128
71
325
72
324
73
315
0
VERTEX
8
skin
10
0.0
20
0.0
30
0.0
70
128
71
314
72
325
73
315
0
VERTEX
8
skin
10
0.0
20
0.0
30
0.0
70
128
71
326
72
327
73
314
0
VERTEX
8
skin
10
0.0
20
0.0
30
0.0
70
128
71
314
72
313
73
326
0
VERTEX
8
skin
10
0.0
20
0.0
30
0.0
70
128
71
328
72
326
73
313
0
VERTEX
8
skin
10
0.0
20
0.0
30
0.0
70
128
71
313
72
316
73
328
0
VERTEX
8
skin
10
0.0
20
0.0
30
0.0
70
128
71
329
72
328
73
316
0
VERTEX
8
skin
10
0.0
20
0.0
30
0.0
70
128
71
316
72
317
73
329
0
VERTEX
8
skin
10
0.0
20
0.0
30
0.0
70
128
71
330
72
329
73
317
0
VERTEX
8
skin
10
0.0
20
0.0
30
0.0
70
128
71
317
72
318
73
330
0
VERTEX
8
skin
10
0.0
20
0.0
30
0.0
70
128
71
331
72
330
73
318
0
VERTEX
8
skin
10
0.0
20
0.0
30
0.0
70
128
71
318
72
319
73
331
0
VERTEX
8
skin
10
0.0
20
0.0
30
0.0
70
128
71
332
72
331
73
319
0
VERTEX
8
skin
10
0.0
20
0.0
30
0.0
70
128
71
319
72
320
73
332
0
VERTEX
8
skin
10
0.0
20
0.0
30
0.0
70
128
71
333
72
332
73
320
0
VERTEX
8
skin
10
0.0
20
0.0
30
0.0
70
128
71
320
72
321
73
333
0
VERTEX
8
skin
10
0.0
20
0.0
30
0.0
70
128
71
334
72
333
73
321
0
VERTEX
8
skin
10
0.0
20
0.0
30
0.0
70
128
71
321
72
322
73
334
0
VERTEX
8
skin
10
0.0
20
0.0
30
0.0
70
128
71
335
72
334
73
322
0
VERTEX
8
skin
10
0.0
20
0.0
30
0.0
70
128
71
322
72
323
73
335
0
VERTEX
8
skin
10
0.0
20
0.0
30
0.0
70
128
71
336
72
335
73
323
0
VERTEX
8
skin
10
0.0
20
0.0
30
0.0
70
128
71
323
72
324
73
336
0
VERTEX
8
skin
10
0.0
20
0.0
30
0.0
70
128
71
337
72
336
73
324
0
VERTEX
8
skin
10
0.0
20
0.0
30
0.0
70
128
71
324
72
325
73
337
0
VERTEX
8
skin
10
0.0
20
0.0
30
0.0
70
128
71
327
72
337
73
325
0
VERTEX
8
skin
10
0.0
20
0.0
30
0.0
70
128
71
325
72
314
73
327
0
VERTEX
8
skin
10
0.0
20
0.0
30
0.0
70
128
71
338
72
339
73
327
0
VERTEX
8
skin
10
0.0
20
0.0
30
0.0
70
128
71
327
72
326
73
338
0
VERTEX
8
skin
10
0.0
20
0.0
30
0.0
70
128
71
340
72
338
73
326
0
VERTEX
8
skin
10
0.0
20
0.0
30
0.0
70
128
71
326
72
328
73
340
0
VERTEX
8
skin
10
0.0
20
0.0
30
0.0
70
128
71
341
72
340
73
328
0
VERTEX
8
skin
10
0.0
20
0.0
30
0.0
70
128
71
328
72
329
73
341
0
VERTEX
8
skin
10
0.0
20
0.0
30
0.0
70
128
71
342
72
341
73
329
0
VERTEX
8
skin
10
0.0
20
0.0
30
0.0
70
128
71
329
72
330
73
342
0
VERTEX
8
skin
10
0.0
20
0.0
30
0.0
70
128
71
343
72
342
73
330
0
VERTEX
8
skin
10
0.0
20
0.0
30
0.0
70
128
71
330
72
331
73
343
0
VERTEX
8
skin
10
0.0
20
0.0
30
0.0
70
128
71
344
72
343
73
331
0
VERTEX
8
skin
10
0.0
20
0.0
30
0.0
70
128
71
331
72
332
73
344
0
VERTEX
8
skin
10
0.0
20
0.0
30
0.0
70
128
71
345
72
344
73
332
0
VERTEX
8
skin
10
0.0
20
0.0
30
0.0
70
128
71
332
72
333
73
345
0
VERTEX
8
skin
10
0.0
20
0.0
30
0.0
70
128
71
346
72
345
73
333
0
VERTEX
8
skin
10
0.0
20
0.0
30
0.0
70
128
71
333
72
334
73
346
0
VERTEX
8
skin
10
0.0
20
0.0
30
0.0
70
128
71
347
72
346
73
334
0
VERTEX
8
skin
10
0.0
20
0.0
30
0.0
70
128
71
334
72
335
73
347
0
VERTEX
8
skin
10
0.0
20
0.0
30
0.0
70
128
71
348
72
347
73
335
0
VERTEX
8
skin
10
0.0
20
0.0
30
0.0
70
128
71
335
72
336
73
348
0
VERTEX
8
skin
10
0.0
20
0.0
30
0.0
70
128
71
349
72
348
73
336
0
VERTEX
8
skin
10
0.0
20
0.0
30
0.0
70
128
71
336
72
337
73
349
0
VERTEX
8
skin
10
0.0
20
0.0
30
0.0
70
128
71
339
72
349
73
337
0
VERTEX
8
skin
10
0.0
20
0.0
30
0.0
70
128
71
337
72
327
73
339
0
VERTEX
8
skin
10
0.0
20
0.0
30
0.0
70
128
71
350
72
351
73
339
0
VERTEX
8
skin
10
0.0
20
0.0
30
0.0
70
128
71
339
72
338
73
350
0
VERTEX
8
skin
10
0.0
20
0.0
30
0.0
70
128
71
352
72
350
73
338
0
VERTEX
8
skin
10
0.0
20
0.0
30
0.0
70
128
71
338
72
340
73
352
0
VERTEX
8
skin
10
0.0
20
0.0
30
0.0
70
128
71
353
72
352
73
340
0
VERTEX
8
skin
10
0.0
20
0.0
30
0.0
70
128
71
340
72
341
73
353
0
VERTEX
8
skin
10
0.0
20
0.0
30
0.0
70
128
71
354
72
353
73
341
0
VERTEX
8
skin
10
0.0
20
0.0
30
0.0
70
128
71
341
72
342
73
354
0
VERTEX
8
skin
10
0.0
20
0.0
30
0.0
70
128
71
355
72
354
73
342
0
VERTEX
8
skin
10
0.0
20
0.0
30
0.0
70
128
71
342
72
343
73
355
0
VERTEX
8
skin
10
0.0
20
0.0
30
0.0
70
128
71
356
72
355
73
343
0
VERTEX
8
skin
10
0.0
20
0.0
30
0.0
70
128
71
343
72
344
73
356
0
VERTEX
8
skin
10
0.0
20
0.0
30
0.0
70
128
71
357
72
356
73
344
0
VERTEX
8
skin
10
0.0
20
0.0
30
0.0
70
128
71
344
72
345
73
357
0
VERTEX
8
skin
10
0.0
20
0.0
30
0.0
70
128
71
358
72
357
73
345
0
VERTEX
8
skin
10
0.0
20
0.0
30
0.0
70
128
71
345
72
346
73
358
0
VERTEX
8
skin
10
0.0
20
0.0
30
0.0
70
128
71
359
72
358
73
346
0
VERTEX
8
skin
10
0.0
20
0.0
30
0.0
70
128
71
346
72
347
73
359
0
VERTEX
8
skin
10
0.0
20
0.0
30
0.0
70
128
71
360
72
359
73
347
0
VERTEX
8
skin
10
0.0
20
0.0
30
0.0
70
128
71
347
72
348
73
360
0
VERTEX
8
skin
10
0.0
20
0.0
30
0.0
70
128
71
361
72
360
73
348
0
VERTEX
8
skin
10
0.0
20
0.0
30
0.0
70
128
71
348
72
349
73
361
0
VERTEX
8
skin
10
0.0
20
0.0
30
0.0
70
128
71
351
72
361
73
349
0
VERTEX
8
skin
10
0.0
20
0.0
30
0.0
70
128
71
349
72
339
73
351
0
VERTEX
8
skin
10
0.0
20
0.0
30
0.0
70
128
71
362
72
363
73
351
0
VERTEX
8
skin
10
0.0
20
0.0
30
0.0
70
128
71
351
72
350
73
362
0
VERTEX
8
skin
10
0.0
20
0.0
30
0.0
70
128
71
364
72
362
73
350
0
VERTEX
8
skin
10
0.0
20
0.0
30
0.0
70
128
71
350
72
352
73
364
0
VERTEX
8
skin
10
0.0
20
0.0
30
0.0
70
128
71
365
72
364
73
352
0
VERTEX
8
skin
10
0.0
20
0.0
30
0.0
70
128
71
352
72
353
73
365
0
VERTEX
8
skin
10
0.0
20
0.0
30
0.0
70
128
71
366
72
365
73
353
0
VERTEX
8
skin
10
0.0
20
0.0
30
0.0
70
128
71
353
72
354
73
366
0
VERTEX
8
skin
10
0.0
20
0.0
30
0.0
70
128
71
367
72
366
73
354
0
VERTEX
8
skin
10
0.0
20
0.0
30
0.0
70
128
71
354
72
355
73
367
0
VERTEX
8
skin
10
0.0
20
0.0
30
0.0
70
128
71
368
72
367
73
355
0
VERTEX
8
skin
10
0.0
20
0.0
30
0.0
70
128
71
355
72
356
73
368
0
VERTEX
8
skin
10
0.0
20
0.0
30
0.0
70
128
71
369
72
368
73
356
0
VERTEX
8
skin
10
0.0
20
0.0
30
0.0
70
128
71
356
72
357
73
369
0
VERTEX
8
skin
10
0.0
20
0.0
30
0.0
70
128
71
370
72
369
73
357
0
VERTEX
8
skin
10
0.0
20
0.0
30
0.0
70
128
71
357
72
358
73
370
0
VERTEX
8
skin
10
0.0
20
0.0
30
0.0
70
128
71
371
72
370
73
358
0
VERTEX
8
skin
10
0.0
20
0.0
30
0.0
70
128
71
358
72
359
73
371
0
VERTEX
8
skin
10
0.0
20
0.0
30
0.0
70
128
71
372
72
371
73
359
0
VERTEX
8
skin
10
0.0
20
0.0
30
0.0
70
128
71
359
72
360
73
372
0
VERTEX
8
skin
10
0.0
20
0.0
30
0.0
70
128
71
373
72
372
73
360
0
VERTEX
8
skin
10
0.0
20
0.0
30
0.0
70
128
71
360
72
361
73
373
0
VERTEX
8
skin
10
0.0
20
0.0
30
0.0
70
128
71
363
72
373
73
361
0
VERTEX
8
skin
10
0.0
20
0.0
30
0.0
70
128
71
361
72
351
73
363
0
VERTEX
8
skin
10
0.0
20
0.0
30
0.0
70
128
71
363
72
362
73
374
0
VERTEX
8
skin
10
0.0
20
0.0
30
0.0
70
128
71
362
72
364
73
374
0
VERTEX
8
skin
10
0.0
20
0.0
30
0.0
70
128
71
364
72
365
73
374
0
VERTEX
8
skin
10
0.0
20
0.0
30
0.0
70
128
71
365
72
366
73
374
0
VERTEX
8
skin
10
0.0
20
0.0
30
0.0
70
128
71
366
72
367
73
374
0
VERTEX
8
skin
10
0.0
20
0.0
30
0.0
70
128
71
367
72
368
73
374
0
VERTEX
8
skin
10
0.0
20
0.0
30
0.0
70
128
71
368
72
369
73
374
0
VERTEX
8
skin
10
0.0
20
0.0
30
0.0
70
128
71
369
72
370
73
374
0
VERTEX
8
skin
10
0.0
20
0.0
30
0.0
70
128
71
370
72
371
73
374
0
VERTEX
8
skin
10
0.0
20
0.0
30
0.0
70
128
71
371
72
372
73
374
0
VERTEX
8
skin
10
0.0
20
0.0
30
0.0
70
128
71
372
72
373
73
374
0
VERTEX
8
skin
10
0.0
20
0.0
30
0.0
70
128
71
373
72
363
73
374
0
VERTEX
8
skin
10
0.0
20
0.0
30
0.0
70
128
71
375
72
376
73
377
0
VERTEX
8
skin
10
0.0
20
0.0
30
0.0
70
128
71
378
72
375
73
377
0
VERTEX
8
skin
10
0.0
20
0.0
30
0.0
70
128
71
379
72
378
73
377
0
VERTEX
8
skin
10
0.0
20
0.0
30
0.0
70
128
71
380
72
379
73
377
0
VERTEX
8
skin
10
0.0
20
0.0
30
0.0
70
128
71
381
72
380
73
377
0
VERTEX
8
skin
10
0.0
20
0.0
30
0.0
70
128
71
382
72
381
73
377
0
VERTEX
8
skin
10
0.0
20
0.0
30
0.0
70
128
71
383
72
382
73
377
0
VERTEX
8
skin
10
0.0
20
0.0
30
0.0
70
128
71
384
72
383
73
377
0
VERTEX
8
skin
10
0.0
20
0.0
30
0.0
70
128
71
385
72
384
73
377
0
VERTEX
8
skin
10
0.0
20
0.0
30
0.0
70
128
71
386
72
385
73
377
0
VERTEX
8
skin
10
0.0
20
0.0
30
0.0
70
128
71
387
72
386
73
377
0
VERTEX
8
skin
10
0.0
20
0.0
30
0.0
70
128
71
376
72
387
73
377
0
VERTEX
8
skin
10
0.0
20
0.0
30
0.0
70
128
71
388
72
389
73
376
0
VERTEX
8
skin
10
0.0
20
0.0
30
0.0
70
128
71
376
72
375
73
388
0
VERTEX
8
skin
10
0.0
20
0.0
30
0.0
70
128
71
390
72
388
73
375
0
VERTEX
8
skin
10
0.0
20
0.0
30
0.0
70
128
71
375
72
378
73
390
0
VERTEX
8
skin
10
0.0
20
0.0
30
0.0
70
128
71
391
72
390
73
378
0
VERTEX
8
skin
10
0.0
20
0.0
30
0.0
70
128
71
378
72
379
73
391
0
VERTEX
8
skin
10
0.0
20
0.0
30
0.0
70
128
71
392
72
391
73
379
0
VERTEX
8
skin
10
0.0
20
0.0
30
0.0
70
128
71
379
72
380
73
392
0
VERTEX
8
skin
10
0.0
20
0.0
30
0.0
70
128
71
393
72
392
73
380
0
VERTEX
8
skin
10
0.0
20
0.0
30
0.0
70
128
71
380
72
381
73
393
0
VERTEX
8
skin
10
0.0
20
0.0
30
0.0
70
128
71
394
72
393
73
381
0
VERTEX
8
skin
10
0.0
20
0.0
30
0.0
70
128
71
381
72
382
73
394
0
VERTEX
8
skin
10
0.0
20
0.0
30
0.0
70
128
71
395
72
394
73
382
0
VERTEX
8
skin
10
0.0
20
0.0
30
0.0
70
128
71
382
72
383
73
395
0
VERTEX
8
skin
10
0.0
20
0.0
30
0.0
70
128
71
396
72
395
73
383
0
VERTEX
8
skin
10
0.0
20
0.0
30
0.0
70
128
71
383
72
384
73
396
0
VERTEX
8
skin
10
0.0
20
0.0
30
0.0
70
128
71
397
72
396
73
384
0
VERTEX
8
skin
10
0.0
20
0.0
30
0.0
70
128
71
384
72
385
73
397
0
VERTEX
8
skin
10
0.0
20
0.0
30
0.0
70
128
71
398
72
397
73
385
0
VERTEX
8
skin
10
0.0
20
0.0
30
0.0
70
128
71
385
72
386
73
398
0
VERTEX
8
skin
10
0.0
20
0.0
30
0.0
70
128
71
399
72
398
73
386
0
VERTEX
8
skin
10
0.0
20
0.0
30
0.0
70
128
71
386
72
387
73
399
0
VERTEX
8
skin
10
0.0
20
0.0
30
0.0
70
128
71
389
72
399
73
387
0
VERTEX
8
skin
10
0.0
20
0.0
30
0.0
70
128
71
387
72
376
73
389
0
VERTEX
8
skin
10
0.0
20
0.0
30
0.0
70
128
71
400
72
401
73
389
0
VERTEX
8
skin
10
0.0
20
0.0
30
0.0
70
128
71
389
72
388
73
400
0
VERTEX
8
skin
10
0.0
20
0.0
30
0.0
70
128
71
402
72
400
73
388
0
VERTEX
8
skin
10
0.0
20
0.0
30
0.0
70
128
71
388
72
390
73
402
0
VERTEX
8
skin
10
0.0
20
0.0
30
0.0
70
128
71
403
72
402
73
390
0
VERTEX
8
skin
10
0.0
20
0.0
30
0.0
70
128
71
390
72
391
73
403
0
VERTEX
8
skin
10
0.0
20
0.0
30
0.0
70
128
71
404
72
403
73
391
0
VERTEX
8
skin
10
0.0
20
0.0
30
0.0
70
128
71
391
72
392
73
404
0
VERTEX
8
skin
10
0.0
20
0.0
30
0.0
70
128
71
405
72
404
73
392
0
VERTEX
8
skin
10
0.0
20
0.0
30
0.0
70
128
71
392
72
393
73
405
0
VERTEX
8
skin
10
0.0
20
0.0
30
0.0
70
128
71
406
72
405
73
393
0
VERTEX
8
skin
10
0.0
20
0.0
30
0.0
70
128
71
393
72
394
73
406
0
VERTEX
8
skin
10
0.0
20
0.0
30
0.0
70
128
71
407
72
406
73
394
0
VERTEX
8
skin
10
0.0
20
0.0
30
0.0
70
128
71
394
72
395
73
407
0
VERTEX
8
skin
10
0.0
20
0.0
30
0.0
70
128
71
408
72
407
73
395
0
VERTEX
8
skin
10
0.0
20
0.0
30
0.0
70
128
71
395
72
396
73
408
0
VERTEX
8
skin
10
0.0
20
0.0
30
0.0
70
128
71
409
72
408
73
396
0
VERTEX
8
skin
10
0.0
20
0.0
30
0.0
70
128
71
396
72
397
73
409
0
VERTEX
8
skin
10
0.0
20
0.0
30
0.0
70
128
71
410
72
409
73
397
0
VERTEX
8
skin
10
0.0
20
0.0
30
0.0
70
128
71
397
72
398
73
410
0
VERTEX
8
skin
10
0.0
20
0.0
30
0.0
70
128
71
411
72
410
73
398
0
VERTEX
8
skin
10
0.0
20
0.0
30
0.0
70
128
71
398
72
399
73
411
0
VERTEX
8
skin
10
0.0
20
0.0
30
0.0
70
128
71
401
72
411
73
399
0
VERTEX
8
skin
10
0.0
20
0.0
30
0.0
70
128
71
399
72
389
73
401
0
VERTEX
8
skin
10
0.0
20
0.0
30
0.0
70
128
71
412
72
413
73
401
0
VERTEX
8
skin
10
0.0
20
0.0
30
0.0
70
128
71
401
72
400
73
412
0
VERTEX
8
skin
10
0.0
20
0.0
30
0.0
70
128
71
414
72
412
73
400
0
VERTEX
8
skin
10
0.0
20
0.0
30
0.0
70
128
71
400
72
402
73
414
0
VERTEX
8
skin
10
0.0
20
0.0
30
0.0
70
128
71
415
72
414
73
402
0
VERTEX
8
skin
10
0.0
20
0.0
30
0.0
70
128
71
402
72
403
73
415
0
VERTEX
8
skin
10
0.0
20
0.0
30
0.0
70
128
71
416
72
415
73
403
0
VERTEX
8
skin
10
0.0
20
0.0
30
0.0
70
128
71
403
72
404
73
416
0
VERTEX
8
skin
10
0.0
20
0.0
30
0.0
70
128
71
417
72
416
73
404
0
VERTEX
8
skin
10
0.0
20
0.0
30
0.0
70
128
71
404
72
405
73
417
0
VERTEX
8
skin
10
0.0
20
0.0
30
0.0
70
128
71
418
72
417
73
405
0
VERTEX
8
skin
10
0.0
20
0.0
30
0.0
70
128
71
405
72
406
73
418
0
VERTEX
8
skin
10
0.0
20
0.0
30
0.0
70
128
71
419
72
418
73
406
0
VERTEX
8
skin
10
0.0
20
0.0
30
0.0
70
128
71
406
72
407
73
419
0
VERTEX
8
skin
10
0.0
20
0.0
30
0.0
70
128
71
420
72
419
73
407
0
VERTEX
8
skin
10
0.0
20
0.0
30
0.0
70
128
71
407
72
408
73
420
0
VERTEX
8
skin
10
0.0
20
0.0
30
0.0
70
128
71
421
72
420
73
408
0
VERTEX
8
skin
10
0.0
20
0.0
30
0.0
70
128
71
408
72
409
73
421
0
VERTEX
8
skin
10
0.0
20
0.0
30
0.0
70
128
71
422
72
421
73
409
0
VERTEX
8
skin
10
0.0
20
0.0
30
0.0
70
128
71
409
72
410
73
422
0
VERTEX
8
skin
10
0.0
20
0.0
30
0.0
70
128
71
423
72
422
73
410
0
VERTEX
8
skin
10
0.0
20
0.0
30
0.0
70
128
71
410
72
411
73
423
0
VERTEX
8
skin
10
0.0
20
0.0
30
0.0
70
128
71
413
72
423
73
411
0
VERTEX
8
skin
10
0.0
20
0.0
30
0.0
70
128
71
411
72
401
73
413
0
VERTEX
8
skin
10
0.0
20
0.0
30
0.0
70
128
71
424
72
425
73
413
0
VERTEX
8
skin
10
0.0
20
0.0
30
0.0
70
128
71
413
72
412
73
424
0
VERTEX
8
skin
10
0.0
20
0.0
30
0.0
70
128
71
426
72
424
73
412
0
VERTEX
8
skin
10
0.0
20
0.0
30
0.0
70
128
71
412
72
414
73
426
0
VERTEX
8
skin
10
0.0
20
0.0
30
0.0
70
128
71
427
72
426
73
414
0
VERTEX
8
skin
10
0.0
20
0.0
30
0.0
70
128
71
414
72
415
73
427
0
VERTEX
8
skin
10
0.0
20
0.0
30
0.0
70
128
71
428
72
427
73
415
0
VERTEX
8
skin
10
0.0
20
0.0
30
0.0
70
128
71
415
72
416
73
428
0
VERTEX
8
skin
10
0.0
20
0.0
30
0.0
70
128
71
429
72
428
73
416
0
VERTEX
8
skin
10
0.0
20
0.0
30
0.0
70
128
71
416
72
417
73
429
0
VERTEX
8
skin
10
0.0
20
0.0
30
0.0
70
128
71
430
72
429
73
417
0
VERTEX
8
skin
10
0.0
20
0.0
30
0.0
70
128
71
417
72
418
73
430
0
VERTEX
8
skin
10
0.0
20
0.0
30
0.0
70
128
71
431
72
430
73
418
0
VERTEX
8
skin
10
0.0
20
0.0
30
0.0
70
128
71
418
72
419
73
431
0
VERTEX
8
skin
10
0.0
20
0.0
30
0.0
70
128
71
432
72
431
73
419
0
VERTEX
8
skin
10
0.0
20
0.0
30
0.0
70
128
71
419
72
420
73
432
0
VERTEX
8
skin
10
0.0
20
0.0
30
0.0
70
128
71
433
72
432
73
420
0
VERTEX
8
skin
10
0.0
20
0.0
30
0.0
70
128
71
420
72
421
73
433
0
VERTEX
8
skin
10
0.0
20
0.0
30
0.0
70
128
71
434
72
433
73
421
0
VERTEX
8
skin
10
0.0
20
0.0
30
0.0
70
128
71
421
72
422
73
434
0
VERTEX
8
skin
10
0.0
20
0.0
30
0.0
70
128
71
435
72
434
73
422
0
VERTEX
8
skin
10
0.0
20
0.0
30
0.0
70
128
71
422
72
423
73
435
0
VERTEX
8
skin
10
0.0
20
0.0
30
0.0
70
128
71
425
72
435
73
423
0
VERTEX
8
skin
10
0.0
20
0.0
30
0.0
70
128
71
423
72
413
73
425
0
VERTEX
8
skin
10
0.0
20
0.0
30
0.0
70
128
71
425
72
424
73
436
0
VERTEX
8
skin
10
0.0
20
0.0
30
0.0
70
128
71
424
72
426
73
436
0
VERTEX
8
skin
10
0.0
20
0.0
30
0.0
70
128
71
426
72
427
73
436
0
VERTEX
8
skin
10
0.0
20
0.0
30
0.0
70
128
71
427
72
428
73
436
0
VERTEX
8
skin
10
0.0
20
0.0
30
0.0
70
128
71
428
72
429
73
436
0
VERTEX
8
skin
10
0.0
20
0.0
30
0.0
70
128
71
429
72
430
73
436
0
VERTEX
8
skin
10
0.0
20
0.0
30
0.0
70
128
71
430
72
431
73
436
0
VERTEX
8
skin
10
0.0
20
0.0
30
0.0
70
128
71
431
72
432
73
436
0
VERTEX
8
skin
10
0.0
20
0.0
30
0.0
70
128
71
432
72
433
73
436
0
VERTEX
8
skin
10
0.0
20
0.0
30
0.0
70
128
71
433
72
434
73
436
0
VERTEX
8
skin
10
0.0
20
0.0
30
0.0
70
128
71
434
72
435
73
436
0
VERTEX
8
skin
10
0.0
20
0.0
30
0.0
70
128
71
435
72
425
73
436
0
VERTEX
8
skin
10
0.0
20
0.0
30
0.0
70
128
71
437
72
438
73
439
0
VERTEX
8
skin
10
0.0
20
0.0
30
0.0
70
128
71
440
72
437
73
439
0
VERTEX
8
skin
10
0.0
20
0.0
30
0.0
70
128
71
441
72
440
73
439
0
VERTEX
8
skin
10
0.0
20
0.0
30
0.0
70
128
71
442
72
441
73
439
0
VERTEX
8
skin
10
0.0
20
0.0
30
0.0
70
128
71
443
72
442
73
439
0
VERTEX
8
skin
10
0.0
20
0.0
30
0.0
70
128
71
444
72
443
73
439
0
VERTEX
8
skin
10
0.0
20
0.0
30
0.0
70
128
71
445
72
444
73
439
0
VERTEX
8
skin
10
0.0
20
0.0
30
0.0
70
128
71
446
72
445
73
439
0
VERTEX
8
skin
10
0.0
20
0.0
30
0.0
70
128
71
447
72
446
73
439
0
VERTEX
8
skin
10
0.0
20
0.0
30
0.0
70
128
71
448
72
447
73
439
0
VERTEX
8
skin
10
0.0
20
0.0
30
0.0
70
128
71
449
72
448
73
439
0
VERTEX
8
skin
10
0.0
20
0.0
30
0.0
70
128
71
438
72
449
73
439
0
VERTEX
8
skin
10
0.0
20
0.0
30
0.0
70
128
71
450
72
451
73
438
0
VERTEX
8
skin
10
0.0
20
0.0
30
0.0
70
128
71
438
72
437
73
450
0
VERTEX
8
skin
10
0.0
20
0.0
30
0.0
70
128
71
452
72
450
73
437
0
VERTEX
8
skin
10
0.0
20
0.0
30
0.0
70
128
71
437
72
440
73
452
0
VERTEX
8
skin
10
0.0
20
0.0
30
0.0
70
128
71
453
72
452
73
440
0
VERTEX
8
skin
10
0.0
20
0.0
30
0.0
70
128
71
440
72
441
73
453
0
VERTEX
8
skin
10
0.0
20
0.0
30
0.0
70
128
71
454
72
453
73
441
0
VERTEX
8
skin
10
0.0
20
0.0
30
0.0
70
128
71
441
72
442
73
454
0
VERTEX
8
skin
10
0.0
20
0.0
30
0.0
70
128
71
455
72
454
73
442
0
VERTEX
8
skin
10
0.0
20
0.0
30
0.0
70
128
71
442
72
443
73
455
0
VERTEX
8
skin
10
0.0
20
0.0
30
0.0
70
128
71
456
72
455
73
443
0
VERTEX
8
skin
10
0.0
20
0.0
30
0.0
70
128
71
443
72
444
73
456
0
VERTEX
8
skin
10
0.0
20
0.0
30
0.0
70
128
71
457
72
456
73
444
0
VERTEX
8
skin
10
0.0
20
0.0
30
0.0
70
128
71
444
72
445
73
457
0
VERTEX
8
skin
10
0.0
20
0.0
30
0.0
70
128
71
458
72
457
73
445
0
VERTEX
8
skin
10
0.0
20
0.0
30
0.0
70
128
71
445
72
446
73
458
0
VERTEX
8
skin
10
0.0
20
0.0
30
0.0
70
128
71
459
72
458
73
446
0
VERTEX
8
skin
10
0.0
20
0.0
30
0.0
70
128
71
446
72
447
73
459
0
VERTEX
8
skin
10
0.0
20
0.0
30
0.0
70
128
71
460
72
459
73
447
0
VERTEX
8
skin
10
0.0
20
0.0
30
0.0
70
128
71
447
72
448
73
460
0
VERTEX
8
skin
10
0.0
20
0.0
30
0.0
70
128
71
461
72
460
73
448
0
VERTEX
8
skin
10
0.0
20
0.0
30
0.0
70
128
71
448
72
449
73
461
0
VERTEX
8
skin
10
0.0
20
0.0
30
0.0
70
128
71
451
72
461
73
449
0
VERTEX
8
skin
10
0.0
20
0.0
30
0.0
70
128
71
449
72
438
73
451
0
VERTEX
8
skin
10
0.0
20
0.0
30
0.0
70
128
71
462
72
463
73
451
0
VERTEX
8
skin
10
0.0
20
0.0
30
0.0
70
128
71
451
72
450
73
462
0
VERTEX
8
skin
10
0.0
20
0.0
30
0.0
70
128
71
464
72
462
73
450
0
VERTEX
8
skin
10
0.0
20
0.0
30
0.0
70
128
71
450
72
452
73
464
0
VERTEX
8
skin
10
0.0
20
0.0
30
0.0
70
128
71
465
72
464
73
452
0
VERTEX
8
skin
10
0.0
20
0.0
30
0.0
70
128
71
452
72
453
73
465
0
VERTEX
8
skin
10
0.0
20
0.0
30
0.0
70
128
71
466
72
465
73
453
0
VERTEX
8
skin
10
0.0
20
0.0
30
0.0
70
128
71
453
72
454
73
466
0
VERTEX
8
skin
10
0.0
20
0.0
30
0.0
70
128
71
467
72
466
73
454
0
VERTEX
8
skin
10
0.0
20
0.0
30
0.0
70
128
71
454
72
455
73
467
0
VERTEX
8
skin
10
0.0
20
0.0
30
0.0
70
128
71
468
72
467
73
455
0
VERTEX
8
skin
10
0.0
20
0.0
30
0.0
70
128
71
455
72
456
73
468
0
VERTEX
8
skin
10
0.0
20
0.0
30
0.0
70
128
71
469
72
468
73
456
0
VERTEX
8
skin
10
0.0
20
0.0
30
0.0
70
128
71
456
72
457
73
469
0
VERTEX
8
skin
10
0.0
20
0.0
30
0.0
70
128
71
470
72
469
73
457
0
VERTEX
8
skin
10
0.0
20
0.0
30
0.0
70
128
71
457
72
458
73
470
0
VERTEX
8
skin
10
0.0
20
0.0
30
0.0
70
128
71
471
72
470
73
458
0
VERTEX
8
skin
10
0.0
20
0.0
30
0.0
70
128
71
458
72
459
73
471
0
VERTEX
8
skin
10
0.0
20
0.0
30
0.0
70
128
71
472
72
471
73
459
0
VERTEX
8
skin
10
0.0
20
0.0
30
0.0
70
128
71
459
72
460
73
472
0
VERTEX
8
skin
10
0.0
20
0.0
30
0.0
70
128
71
473
72
472
73
460
0
VERTEX
8
skin
10
0.0
20
0.0
30
0.0
70
128
71
460
72
461
73
473
0
VERTEX
8
skin
10
0.0
20
0.0
30
0.0
70
128
71
463
72
473
73
461
0
VERTEX
8
skin
10
0.0
20
0.0
30
0.0
70
128
71
461
72
451
73
463
0
VERTEX
8
skin
10
0.0
20
0.0
30
0.0
70
128
71
474
72
475
73
463
0
VERTEX
8
skin
10
0.0
20
0.0
30
0.0
70
128
71
463
72
462
73
474
0
VERTEX
8
skin
10
0.0
20
0.0
30
0.0
70
128
71
476
72
474
73
462
0
VERTEX
8
skin
10
0.0
20
0.0
30
0.0
70
128
71
462
72
464
73
476
0
VERTEX
8
skin
10
0.0
20
0.0
30
0.0
70
128
71
477
72
476
73
464
0
VERTEX
8
skin
10
0.0
20
0.0
30
0.0
70
128
71
464
72
465
73
477
0
VERTEX
8
skin
10
0.0
20
0.0
30
0.0
70
128
71
478
72
477
73
465
0
VERTEX
8
skin
10
0.0
20
0.0
30
0.0
70
128
71
465
72
466
73
478
0
VERTEX
8
skin
10
0.0
20
0.0
30
0.0
70
128
71
479
72
478
73
466
0
VERTEX
8
skin
10
0.0
20
0.0
30
0.0
70
128
71
466
72
467
73
479
0
VERTEX
8
skin
10
0.0
20
0.0
30
0.0
70
128
71
480
72
479
73
467
0
VERTEX
8
skin
10
0.0
20
0.0
30
0.0
70
128
71
467
72
468
73
480
0
VERTEX
8
skin
10
0.0
20
0.0
30
0.0
70
128
71
481
72
480
73
468
0
VERTEX
8
skin
10
0.0
20
0.0
30
0.0
70
128
71
468
72
469
73
481
0
VERTEX
8
skin
10
0.0
20
0.0
30
0.0
70
128
71
482
72
481
73
469
0
VERTEX
8
skin
10
0.0
20
0.0
30
0.0
70
128
71
469
72
470
73
482
0
VERTEX
8
skin
10
0.0
20
0.0
30
0.0
70
128
71
483
72
482
73
470
0
VERTEX
8
skin
10
0.0
20
0.0
30
0.0
70
128
71
470
72
471
73
483
0
VERTEX
8
skin
10
0.0
20
0.0
30
0.0
70
128
71
484
72
483
73
471
0
VERTEX
8
skin
10
0.0
20
0.0
30
0.0
70
128
71
471
72
472
73
484
0
VERTEX
8
skin
10
0.0
20
0.0
30
0.0
70
128
71
485
72
484
73
472
0
VERTEX
8
skin
10
0.0
20
0.0
30
0.0
70
128
71
472
72
473
73
485
0
VERTEX
8
skin
10
0.0
20
0.0
30
0.0
70
128
71
475
72
485
73
473
0
VERTEX
8
skin
10
0.0
20
0.0
30
0.0
70
128
71
473
72
463
73
475
0
VERTEX
8
skin
10
0.0
20
0.0
30
0.0
70
128
71
486
72
487
73
475
0
VERTEX
8
skin
10
0.0
20
0.0
30
0.0
70
128
71
475
72
474
73
486
0
VERTEX
8
skin
10
0.0
20
0.0
30
0.0
70
128
71
488
72
486
73
474
0
VERTEX
8
skin
10
0.0
20
0.0
30
0.0
70
128
71
474
72
476
73
488
0
VERTEX
8
skin
10
0.0
20
0.0
30
0.0
70
128
71
489
72
488
73
476
0
VERTEX
8
skin
10
0.0
20
0.0
30
0.0
70
128
71
476
72
477
73
489
0
VERTEX
8
skin
10
0.0
20
0.0
30
0.0
70
128
71
490
72
489
73
477
0
VERTEX
8
skin
10
0.0
20
0.0
30
0.0
70
128
71
477
72
478
73
490
0
VERTEX
8
skin
10
0.0
20
0.0
30
0.0
70
128
71
491
72
490
73
478
0
VERTEX
8
skin
10
0.0
20
0.0
30
0.0
70
128
71
478
72
479
73
491
0
VERTEX
8
skin
10
0.0
20
0.0
30
0.0
70
128
71
492
72
491
73
479
0
VERTEX
8
skin
10
0.0
20
0.0
30
0.0
70
128
71
479
72
480
73
492
0
VERTEX
8
skin
10
0.0
20
0.0
30
0.0
70
128
71
493
72
492
73
480
0
VERTEX
8
skin
10
0.0
20
0.0
30
0.0
70
128
71
480
72
481
73
493
0
VERTEX
8
skin
10
0.0
20
0.0
30
0.0
70
128
71
494
72
493
73
481
0
VERTEX
8
skin
10
0.0
20
0.0
30
0.0
70
128
71
481
72
482
73
494
0
VERTEX
8
skin
10
0.0
20
0.0
30
0.0
70
128
71
495
72
494
73
482
0
VERTEX
8
skin
10
0.0
20
0.0
30
0.0
70
128
71
482
72
483
73
495
0
VERTEX
8
skin
10
0.0
20
0.0
30
0.0
70
128
71
496
72
495
73
483
0
VERTEX
8
skin
10
0.0
20
0.0
30
0.0
70
128
71
483
72
484
73
496
0
VERTEX
8
skin
10
0.0
20
0.0
30
0.0
70
128
71
497
72
496
73
484
0
VERTEX
8
skin
10
0.0
20
0.0
30
0.0
70
128
71
484
72
485
73
497
0
VERTEX
8
skin
10
0.0
20
0.0
30
0.0
70
128
71
487
72
497
73
485
0
VERTEX
8
skin
10
0.0
20
0.0
30
0.0
70
128
71
485
72
475
73
487
0
VERTEX
8
skin
10
0.0
20
0.0
30
0.0
70
128
71
487
72
486
73
498
0
VERTEX
8
skin
10
0.0
20
0.0
30
0.0
70
128
71
486
72
488
73
498
0
VERTEX
8
skin
10
0.0
20
0.0
30
0.0
70
128
71
488
72
489
73
498
0
VERTEX
8
skin
10
0.0
20
0.0
30
0.0
70
128
71
489
72
490
73
498
0
VERTEX
8
skin
10
0.0
20
0.0
30
0.0
70
128
71
490
72
491
73
498
0
VERTEX
8
skin
10
0.0
20
0.0
30
0.0
70
128
71
491
72
492
73
498
0
VERTEX
8
skin
10
0.0
20
0.0
30
0.0
70
128
71
492
72
493
73
498
0
VERTEX
8
skin
10
0.0
20
0.0
30
0.0
70
128
71
493
72
494
73
498
0
VERTEX
8
skin
10
0.0
20
0.0
30
0.0
70
128
71
494
72
495
73
498
0
VERTEX
8
skin
10
0.0
20
0.0
30
0.0
70
128
71
495
72
496
73
498
0
VERTEX
8
skin
10
0.0
20
0.0
30
0.0
70
128
71
496
72
497
73
498
0
VERTEX
8
skin
10
0.0
20
0.0
30
0.0
70
128
71
497
72
487
73
498
0
VERTEX
8
skin
10
0.0
20
0.0
30
0.0
70
128
71
499
72
500
73
501
0
VERTEX
8
skin
10
0.0
20
0.0
30
0.0
70
128
71
502
72
499
73
501
0
VERTEX
8
skin
10
0.0
20
0.0
30
0.0
70
128
71
503
72
502
73
501
0
VERTEX
8
skin
10
0.0
20
0.0
30
0.0
70
128
71
504
72
503
73
501
0
VERTEX
8
skin
10
0.0
20
0.0
30
0.0
70
128
71
505
72
504
73
501
0
VERTEX
8
skin
10
0.0
20
0.0
30
0.0
70
128
71
506
72
505
73
501
0
VERTEX
8
skin
10
0.0
20
0.0
30
0.0
70
128
71
507
72
506
73
501
0
VERTEX
8
skin
10
0.0
20
0.0
30
0.0
70
128
71
508
72
507
73
501
0
VERTEX
8
skin
10
0.0
20
0.0
30
0.0
70
128
71
509
72
508
73
501
0
VERTEX
8
skin
10
0.0
20
0.0
30
0.0
70
128
71
510
72
509
73
501
0
VERTEX
8
skin
10
0.0
20
0.0
30
0.0
70
128
71
511
72
510
73
501
0
VERTEX
8
skin
10
0.0
20
0.0
30
0.0
70
128
71
500
72
511
73
501
0
VERTEX
8
skin
10
0.0
20
0.0
30
0.0
70
128
71
512
72
513
73
500
0
VERTEX
8
skin
10
0.0
20
0.0
30
0.0
70
128
71
500
72
499
73
512
0
VERTEX
8
skin
10
0.0
20
0.0
30
0.0
70
128
71
514
72
512
73
499
0
VERTEX
8
skin
10
0.0
20
0.0
30
0.0
70
128
71
499
72
502
73
514
0
VERTEX
8
skin
10
0.0
20
0.0
30
0.0
70
128
71
515
72
514
73
502
0
VERTEX
8
skin
10
0.0
20
0.0
30
0.0
70
128
71
502
72
503
73
515
0
VERTEX
8
skin
10
0.0
20
0.0
30
0.0
70
128
71
516
72
515
73
503
0
VERTEX
8
skin
10
0.0
20
0.0
30
0.0
70
128
71
503
72
504
73
516
0
VERTEX
8
skin
10
0.0
20
0.0
30
0.0
70
128
71
517
72
516
73
504
0
VERTEX
8
skin
10
0.0
20
0.0
30
0.0
70
128
71
504
72
505
73
517
0
VERTEX
8
skin
10
0.0
20
0.0
30
0.0
70
128
71
518
72
517
73
505
0
VERTEX
8
skin
10
0.0
20
0.0
30
0.0
70
128
71
505
72
506
73
518
0
VERTEX
8
skin
10
0.0
20
0.0
30
0.0
70
128
71
519
72
518
73
506
0
VERTEX
8
skin
10
0.0
20
0.0
30
0.0
70
128
71
506
72
507
73
519
0
VERTEX
8
skin
10
0.0
20
0.0
30
0.0
70
128
71
520
72
519
73
507
0
VERTEX
8
skin
10
0.0
20
0.0
30
0.0
70
128
71
507
72
508
73
520
0
VERTEX
8
skin
10
0.0
20
0.0
30
0.0
70
128
71
521
72
520
73
508
0
VERTEX
8
skin
10
0.0
20
0.0
30
0.0
70
128
71
508
72
509
73
521
0
VERTEX
8
skin
10
0.0
20
0.0
30
0.0
70
128
71
522
72
521
73
509
0
VERTEX
8
skin
10
0.0
20
0.0
30
0.0
70
128
71
509
72
510
73
522
0
VERTEX
8
skin
10
0.0
20
0.0
30
0.0
70
128
71
523
72
522
73
510
0
VERTEX
8
skin
10
0.0
20
0.0
30
0.0
70
128
71
510
72
511
73
523
0
VERTEX
8
skin
10
0.0
20
0.0
30
0.0
70
128
71
513
72
523
73
511
0
VERTEX
8
skin
10
0.0
20
0.0
30
0.0
70
128
71
511
72
500
73
513
0
VERTEX
8
skin
10
0.0
20
0.0
30
0.0
70
128
71
524
72
525
73
513
0
VERTEX
8
skin
10
0.0
20
0.0
30
0.0
70
128
71
513
72
512
73
524
0
VERTEX
8
skin
10
0.0
20
0.0
30
0.0
70
128
71
526
72
524
73
512
0
VERTEX
8
skin
10
0.0
20
0.0
30
0.0
70
128
71
512
72
514
73
526
0
VERTEX
8
skin
10
0.0
20
0.0
30
0.0
70
128
71
527
72
526
73
514
0
VERTEX
8
skin
10
0.0
20
0.0
30
0.0
70
128
71
514
72
515
73
527
0
VERTEX
8
skin
10
0.0
20
0.0
30
0.0
70
128
71
528
72
527
73
515
0
VERTEX
8
skin
10
0.0
20
0.0
30
0.0
70
128
71
515
72
516
73
528
0
VERTEX
8
skin
10
0.0
20
0.0
30
0.0
70
128
71
529
72
528
73
516
0
VERTEX
8
skin
10
0.0
20
0.0
30
0.0
70
128
71
516
72
517
73
529
0
VERTEX
8
skin
10
0.0
20
0.0
30
0.0
70
128
71
530
72
529
73
517
0
VERTEX
8
skin
10
0.0
20
0.0
30
0.0
70
128
71
517
72
518
73
530
0
VERTEX
8
skin
10
0.0
20
0.0
30
0.0
70
128
71
531
72
530
73
518
0
VERTEX
8
skin
10
0.0
20
0.0
30
0.0
70
128
71
518
72
519
73
531
0
VERTEX
8
skin
10
0.0
20
0.0
30
0.0
70
128
71
532
72
531
73
519
0
VERTEX
8
skin
10
0.0
20
0.0
30
0.0
70
128
71
519
72
520
73
532
0
VERTEX
8
skin
10
0.0
20
0.0
30
0.0
70
128
71
533
72
532
73
520
0
VERTEX
8
skin
10
0.0
20
0.0
30
0.0
70
128
71
520
72
521
73
533
0
VERTEX
8
skin
10
0.0
20
0.0
30
0.0
70
128
71
534
72
533
73
521
0
VERTEX
8
skin
10
0.0
20
0.0
30
0.0
70
128
71
521
72
522
73
534
0
VERTEX
8
skin
10
0.0
20
0.0
30
0.0
70
128
71
535
72
534
73
522
0
VERTEX
8
skin
10
0.0
20
0.0
30
0.0
70
128
71
522
72
523
73
535
0
VERTEX
8
skin
10
0.0
20
0.0
30
0.0
70
128
71
525
72
535
73
523
0
VERTEX
8
skin
10
0.0
20
0.0
30
0.0
70
128
71
523
72
513
73
525
0
VERTEX
8
skin
10
0.0
20
0.0
30
0.0
70
128
71
536
72
537
73
525
0
VERTEX
8
skin
10
0.0
20
0.0
30
0.0
70
128
71
525
72
524
73
536
0
VERTEX
8
skin
10
0.0
20
0.0
30
0.0
70
128
71
538
72
536
73
524
0
VERTEX
8
skin
10
0.0
20
0.0
30
0.0
70
128
71
524
72
526
73
538
0
VERTEX
8
skin
10
0.0
20
0.0
30
0.0
70
128
71
539
72
538
73
526
0
VERTEX
8
skin
10
0.0
20
0.0
30
0.0
70
128
71
526
72
527
73
539
0
VERTEX
8
skin
10
0.0
20
0.0
30
0.0
70
128
71
540
72
539
73
527
0
VERTEX
8
skin
10
0.0
20
0.0
30
0.0
70
128
71
527
72
528
73
540
0
VERTEX
8
skin
10
0.0
20
0.0
30
0.0
70
128
71
541
72
540
73
528
0
VERTEX
8
skin
10
0.0
20
0.0
30
0.0
70
128
71
528
72
529
73
541
0
VERTEX
8
skin
10
0.0
20
0.0
30
0.0
70
128
71
542
72
541
73
529
0
VERTEX
8
skin
10
0.0
20
0.0
30
0.0
70
128
71
529
72
530
73
542
0
VERTEX
8
skin
10
0.0
20
0.0
30
0.0
70
128
71
543
72
542
73
530
0
VERTEX
8
skin
10
0.0
20
0.0
30
0.0
70
128
71
530
72
531
73
543
0
VERTEX
8
skin
10
0.0
20
0.0
30
0.0
70
128
71
544
72
543
73
531
0
VERTEX
8
skin
10
0.0
20
0.0
30
0.0
70
128
71
531
72
532
73
544
0
VERTEX
8
skin
10
0.0
20
0.0
30
0.0
70
128
71
545
72
544
73
532
0
VERTEX
8
skin
10
0.0
20
0.0
30
0.0
70
128
71
532
72
533
73
545
0
VERTEX
8
skin
10
0.0
20
0.0
30
0.0
70
128
71
546
72
545
73
533
0
VERTEX
8
skin
10
0.0
20
0.0
30
0.0
70
128
71
533
72
534
73
546
0
VERTEX
8
skin
10
0.0
20
0.0
30
0.0
70
128
71
547
72
546
73
534
0
VERTEX
8
skin
10
0.0
20
0.0
30
0.0
70
128
71
534
72
535
73
547
0
VERTEX
8
skin
10
0.0
20
0.0
30
0.0
70
128
71
537
72
547
73
535
0
VERTEX
8
skin
10
0.0
20
0.0
30
0.0
70
128
71
535
72
525
73
537
0
VERTEX
8
skin
10
0.0
20
0.0
30
0.0
70
128
71
548
72
549
73
537
0
VERTEX
8
skin
10
0.0
20
0.0
30
0.0
70
128
71
537
72
536
73
548
0
VERTEX
8
skin
10
0.0
20
0.0
30
0.0
70
128
71
550
72
548
73
536
0
VERTEX
8
skin
10
0.0
20
0.0
30
0.0
70
128
71
536
72
538
73
550
0
VERTEX
8
skin
10
0.0
20
0.0
30
0.0
70
128
71
551
72
550
73
538
0
VERTEX
8
skin
10
0.0
20
0.0
30
0.0
70
128
71
538
72
539
73
551
0
VERTEX
8
skin
10
0.0
20
0.0
30
0.0
70
128
71
552
72
551
73
539
0
VERTEX
8
skin
10
0.0
20
0.0
30
0.0
70
128
71
539
72
540
73
552
0
VERTEX
8
skin
10
0.0
20
0.0
30
0.0
70
128
71
553
72
552
73
540
0
VERTEX
8
skin
10
0.0
20
0.0
30
0.0
70
128
71
540
72
541
73
553
0
VERTEX
8
skin
10
0.0
20
0.0
30
0.0
70
128
71
554
72
553
73
541
0
VERTEX
8
skin
10
0.0
20
0.0
30
0.0
70
128
71
541
72
542
73
554
0
VERTEX
8
skin
10
0.0
20
0.0
30
0.0
70
128
71
555
72
554
73
542
0
VERTEX
8
skin
10
0.0
20
0.0
30
0.0
70
128
71
542
72
543
73
555
0
VERTEX
8
skin
10
0.0
20
0.0
30
0.0
70
128
71
556
72
555
73
543
0
VERTEX
8
skin
10
0.0
20
0.0
30
0.0
70
128
71
543
72
544
73
556
0
VERTEX
8
skin
10
0.0
20
0.0
30
0.0
70
128
71
557
72
556
73
544
0
VERTEX
8
skin
10
0.0
20
0.0
30
0.0
70
128
71
544
72
545
73
557
0
VERTEX
8
skin
10
0.0
20
0.0
30
0.0
70
128
71
558
72
557
73
545
0
VERTEX
8
skin
10
0.0
20
0.0
30
0.0
70
128
71
545
72
546
73
558
0
VERTEX
8
skin
10
0.0
20
0.0
30
0.0
70
128
71
559
72
558
73
546
0
VERTEX
8
skin
10
0.0
20
0.0
30
0.0
70
128
71
546
72
547
73
559
0
VERTEX
8
skin
10
0.0
20
0.0
30
0.0
70
128
71
549
72
559
73
547
0
VERTEX
8
skin
10
0.0
20
0.0
30
0.0
70
128
71
547
72
537
73
549
0
VERTEX
8
skin
10
0.0
20
0.0
30
0.0
70
128
71
549
72
548
73
560
0
VERTEX
8
skin
10
0.0
20
0.0
30
0.0
70
128
71
548
72
550
73
560
0
VERTEX
8
skin
10
0.0
20
0.0
30
0.0
70
128
71
550
72
551
73
560
0
VERTEX
8
skin
10
0.0
20
0.0
30
0.0
70
128
71
551
72
552
73
560
0
VERTEX
8
skin
10
0.0
20
0.0
30
0.0
70
128
71
552
72
553
73
560
0
VERTEX
8
skin
10
0.0
20
0.0
30
0.0
70
128
71
553
72
554
73
560
0
VERTEX
8
skin
10
0.0
20
0.0
30
0.0
70
128
71
554
72
555
73
560
0
VERTEX
8
skin
10
0.0
20
0.0
30
0.0
70
128
71
555
72
556
73
560
0
VERTEX
8
skin
10
0.0
20
0.0
30
0.0
70
128
71
556
72
557
73
560
0
VERTEX
8
skin
10
0.0
20
0.0
30
0.0
70
128
71
557
72
558
73
560
0
VERTEX
8
skin
10
0.0
20
0.0
30
0.0
70
128
71
558
72
559
73
560
0
VERTEX
8
skin
10
0.0
20
0.0
30
0.0
70
128
71
559
72
549
73
560
0
VERTEX
8
skin
10
0.0
20
0.0
30
0.0
70
128
71
561
72
562
73
563
0
VERTEX
8
skin
10
0.0
20
0.0
30
0.0
70
128
71
564
72
561
73
563
0
VERTEX
8
skin
10
0.0
20
0.0
30
0.0
70
128
71
565
72
564
73
563
0
VERTEX
8
skin
10
0.0
20
0.0
30
0.0
70
128
71
566
72
565
73
563
0
VERTEX
8
skin
10
0.0
20
0.0
30
0.0
70
128
71
567
72
566
73
563
0
VERTEX
8
skin
10
0.0
20
0.0
30
0.0
70
128
71
568
72
567
73
563
0
VERTEX
8
skin
10
0.0
20
0.0
30
0.0
70
128
71
569
72
568
73
563
0
VERTEX
8
skin
10
0.0
20
0.0
30
0.0
70
128
71
570
72
569
73
563
0
VERTEX
8
skin
10
0.0
20
0.0
30
0.0
70
128
71
571
72
570
73
563
0
VERTEX
8
skin
10
0.0
20
0.0
30
0.0
70
128
71
572
72
571
73
563
0
VERTEX
8
skin
10
0.0
20
0.0
30
0.0
70
128
71
573
72
572
73
563
0
VERTEX
8
skin
10
0.0
20
0.0
30
0.0
70
128
71
562
72
573
73
563
0
VERTEX
8
skin
10
0.0
20
0.0
30
0.0
70
128
71
574
72
575
73
562
0
VERTEX
8
skin
10
0.0
20
0.0
30
0.0
70
128
71
562
72
561
73
574
0
VERTEX
8
skin
10
0.0
20
0.0
30
0.0
70
128
71
576
72
574
73
561
0
VERTEX
8
skin
10
0.0
20
0.0
30
0.0
70
128
71
561
72
564
73
576
0
VERTEX
8
skin
10
0.0
20
0.0
30
0.0
70
128
71
577
72
576
73
564
0
VERTEX
8
skin
10
0.0
20
0.0
30
0.0
70
128
71
564
72
565
73
577
0
VERTEX
8
skin
10
0.0
20
0.0
30
0.0
70
128
71
578
72
577
73
565
0
VERTEX
8
skin
10
0.0
20
0.0
30
0.0
70
128
71
565
72
566
73
578
0
VERTEX
8
skin
10
0.0
20
0.0
30
0.0
70
128
71
579
72
578
73
566
0
VERTEX
8
skin
10
0.0
20
0.0
30
0.0
70
128
71
566
72
567
73
579
0
VERTEX
8
skin
10
0.0
20
0.0
30
0.0
70
128
71
580
72
579
73
567
0
VERTEX
8
skin
10
0.0
20
0.0
30
0.0
70
128
71
567
72
568
73
580
0
VERTEX
8
skin
10
0.0
20
0.0
30
0.0
70
128
71
581
72
580
73
568
0
VERTEX
8
skin
10
0.0
20
0.0
30
0.0
70
128
71
568
72
569
73
581
0
VERTEX
8
skin
10
0.0
20
0.0
30
0.0
70
128
71
582
72
581
73
569
0
VERTEX
8
skin
10
0.0
20
0.0
30
0.0
70
128
71
569
72
570
73
582
0
VERTEX
8
skin
10
0.0
20
0.0
30
0.0
70
128
71
583
72
582
73
570
0
VERTEX
8
skin
10
0.0
20
0.0
30
0.0
70
128
71
570
72
571
73
583
0
VERTEX
8
skin
10
0.0
20
0.0
30
0.0
70
128
71
584
72
583
73
571
0
VERTEX
8
skin
10
0.0
20
0.0
30
0.0
70
128
71
571
72
572
73
584
0
VERTEX
8
skin
10
0.0
20
0.0
30
0.0
70
128
71
585
72
584
73
572
0
VERTEX
8
skin
10
0.0
20
0.0
30
0.0
70
128
71
572
72
573
73
585
0
VERTEX
8
skin
10
0.0
20
0.0
30
0.0
70
128
71
575
72
585
73
573
0
VERTEX
8
skin
10
0.0
20
0.0
30
0.0
70
128
71
573
72
562
73
575
0
VERTEX
8
skin
10
0.0
20
0.0
30
0.0
70
128
71
586
72
587
73
575
0
VERTEX
8
skin
10
0.0
20
0.0
30
0.0
70
128
71
575
72
574
73
586
0
VERTEX
8
skin
10
0.0
20
0.0
30
0.0
70
128
71
588
72
586
73
574
0
VERTEX
8
skin
10
0.0
20
0.0
30
0.0
70
128
71
574
72
576
73
588
0
VERTEX
8
skin
10
0.0
20
0.0
30
0.0
70
128
71
589
72
588
73
576
0
VERTEX
8
skin
10
0.0
20
0.0
30
0.0
70
128
71
576
72
577
73
589
0
VERTEX
8
skin
10
0.0
20
0.0
30
0.0
70
128
71
590
72
589
73
577
0
VERTEX
8
skin
10
0.0
20
0.0
30
0.0
70
128
71
577
72
578
73
590
0
VERTEX
8
skin
10
0.0
20
0.0
30
0.0
70
128
71
591
72
590
73
578
0
VERTEX
8
skin
10
0.0
20
0.0
30
0.0
70
128
71
578
72
579
73
591
0
VERTEX
8
skin
10
0.0
20
0.0
30
0.0
70
128
71
592
72
591
73
579
0
VERTEX
8
skin
10
0.0
20
0.0
30
0.0
70
128
71
579
72
580
73
592
0
VERTEX
8
skin
10
0.0
20
0.0
30
0.0
70
128
71
593
72
592
73
580
0
VERTEX
8
skin
10
0.0
20
0.0
30
0.0
70
128
71
580
72
581
73
593
0
VERTEX
8
skin
10
0.0
20
0.0
30
0.0
70
128
71
594
72
593
73
581
0
VERTEX
8
skin
10
0.0
20
0.0
30
0.0
70
128
71
581
72
582
73
594
0
VERTEX
8
skin
10
0.0
20
0.0
30
0.0
70
128
71
595
72
594
73
582
0
VERTEX
8
skin
10
0.0
20
0.0
30
0.0
70
128
71
582
72
583
73
595
0
VERTEX
8
skin
10
0.0
20
0.0
30
0.0
70
128
71
596
72
595
73
583
0
VERTEX
8
skin
10
0.0
20
0.0
30
0.0
70
128
71
583
72
584
73
596
0
VERTEX
8
skin
10
0.0
20
0.0
30
0.0
70
128
71
597
72
596
73
584
0
VERTEX
8
skin
10
0.0
20
0.0
30
0.0
70
128
71
584
72
585
73
597
0
VERTEX
8
skin
10
0.0
20
0.0
30
0.0
70
128
71
587
72
597
73
585
0
VERTEX
8
skin
10
0.0
20
0.0
30
0.0
70
128
71
585
72
575
73
587
0
VERTEX
8
skin
10
0.0
20
0.0
30
0.0
70
128
71
598
72
599
73
587
0
VERTEX
8
skin
10
0.0
20
0.0
30
0.0
70
128
71
587
72
586
73
598
0
VERTEX
8
skin
10
0.0
20
0.0
30
0.0
70
128
71
600
72
598
73
586
0
VERTEX
8
skin
10
0.0
20
0.0
30
0.0
70
128
71
586
72
588
73
600
0
VERTEX
8
skin
10
0.0
20
0.0
30
0.0
70
128
71
601
72
600
73
588
0
VERTEX
8
skin
10
0.0
20
0.0
30
0.0
70
128
71
588
72
589
73
601
0
VERTEX
8
skin
10
0.0
20
0.0
30
0.0
70
128
71
602
72
601
73
589
0
VERTEX
8
skin
10
0.0
20
0.0
30
0.0
70
128
71
589
72
590
73
602
0
VERTEX
8
skin
10
0.0
20
0.0
30
0.0
70
128
71
603
72
602
73
590
0
VERTEX
8
skin
10
0.0
20
0.0
30
0.0
70
128
71
590
72
591
73
603
0
VERTEX
8
skin
10
0.0
20
0.0
30
0.0
70
128
71
604
72
603
73
591
0
VERTEX
8
skin
10
0.0
20
0.0
30
0.0
70
128
71
591
72
592
73
604
0
VERTEX
8
skin
10
0.0
20
0.0
30
0.0
70
128
71
605
72
604
73
592
0
VERTEX
8
skin
10
0.0
20
0.0
30
0.0
70
128
71
592
72
593
73
605
0
VERTEX
8
skin
10
0.0
20
0.0
30
0.0
70
128
71
606
72
605
73
593
0
VERTEX
8
skin
10
0.0
20
0.0
30
0.0
70
128
71
593
72
594
73
606
0
VERTEX
8
skin
10
0.0
20
0.0
30
0.0
70
128
71
607
72
606
73
594
0
VERTEX
8
skin
10
0.0
20
0.0
30
0.0
70
128
71
594
72
595
73
607
0
VERTEX
8
skin
10
0.0
20
0.0
30
0.0
70
128
71
608
72
607
73
595
0
VERTEX
8
skin
10
0.0
20
0.0
30
0.0
70
128
71
595
72
596
73
608
0
VERTEX
8
skin
10
0.0
20
0.0
30
0.0
70
128
71
609
72
608
73
596
0
VERTEX
8
skin
10
0.0
20
0.0
30
0.0
70
128
71
596
72
597
73
609
0
VERTEX
8
skin
10
0.0
20
0.0
30
0.0
70
128
71
599
72
609
73
597
0
VERTEX
8
skin
10
0.0
20
0.0
30
0.0
70
128
71
597
72
587
73
599
0
VERTEX
8
skin
10
0.0
20
0.0
30
0.0
70
128
71
610
72
611
73
599
0
VERTEX
8
skin
10
0.0
20
0.0
30
0.0
70
128
71
599
72
598
73
610
0
VERTEX
8
skin
10
0.0
20
0.0
30
0.0
70
128
71
612
72
610
73
598
0
VERTEX
8
skin
10
0.0
20
0.0
30
0.0
70
128
71
598
72
600
73
612
0
VERTEX
8
skin
10
0.0
20
0.0
30
0.0
70
128
71
613
72
612
73
600
0
VERTEX
8
skin
10
0.0
20
0.0
30
0.0
70
128
71
600
72
601
73
613
0
VERTEX
8
skin
10
0.0
20
0.0
30
0.0
70
128
71
614
72
613
73
601
0
VERTEX
8
skin
10
0.0
20
0.0
30
0.0
70
128
71
601
72
602
73
614
0
VERTEX
8
skin
10
0.0
20
0.0
30
0.0
70
128
71
615
72
614
73
602
0
VERTEX
8
skin
10
0.0
20
0.0
30
0.0
70
128
71
602
72
603
73
615
0
VERTEX
8
skin
10
0.0
20
0.0
30
0.0
70
128
71
616
72
615
73
603
0
VERTEX
8
skin
10
0.0
20
0.0
30
0.0
70
128
71
603
72
604
73
616
0
VERTEX
8
skin
10
0.0
20
0.0
30
0.0
70
128
71
617
72
616
73
604
0
VERTEX
8
skin
10
0.0
20
0.0
30
0.0
70
128
71
604
72
605
73
617
0
VERTEX
8
skin
10
0.0
20
0.0
30
0.0
70
128
71
618
72
617
73
605
0
VERTEX
8
skin
10
0.0
20
0.0
30
0.0
70
128
71
605
72
606
73
618
0
VERTEX
8
skin
10
0.0
20
0.0
30
0.0
70
128
71
619
72
618
73
606
0
VERTEX
8
skin
10
0.0
20
0.0
30
0.0
70
128
71
606
72
607
73
619
0
VERTEX
8
skin
10
0.0
20
0.0
30
0.0
70
128
71
620
72
619
73
607
0
VERTEX
8
skin
10
0.0
20
0.0
30
0.0
70
128
71
607
72
608
73
620
0
VERTEX
8
skin
10
0.0
20
0.0
30
0.0
70
128
71
621
72
620
73
608
0
VERTEX
8
skin
10
0.0
20
0.0
30
0.0
70
128
71
608
72
609
73
621
0
VERTEX
8
skin
10
0.0
20
0.0
30
0.0
70
128
71
611
72
621
73
609
0
VERTEX
8
skin
10
0.0
20
0.0
30
0.0
70
128
71
609
72
599
73
611
0
VERTEX
8
skin
10
0.0
20
0.0
30
0.0
70
128
71
611
72
610
73
622
0
VERTEX
8
skin
10
0.0
20
0.0
30
0.0
70
128
71
610
72
612
73
622
0
VERTEX
8
skin
10
0.0
20
0.0
30
0.0
70
128
71
612
72
613
73
622
0
VERTEX
8
skin
10
0.0
20
0.0
30
0.0
70
128
71
613
72
614
73
622
0
VERTEX
8
skin
10
0.0
20
0.0
30
0.0
70
128
71
614
72
615
73
622
0
VERTEX
8
skin
10
0.0
20
0.0
30
0.0
70
128
71
615
72
616
73
622
0
VERTEX
8
skin
10
0.0
20
0.0
30
0.0
70
128
71
616
72
617
73
622
0
VERTEX
8
skin
10
0.0
20
0.0
30
0.0
70
128
71
617
72
618
73
622
0
VERTEX
8
skin
10
0.0
20
0.0
30
0.0
70
128
71
618
72
619
73
622
0
VERTEX
8
skin
10
0.0
20
0.0
30
0.0
70
128
71
619
72
620
73
622
0
VERTEX
8
skin
10
0.0
20
0.0
30
0.0
70
128
71
620
72
621
73
622
0
VERTEX
8
skin
10
0.0
20
0.0
30
0.0
70
128
71
621
72
611
73
622
0
VERTEX
8
skin
10
0.0
20
0.0
30
0.0
70
128
71
623
72
624
73
625
0
VERTEX
8
skin
10
0.0
20
0.0
30
0.0
70
128
71
626
72
623
73
625
0
VERTEX
8
skin
10
0.0
20
0.0
30
0.0
70
128
71
627
72
626
73
625
0
VERTEX
8
skin
10
0.0
20
0.0
30
0.0
70
128
71
628
72
627
73
625
0
VERTEX
8
skin
10
0.0
20
0.0
30
0.0
70
128
71
629
72
628
73
625
0
VERTEX
8
skin
10
0.0
20
0.0
30
0.0
70
128
71
630
72
629
73
625
0
VERTEX
8
skin
10
0.0
20
0.0
30
0.0
70
128
71
631
72
630
73
625
0
VERTEX
8
skin
10
0.0
20
0.0
30
0.0
70
128
71
632
72
631
73
625
0
VERTEX
8
skin
10
0.0
20
0.0
30
0.0
70
128
71
633
72
632
73
625
0
VERTEX
8
skin
10
0.0
20
0.0
30
0.0
70
128
71
634
72
633
73
625
0
VERTEX
8
skin
10
0.0
20
0.0
30
0.0
70
128
71
635
72
634
73
625
0
VERTEX
8
skin
10
0.0
20
0.0
30
0.0
70
128
71
624
72
635
73
625
0
VERTEX
8
skin
10
0.0
20
0.0
30
0.0
70
128
71
636
72
637
73
624
0
VERTEX
8
skin
10
0.0
20
0.0
30
0.0
70
128
71
624
72
623
73
636
0
VERTEX
8
skin
10
0.0
20
0.0
30
0.0
70
128
71
638
72
636
73
623
0
VERTEX
8
skin
10
0.0
20
0.0
30
0.0
70
128
71
623
72
626
73
638
0
VERTEX
8
skin
10
0.0
20
0.0
30
0.0
70
128
71
639
72
638
73
626
0
VERTEX
8
skin
10
0.0
20
0.0
30
0.0
70
128
71
626
72
627
73
639
0
VERTEX
8
skin
10
0.0
20
0.0
30
0.0
70
128
71
640
72
639
73
627
0
VERTEX
8
skin
10
0.0
20
0.0
30
0.0
70
128
71
627
72
628
73
640
0
VERTEX
8
skin
10
0.0
20
0.0
30
0.0
70
128
71
641
72
640
73
628
0
VERTEX
8
skin
10
0.0
20
0.0
30
0.0
70
128
71
628
72
629
73
641
0
VERTEX
8
skin
10
0.0
20
0.0
30
0.0
70
128
71
642
72
641
73
629
0
VERTEX
8
skin
10
0.0
20
0.0
30
0.0
70
128
71
629
72
630
73
642
0
VERTEX
8
skin
10
0.0
20
0.0
30
0.0
70
128
71
643
72
642
73
630
0
VERTEX
8
skin
10
0.0
20
0.0
30
0.0
70
128
71
630
72
631
73
643
0
VERTEX
8
skin
10
0.0
20
0.0
30
0.0
70
128
71
644
72
643
73
631
0
VERTEX
8
skin
10
0.0
20
0.0
30
0.0
70
128
71
631
72
632
73
644
0
VERTEX
8
skin
10
0.0
20
0.0
30
0.0
70
128
71
645
72
644
73
632
0
VERTEX
8
skin
10
0.0
20
0.0
30
0.0
70
128
71
632
72
633
73
645
0
VERTEX
8
skin
10
0.0
20
0.0
30
0.0
70
128
71
646
72
645
73
633
0
VERTEX
8
skin
10
0.0
20
0.0
30
0.0
70
128
71
633
72
634
73
646
0
VERTEX
8
skin
10
0.0
20
0.0
30
0.0
70
128
71
647
72
646
73
634
0
VERTEX
8
skin
10
0.0
20
0.0
30
0.0
70
128
71
634
72
635
73
647
0
VERTEX
8
skin
10
0.0
20
0.0
30
0.0
70
128
71
637
72
647
73
635
0
VERTEX
8
skin
10
0.0
20
0.0
30
0.0
70
128
71
635
72
624
73
637
0
VERTEX
8
skin
10
0.0
20
0.0
30
0.0
70
128
71
648
72
649
73
637
0
VERTEX
8
skin
10
0.0
20
0.0
30
0.0
70
128
71
637
72
636
73
648
0
VERTEX
8
skin
10
0.0
20
0.0
30
0.0
70
128
71
650
72
648
73
636
0
VERTEX
8
skin
10
0.0
20
0.0
30
0.0
70
128
71
636
72
638
73
650
0
VERTEX
8
skin
10
0.0
20
0.0
30
0.0
70
128
71
651
72
650
73
638
0
VERTEX
8
skin
10
0.0
20
0.0
30
0.0
70
128
71
638
72
639
73
651
0
VERTEX
8
skin
10
0.0
20
0.0
30
0.0
70
128
71
652
72
651
73
639
0
VERTEX
8
skin
10
0.0
20
0.0
30
0.0
70
128
71
639
72
640
73
652
0
VERTEX
8
skin
10
0.0
20
0.0
30
0.0
70
128
71
653
72
652
73
640
0
VERTEX
8
skin
10
0.0
20
0.0
30
0.0
70
128
71
640
72
641
73
653
0
VERTEX
8
skin
10
0.0
20
0.0
30
0.0
70
128
71
654
72
653
73
641
0
VERTEX
8
skin
10
0.0
20
0.0
30
0.0
70
128
71
641
72
642
73
654
0
VERTEX
8
skin
10
0.0
20
0.0
30
0.0
70
128
71
655
72
654
73
642
0
VERTEX
8
skin
10
0.0
20
0.0
30
0.0
70
128
71
642
72
643
73
655
0
VERTEX
8
skin
10
0.0
20
0.0
30
0.0
70
128
71
656
72
655
73
643
0
VERTEX
8
skin
10
0.0
20
0.0
30
0.0
70
128
71
643
72
644
73
656
0
VERTEX
8
skin
10
0.0
20
0.0
30
0.0
70
128
71
657
72
656
73
644
0
VERTEX
8
skin
10
0.0
20
0.0
30
0.0
70
128
71
644
72
645
73
657
0
VERTEX
8
skin
10
0.0
20
0.0
30
0.0
70
128
71
658
72
657
73
645
0
VERTEX
8
skin
10
0.0
20
0.0
30
0.0
70
128
71
645
72
646
73
658
0
VERTEX
8
skin
10
0.0
20
0.0
30
0.0
70
128
71
659
72
658
73
646
0
VERTEX
8
skin
10
0.0
20
0.0
30
0.0
70
128
71
646
72
647
73
659
0
VERTEX
8
skin
10
0.0
20
0.0
30
0.0
70
128
71
649
72
659
73
647
0
VERTEX
8
skin
10
0.0
20
0.0
30
0.0
70
128
71
647
72
637
73
649
0
VERTEX
8
skin
10
0.0
20
0.0
30
0.0
70
128
71
660
72
661
73
649
0
VERTEX
8
skin
10
0.0
20
0.0
30
0.0
70
128
71
649
72
648
73
660
0
VERTEX
8
skin
10
0.0
20
0.0
30
0.0
70
128
71
662
72
660
73
648
0
VERTEX
8
skin
10
0.0
20
0.0
30
0.0
70
128
71
648
72
650
73
662
0
VERTEX
8
skin
10
0.0
20
0.0
30
0.0
70
128
71
663
72
662
73
650
0
VERTEX
8
skin
10
0.0
20
0.0
30
0.0
70
128
71
650
72
651
73
663
0
VERTEX
8
skin
10
0.0
20
0.0
30
0.0
70
128
71
664
72
663
73
651
0
VERTEX
8
skin
10
0.0
20
0.0
30
0.0
70
128
71
651
72
652
73
664
0
VERTEX
8
skin
10
0.0
20
0.0
30
0.0
70
128
71
665
72
664
73
652
0
VERTEX
8
skin
10
0.0
20
0.0
30
0.0
70
128
71
652
72
653
73
665
0
VERTEX
8
skin
10
0.0
20
0.0
30
0.0
70
128
71
666
72
665
73
653
0
VERTEX
8
skin
10
0.0
20
0.0
30
0.0
70
128
71
653
72
654
73
666
0
VERTEX
8
skin
10
0.0
20
0.0
30
0.0
70
128
71
667
72
666
73
654
0
VERTEX
8
skin
10
0.0
20
0.0
30
0.0
70
128
71
654
72
655
73
667
0
VERTEX
8
skin
10
0.0
20
0.0
30
0.0
70
128
71
668
72
667
73
655
0
VERTEX
8
skin
10
0.0
20
0.0
30
0.0
70
128
71
655
72
656
73
668
0
VERTEX
8
skin
10
0.0
20
0.0
30
0.0
70
128
71
669
72
668
73
656
0
VERTEX
8
skin
10
0.0
20
0.0
30
0.0
70
128
71
656
72
657
73
669
0
VERTEX
8
skin
10
0.0
20
0.0
30
0.0
70
128
71
670
72
669
73
657
0
VERTEX
8
skin
10
0.0
20
0.0
30
0.0
70
128
71
657
72
658
73
670
0
VERTEX
8
skin
10
0.0
20
0.0
30
0.0
70
128
71
671
72
670
73
658
0
VERTEX
8
skin
10
0.0
20
0.0
30
0.0
70
128
71
658
72
659
73
671
0
VERTEX
8
skin
10
0.0
20
0.0
30
0.0
70
128
71
661
72
671
73
659
0
VERTEX
8
skin
10
0.0
20
0.0
30
0.0
70
128
71
659
72
649
73
661
0
VERTEX
8
skin
10
0.0
20
0.0
30
0.0
70
128
71
672
72
673
73
661
0
VERTEX
8
skin
10
0.0
20
0.0
30
0.0
70
128
71
661
72
660
73
672
0
VERTEX
8
skin
10
0.0
20
0.0
30
0.0
70
128
71
674
72
672
73
660
0
VERTEX
8
skin
10
0.0
20
0.0
30
0.0
70
128
71
660
72
662
73
674
0
VERTEX
8
skin
10
0.0
20
0.0
30
0.0
70
128
71
675
72
674
73
662
0
VERTEX
8
skin
10
0.0
20
0.0
30
0.0
70
128
71
662
72
663
73
675
0
VERTEX
8
skin
10
0.0
20
0.0
30
0.0
70
128
71
676
72
675
73
663
0
VERTEX
8
skin
10
0.0
20
0.0
30
0.0
70
128
71
663
72
664
73
676
0
VERTEX
8
skin
10
0.0
20
0.0
30
0.0
70
128
71
677
72
676
73
664
0
VERTEX
8
skin
10
0.0
20
0.0
30
0.0
70
128
71
664
72
665
73
677
0
VERTEX
8
skin
10
0.0
20
0.0
30
0.0
70
128
71
678
72
677
73
665
0
VERTEX
8
skin
10
0.0
20
0.0
30
0.0
70
128
71
665
72
666
73
678
0
VERTEX
8
skin
10
0.0
20
0.0
30
0.0
70
128
71
679
72
678
73
666
0
VERTEX
8
skin
10
0.0
20
0.0
30
0.0
70
128
71
666
72
667
73
679
0
VERTEX
8
skin
10
0.0
20
0.0
30
0.0
70
128
71
680
72
679
73
667
0
VERTEX
8
skin
10
0.0
20
0.0
30
0.0
70
128
71
667
72
668
73
680
0
VERTEX
8
skin
10
0.0
20
0.0
30
0.0
70
128
71
681
72
680
73
668
0
VERTEX
8
skin
10
0.0
20
0.0
30
0.0
70
128
71
668
72
669
73
681
0
VERTEX
8
skin
10
0.0
20
0.0
30
0.0
70
128
71
682
72
681
73
669
0
VERTEX
8
skin
10
0.0
20
0.0
30
0.0
70
128
71
669
72
670
73
682
0
VERTEX
8
skin
10
0.0
20
0.0
30
0.0
70
128
71
683
72
682
73
670
0
VERTEX
8
skin
10
0.0
20
0.0
30
0.0
70
128
71
670
72
671
73
683
0
VERTEX
8
skin
10
0.0
20
0.0
30
0.0
70
128
71
673
72
683
73
671
0
VERTEX
8
skin
10
0.0
20
0.0
30
0.0
70
128
71
671
72
661
73
673
0
VERTEX
8
skin
10
0.0
20
0.0
30
0.0
70
128
71
673
72
672
73
684
0
VERTEX
8
skin
10
0.0
20
0.0
30
0.0
70
128
71
672
72
674
73
684
0
VERTEX
8
skin
10
0.0
20
0.0
30
0.0
70
128
71
674
72
675
73
684
0
VERTEX
8
skin
10
0.0
20
0.0
30
0.0
70
128
71
675
72
676
73
684
0
VERTEX
8
skin
10
0.0
20
0.0
30
0.0
70
128
71
676
72
677
73
684
0
VERTEX
8
skin
10
0.0
20
0.0
30
0.0
70
128
71
677
72
678
73
684
0
VERTEX
8
skin
10
0.0
20
0.0
30
0.0
70
128
71
678
72
679
73
684
0
VERTEX
8
skin
10
0.0
20
0.0
30
0.0
70
128
71
679
72
680
73
684
0
VERTEX
8
skin
10
0.0
20
0.0
30
0.0
70
128
71
680
72
681
73
684
0
VERTEX
8
skin
10
0.0
20
0.0
30
0.0
70
128
71
681
72
682
73
684
0
VERTEX
8
skin
10
0.0
20
0.0
30
0.0
70
128
71
682
72
683
73
684
0
VERTEX
8
skin
10
0.0
20
0.0
30
0.0
70
128
71
683
72
673
73
684
0
VERTEX
8
skin
10
0.0
20
0.0
30
0.0
70
128
71
685
72
686
73
687
0
VERTEX
8
skin
10
0.0
20
0.0
30
0.0
70
128
71
688
72
685
73
687
0
VERTEX
8
skin
10
0.0
20
0.0
30
0.0
70
128
71
689
72
688
73
687
0
VERTEX
8
skin
10
0.0
20
0.0
30
0.0
70
128
71
690
72
689
73
687
0
VERTEX
8
skin
10
0.0
20
0.0
30
0.0
70
128
71
691
72
690
73
687
0
VERTEX
8
skin
10
0.0
20
0.0
30
0.0
70
128
71
692
72
691
73
687
0
VERTEX
8
skin
10
0.0
20
0.0
30
0.0
70
128
71
693
72
692
73
687
0
VERTEX
8
skin
10
0.0
20
0.0
30
0.0
70
128
71
694
72
693
73
687
0
VERTEX
8
skin
10
0.0
20
0.0
30
0.0
70
128
71
695
72
694
73
687
0
VERTEX
8
skin
10
0.0
20
0.0
30
0.0
70
128
71
696
72
695
73
687
0
VERTEX
8
skin
10
0.0
20
0.0
30
0.0
70
128
71
697
72
696
73
687
0
VERTEX
8
skin
10
0.0
20
0.0
30
0.0
70
128
71
686
72
697
73
687
0
VERTEX
8
skin
10
0.0
20
0.0
30
0.0
70
128
71
698
72
699
73
686
0
VERTEX
8
skin
10
0.0
20
0.0
30
0.0
70
128
71
686
72
685
73
698
0
VERTEX
8
skin
10
0.0
20
0.0
30
0.0
70
128
71
700
72
698
73
685
0
VERTEX
8
skin
10
0.0
20
0.0
30
0.0
70
128
71
685
72
688
73
700
0
VERTEX
8
skin
10
0.0
20
0.0
30
0.0
70
128
71
701
72
700
73
688
0
VERTEX
8
skin
10
0.0
20
0.0
30
0.0
70
128
71
688
72
689
73
701
0
VERTEX
8
skin
10
0.0
20
0.0
30
0.0
70
128
71
702
72
701
73
689
0
VERTEX
8
skin
10
0.0
20
0.0
30
0.0
70
128
71
689
72
690
73
702
0
VERTEX
8
skin
10
0.0
20
0.0
30
0.0
70
128
71
703
72
702
73
690
0
VERTEX
8
skin
10
0.0
20
0.0
30
0.0
70
128
71
690
72
691
73
703
0
VERTEX
8
skin
10
0.0
20
0.0
30
0.0
70
128
71
704
72
703
73
691
0
VERTEX
8
skin
10
0.0
20
0.0
30
0.0
70
128
71
691
72
692
73
704
0
VERTEX
8
skin
10
0.0
20
0.0
30
0.0
70
128
71
705
72
704
73
692
0
VERTEX
8
skin
10
0.0
20
0.0
30
0.0
70
128
71
692
72
693
73
705
0
VERTEX
8
skin
10
0.0
20
0.0
30
0.0
70
128
71
706
72
705
73
693
0
VERTEX
8
skin
10
0.0
20
0.0
30
0.0
70
128
71
693
72
694
73
706
0
VERTEX
8
skin
10
0.0
20
0.0
30
0.0
70
128
71
707
72
706
73
694
0
VERTEX
8
skin
10
0.0
20
0.0
30
0.0
70
128
71
694
72
695
73
707
0
VERTEX
8
skin
10
0.0
20
0.0
30
0.0
70
128
71
708
72
707
73
695
0
VERTEX
8
skin
10
0.0
20
0.0
30
0.0
70
128
71
695
72
696
73
708
0
VERTEX
8
skin
10
0.0
20
0.0
30
0.0
70
128
71
709
72
708
73
696
0
VERTEX
8
skin
10
0.0
20
0.0
30
0.0
70
128
71
696
72
697
73
709
0
VERTEX
8
skin
10
0.0
20
0.0
30
0.0
70
128
71
699
72
709
73
697
0
VERTEX
8
skin
10
0.0
20
0.0
30
0.0
70
128
71
697
72
686
73
699
0
VERTEX
8
skin
10
0.0
20
0.0
30
0.0
70
128
71
710
72
711
73
699
0
VERTEX
8
skin
10
0.0
20
0.0
30
0.0
70
128
71
699
72
698
73
710
0
VERTEX
8
skin
10
0.0
20
0.0
30
0.0
70
128
71
712
72
710
73
698
0
VERTEX
8
skin
10
0.0
20
0.0
30
0.0
70
128
71
698
72
700
73
712
0
VERTEX
8
skin
10
0.0
20
0.0
30
0.0
70
128
71
713
72
712
73
700
0
VERTEX
8
skin
10
0.0
20
0.0
30
0.0
70
128
71
700
72
701
73
713
0
VERTEX
8
skin
10
0.0
20
0.0
30
0.0
70
128
71
714
72
713
73
701
0
VERTEX
8
skin
10
0.0
20
0.0
30
0.0
70
128
71
701
72
702
73
714
0
VERTEX
8
skin
10
0.0
20
0.0
30
0.0
70
128
71
715
72
714
73
702
0
VERTEX
8
skin
10
0.0
20
0.0
30
0.0
70
128
71
702
72
703
73
715
0
VERTEX
8
skin
10
0.0
20
0.0
30
0.0
70
128
71
716
72
715
73
703
0
VERTEX
8
skin
10
0.0
20
0.0
30
0.0
70
128
71
703
72
704
73
716
0
VERTEX
8
skin
10
0.0
20
0.0
30
0.0
70
128
71
717
72
716
73
704
0
VERTEX
8
skin
10
0.0
20
0.0
30
0.0
70
128
71
704
72
705
73
717
0
VERTEX
8
skin
10
0.0
20
0.0
30
0.0
70
128
71
718
72
717
73
705
0
VERTEX
8
skin
10
0.0
20
0.0
30
0.0
70
128
71
705
72
706
73
718
0
VERTEX
8
skin
10
0.0
20
0.0
30
0.0
70
128
71
719
72
718
73
706
0
VERTEX
8
skin
10
0.0
20
0.0
30
0.0
70
128
71
706
72
707
73
719
0
VERTEX
8
skin
10
0.0
20
0.0
30
0.0
70
128
71
720
72
719
73
707
0
VERTEX
8
skin
10
0.0
20
0.0
30
0.0
70
128
71
707
72
708
73
720
0
VERTEX
8
skin
10
0.0
20
0.0
30
0.0
70
128
71
721
72
720
73
708
0
VERTEX
8
skin
10
0.0
20
0.0
30
0.0
70
128
71
708
72
709
73
721
0
VERTEX
8
skin
10
0.0
20
0.0
30
0.0
70
128
71
711
72
721
73
709
0
VERTEX
8
skin
10
0.0
20
0.0
30
0.0
70
128
71
709
72
699
73
711
0
VERTEX
8
skin
10
0.0
20
0.0
30
0.0
70
128
71
722
72
723
73
711
0
VERTEX
8
skin
10
0.0
20
0.0
30
0.0
70
128
71
711
72
710
73
722
0
VERTEX
8
skin
10
0.0
20
0.0
30
0.0
70
128
71
724
72
722
73
710
0
VERTEX
8
skin
10
0.0
20
0.0
30
0.0
70
128
71
710
72
712
73
724
0
VERTEX
8
skin
10
0.0
20
0.0
30
0.0
70
128
71
725
72
724
73
712
0
VERTEX
8
skin
10
0.0
20
0.0
30
0.0
70
128
71
712
72
713
73
725
0
VERTEX
8
skin
10
0.0
20
0.0
30
0.0
70
128
71
726
72
725
73
713
0
VERTEX
8
skin
10
0.0
20
0.0
30
0.0
70
128
71
713
72
714
73
726
0
VERTEX
8
skin
10
0.0
20
0.0
30
0.0
70
128
71
727
72
726
73
714
0
VERTEX
8
skin
10
0.0
20
0.0
30
0.0
70
128
71
714
72
715
73
727
0
VERTEX
8
skin
10
0.0
20
0.0
30
0.0
70
128
71
728
72
727
73
715
0
VERTEX
8
skin
10
0.0
20
0.0
30
0.0
70
128
71
715
72
716
73
728
0
VERTEX
8
skin
10
0.0
20
0.0
30
0.0
70
128
71
729
72
728
73
716
0
VERTEX
8
skin
10
0.0
20
0.0
30
0.0
70
128
71
716
72
717
73
729
0
VERTEX
8
skin
10
0.0
20
0.0
30
0.0
70
128
71
730
72
729
73
717
0
VERTEX
8
skin
10
0.0
20
0.0
30
0.0
70
128
71
717
72
718
73
730
0
VERTEX
8
skin
10
0.0
20
0.0
30
0.0
70
128
71
731
72
730
73
718
0
VERTEX
8
skin
10
0.0
20
0.0
30
0.0
70
128
71
718
72
719
73
731
0
VERTEX
8
skin
10
0.0
20
0.0
30
0.0
70
128
71
732
72
731
73
719
0
VERTEX
8
skin
10
0.0
20
0.0
30
0.0
70
128
71
719
72
720
73
732
0
VERTEX
8
skin
10
0.0
20
0.0
30
0.0
70
128
71
733
72
732
73
720
0
VERTEX
8
skin
10
0.0
20
0.0
30
0.0
70
128
71
720
72
721
73
733
0
VERTEX
8
skin
10
0.0
20
0.0
30
0.0
70
128
71
723
72
733
73
721
0
VERTEX
8
skin
10
0.0
20
0.0
30
0.0
70
128
71
721
72
711
73
723
0
VERTEX
8
skin
10
0.0
20
0.0
30
0.0
70
128
71
734
72
735
73
723
0
VERTEX
8
skin
10
0.0
20
0.0
30
0.0
70
128
71
723
72
722
73
734
0
VERTEX
8
skin
10
0.0
20
0.0
30
0.0
70
128
71
736
72
734
73
722
0
VERTEX
8
skin
10
0.0
20
0.0
30
0.0
70
128
71
722
72
724
73
736
0
VERTEX
8
skin
10
0.0
20
0.0
30
0.0
70
128
71
737
72
736
73
724
0
VERTEX
8
skin
10
0.0
20
0.0
30
0.0
70
128
71
724
72
725
73
737
0
VERTEX
8
skin
10
0.0
20
0.0
30
0.0
70
128
71
738
72
737
73
725
0
VERTEX
8
skin
10
0.0
20
0.0
30
0.0
70
128
71
725
72
726
73
738
0
VERTEX
8
skin
10
0.0
20
0.0
30
0.0
70
128
71
739
72
738
73
726
0
VERTEX
8
skin
10
0.0
20
0.0
30
0.0
70
128
71
726
72
727
73
739
0
VERTEX
8
skin
10
0.0
20
0.0
30
0.0
70
128
71
740
72
739
73
727
0
VERTEX
8
skin
10
0.0
20
0.0
30
0.0
70
128
71
727
72
728
73
740
0
VERTEX
8
skin
10
0.0
20
0.0
30
0.0
70
128
71
741
72
740
73
728
0
VERTEX
8
skin
10
0.0
20
0.0
30
0.0
70
128
71
728
72
729
73
741
0
VERTEX
8
skin
10
0.0
20
0.0
30
0.0
70
128
71
742
72
741
73
729
0
VERTEX
8
skin
10
0.0
20
0.0
30
0.0
70
128
71
729
72
730
73
742
0
VERTEX
8
skin
10
0.0
20
0.0
30
0.0
70
128
71
743
72
742
73
730
0
VERTEX
8
skin
10
0.0
20
0.0
30
0.0
70
128
71
730
72
731
73
743
0
VERTEX
8
skin
10
0.0
20
0.0
30
0.0
70
128
71
744
72
743
73
731
0
VERTEX
8
skin
10
0.0
20
0.0
30
0.0
70
128
71
731
72
732
73
744
0
VERTEX
8
skin
10
0.0
20
0.0
30
0.0
70
128
71
745
72
744
73
732
0
VERTEX
8
skin
10
0.0
20
0.0
30
0.0
70
128
71
732
72
733
73
745
0
VERTEX
8
skin
10
0.0
20
0.0
30
0.0
70
128
71
735
72
745
73
733
0
VERTEX
8
skin
10
0.0
20
0.0
30
0.0
70
128
71
733
72
723
73
735
0
VERTEX
8
skin
10
0.0
20
0.0
30
0.0
70
128
71
735
72
734
73
746
0
VERTEX
8
skin
10
0.0
20
0.0
30
0.0
70
128
71
734
72
736
73
746
0
VERTEX
8
skin
10
0.0
20
0.0
30
0.0
70
128
71
736
72
737
73
746
0
VERTEX
8
skin
10
0.0
20
0.0
30
0.0
70
128
71
737
72
738
73
746
0
VERTEX
8
skin
10
0.0
20
0.0
30
0.0
70
128
71
738
72
739
73
746
0
VERTEX
8
skin
10
0.0
20
0.0
30
0.0
70
128
71
739
72
740
73
746
0
VERTEX
8
skin
10
0.0
20
0.0
30
0.0
70
128
71
740
72
741
73
746
0
VERTEX
8
skin
10
0.0
20
0.0
30
0.0
70
128
71
741
72
742
73
746
0
VERTEX
8
skin
10
0.0
20
0.0
30
0.0
70
128
71
742
72
743
73
746
0
VERTEX
8
skin
10
0.0
20
0.0
30
0.0
70
128
71
743
72
744
73
746
0
VERTEX
8
skin
10
0.0
20
0.0
30
0.0
70
128
71
744
72
745
73
746
0
VERTEX
8
skin
10
0.0
20
0.0
30
0.0
70
128
71
745
72
735
73
746
0
VERTEX
8
skin
10
0.0
20
0.0
30
0.0
70
128
71
747
72
748
73
749
0
VERTEX
8
skin
10
0.0
20
0.0
30
0.0
70
128
71
750
72
747
73
749
0
VERTEX
8
skin
10
0.0
20
0.0
30
0.0
70
128
71
751
72
750
73
749
0
VERTEX
8
skin
10
0.0
20
0.0
30
0.0
70
128
71
752
72
751
73
749
0
VERTEX
8
skin
10
0.0
20
0.0
30
0.0
70
128
71
753
72
752
73
749
0
VERTEX
8
skin
10
0.0
20
0.0
30
0.0
70
128
71
754
72
753
73
749
0
VERTEX
8
skin
10
0.0
20
0.0
30
0.0
70
128
71
755
72
754
73
749
0
VERTEX
8
skin
10
0.0
20
0.0
30
0.0
70
128
71
756
72
755
73
749
0
VERTEX
8
skin
10
0.0
20
0.0
30
0.0
70
128
71
757
72
756
73
749
0
VERTEX
8
skin
10
0.0
20
0.0
30
0.0
70
128
71
758
72
757
73
749
0
VERTEX
8
skin
10
0.0
20
0.0
30
0.0
70
128
71
759
72
758
73
749
0
VERTEX
8
skin
10
0.0
20
0.0
30
0.0
70
128
71
748
72
759
73
749
0
VERTEX
8
skin
10
0.0
20
0.0
30
0.0
70
128
71
760
72
761
73
748
0
VERTEX
8
skin
10
0.0
20
0.0
30
0.0
70
128
71
748
72
747
73
760
0
VERTEX
8
skin
10
0.0
20
0.0
30
0.0
70
128
71
762
72
760
73
747
0
VERTEX
8
skin
10
0.0
20
0.0
30
0.0
70
128
71
747
72
750
73
762
0
VERTEX
8
skin
10
0.0
20
0.0
30
0.0
70
128
71
763
72
762
73
750
0
VERTEX
8
skin
10
0.0
20
0.0
30
0.0
70
128
71
750
72
751
73
763
0
VERTEX
8
skin
10
0.0
20
0.0
30
0.0
70
128
71
764
72
763
73
751
0
VERTEX
8
skin
10
0.0
20
0.0
30
0.0
70
128
71
751
72
752
73
764
0
VERTEX
8
skin
10
0.0
20
0.0
30
0.0
70
128
71
765
72
764
73
752
0
VERTEX
8
skin
10
0.0
20
0.0
30
0.0
70
128
71
752
72
753
73
765
0
VERTEX
8
skin
10
0.0
20
0.0
30
0.0
70
128
71
766
72
765
73
753
0
VERTEX
8
skin
10
0.0
20
0.0
30
0.0
70
128
71
753
72
754
73
766
0
VERTEX
8
skin
10
0.0
20
0.0
30
0.0
70
128
71
767
72
766
73
754
0
VERTEX
8
skin
10
0.0
20
0.0
30
0.0
70
128
71
754
72
755
73
767
0
VERTEX
8
skin
10
0.0
20
0.0
30
0.0
70
128
71
768
72
767
73
755
0
VERTEX
8
skin
10
0.0
20
0.0
30
0.0
70
128
71
755
72
756
73
768
0
VERTEX
8
skin
10
0.0
20
0.0
30
0.0
70
128
71
769
72
768
73
756
0
VERTEX
8
skin
10
0.0
20
0.0
30
0.0
70
128
71
756
72
757
73
769
0
VERTEX
8
skin
10
0.0
20
0.0
30
0.0
70
128
71
770
72
769
73
757
0
VERTEX
8
skin
10
0.0
20
0.0
30
0.0
70
128
71
757
72
758
73
770
0
VERTEX
8
skin
10
0.0
20
0.0
30
0.0
70
128
71
771
72
770
73
758
0
VERTEX
8
skin
10
0.0
20
0.0
30
0.0
70
128
71
758
72
759
73
771
0
VERTEX
8
skin
10
0.0
20
0.0
30
0.0
70
128
71
761
72
771
73
759
0
VERTEX
8
skin
10
0.0
20
0.0
30
0.0
70
128
71
759
72
748
73
761
0
VERTEX
8
skin
10
0.0
20
0.0
30
0.0
70
128
71
772
72
773
73
761
0
VERTEX
8
skin
10
0.0
20
0.0
30
0.0
70
128
71
761
72
760
73
772
0
VERTEX
8
skin
10
0.0
20
0.0
30
0.0
70
128
71
774
72
772
73
760
0
VERTEX
8
skin
10
0.0
20
0.0
30
0.0
70
128
71
760
72
762
73
774
0
VERTEX
8
skin
10
0.0
20
0.0
30
0.0
70
128
71
775
72
774
73
762
0
VERTEX
8
skin
10
0.0
20
0.0
30
0.0
70
128
71
762
72
763
73
775
0
VERTEX
8
skin
10
0.0
20
0.0
30
0.0
70
128
71
776
72
775
73
763
0
VERTEX
8
skin
10
0.0
20
0.0
30
0.0
70
128
71
763
72
764
73
776
0
VERTEX
8
skin
10
0.0
20
0.0
30
0.0
70
128
71
777
72
776
73
764
0
VERTEX
8
skin
10
0.0
20
0.0
30
0.0
70
128
71
764
72
765
73
777
0
VERTEX
8
skin
10
0.0
20
0.0
30
0.0
70
128
71
778
72
777
73
765
0
VERTEX
8
skin
10
0.0
20
0.0
30
0.0
70
128
71
765
72
766
73
778
0
VERTEX
8
skin
10
0.0
20
0.0
30
0.0
70
128
71
779
72
778
73
766
0
VERTEX
8
skin
10
0.0
20
0.0
30
0.0
70
128
71
766
72
767
73
779
0
VERTEX
8
skin
10
0.0
20
0.0
30
0.0
70
128
71
780
72
779
73
767
0
VERTEX
8
skin
10
0.0
20
0.0
30
0.0
70
128
71
767
72
768
73
780
0
VERTEX
8
skin
10
0.0
20
0.0
30
0.0
70
128
71
781
72
780
73
768
0
VERTEX
8
skin
10
0.0
20
0.0
30
0.0
70
128
71
768
72
769
73
781
0
VERTEX
8
skin
10
0.0
20
0.0
30
0.0
70
128
71
782
72
781
73
769
0
VERTEX
8
skin
10
0.0
20
0.0
30
0.0
70
128
71
769
72
770
73
782
0
VERTEX
8
skin
10
0.0
20
0.0
30
0.0
70
128
71
783
72
782
73
770
0
VERTEX
8
skin
10
0.0
20
0.0
30
0.0
70
128
71
770
72
771
73
783
0
VERTEX
8
skin
10
0.0
20
0.0
30
0.0
70
128
71
773
72
783
73
771
0
VERTEX
8
skin
10
0.0
20
0.0
30
0.0
70
128
71
771
72
761
73
773
0
VERTEX
8
skin
10
0.0
20
0.0
30
0.0
70
128
71
784
72
785
73
773
0
VERTEX
8
skin
10
0.0
20
0.0
30
0.0
70
128
71
773
72
772
73
784
0
VERTEX
8
skin
10
0.0
20
0.0
30
0.0
70
128
71
786
72
784
73
772
0
VERTEX
8
skin
10
0.0
20
0.0
30
0.0
70
128
71
772
72
774
73
786
0
VERTEX
8
skin
10
0.0
20
0.0
30
0.0
70
128
71
787
72
786
73
774
0
VERTEX
8
skin
10
0.0
20
0.0
30
0.0
70
128
71
774
72
775
73
787
0
VERTEX
8
skin
10
0.0
20
0.0
30
0.0
70
128
71
788
72
787
73
775
0
VERTEX
8
skin
10
0.0
20
0.0
30
0.0
70
128
71
775
72
776
73
788
0
VERTEX
8
skin
10
0.0
20
0.0
30
0.0
70
128
71
789
72
788
73
776
0
VERTEX
8
skin
10
0.0
20
0.0
30
0.0
70
128
71
776
72
777
73
789
0
VERTEX
8
skin
10
0.0
20
0.0
30
0.0
70
128
71
790
72
789
73
777
0
VERTEX
8
skin
10
0.0
20
0.0
30
0.0
70
128
71
777
72
778
73
790
0
VERTEX
8
skin
10
0.0
20
0.0
30
0.0
70
128
71
791
72
790
73
778
0
VERTEX
8
skin
10
0.0
20
0.0
30
0.0
70
128
71
778
72
779
73
791
0
VERTEX
8
skin
10
0.0
20
0.0
30
0.0
70
128
71
792
72
791
73
779
0
VERTEX
8
skin
10
0.0
20
0.0
30
0.0
70
128
71
779
72
780
73
792
0
VERTEX
8
skin
10
0.0
20
0.0
30
0.0
70
128
71
793
72
792
73
780
0
VERTEX
8
skin
10
0.0
20
0.0
30
0.0
70
128
71
780
72
781
73
793
0
VERTEX
8
skin
10
0.0
20
0.0
30
0.0
70
128
71
794
72
793
73
781
0
VERTEX
8
skin
10
0.0
20
0.0
30
0.0
70
128
71
781
72
782
73
794
0
VERTEX
8
skin
10
0.0
20
0.0
30
0.0
70
128
71
795
72
794
73
782
0
VERTEX
8
skin
10
0.0
20
0.0
30
0.0
70
128
71
782
72
783
73
795
0
VERTEX
8
skin
10
0.0
20
0.0
30
0.0
70
128
71
785
72
795
73
783
0
VERTEX
8
skin
10
0.0
20
0.0
30
0.0
70
128
71
783
72
773
73
785
0
VERTEX
8
skin
10
0.0
20
0.0
30
0.0
70
128
71
796
72
797
73
785
0
VERTEX
8
skin
10
0.0
20
0.0
30
0.0
70
128
71
785
72
784
73
796
0
VERTEX
8
skin
10
0.0
20
0.0
30
0.0
70
128
71
798
72
796
73
784
0
VERTEX
8
skin
10
0.0
20
0.0
30
0.0
70
128
71
784
72
786
73
798
0
VERTEX
8
skin
10
0.0
20
0.0
30
0.0
70
128
71
799
72
798
73
786
0
VERTEX
8
skin
10
0.0
20
0.0
30
0.0
70
128
71
786
72
787
73
799
0
VERTEX
8
skin
10
0.0
20
0.0
30
0.0
70
128
71
800
72
799
73
787
0
VERTEX
8
skin
10
0.0
20
0.0
30
0.0
70
128
71
787
72
788
73
800
0
VERTEX
8
skin
10
0.0
20
0.0
30
0.0
70
128
71
801
72
800
73
788
0
VERTEX
8
skin
10
0.0
20
0.0
30
0.0
70
128
71
788
72
789
73
801
0
VERTEX
8
skin
10
0.0
20
0.0
30
0.0
70
128
71
802
72
801
73
789
0
VERTEX
8
skin
10
0.0
20
0.0
30
0.0
70
128
71
789
72
790
73
802
0
VERTEX
8
skin
10
0.0
20
0.0
30
0.0
70
128
71
803
72
802
73
790
0
VERTEX
8
skin
10
0.0
20
0.0
30
0.0
70
128
71
790
72
791
73
803
0
VERTEX
8
skin
10
0.0
20
0.0
30
0.0
70
128
71
804
72
803
73
791
0
VERTEX
8
skin
10
0.0
20
0.0
30
0.0
70
128
71
791
72
792
73
804
0
VERTEX
8
skin
10
0.0
20
0.0
30
0.0
70
128
71
805
72
804
73
792
0
VERTEX
8
skin
10
0.0
20
0.0
30
0.0
70
128
71
792
72
793
73
805
0
VERTEX
8
skin
10
0.0
20
0.0
30
0.0
70
128
71
806
72
805
73
793
0
VERTEX
8
skin
10
0.0
20
0.0
30
0.0
70
128
71
793
72
794
73
806
0
VERTEX
8
skin
10
0.0
20
0.0
30
0.0
70
128
71
807
72
806
73
794
0
VERTEX
8
skin
10
0.0
20
0.0
30
0.0
70
128
71
794
72
795
73
807
0
VERTEX
8
skin
10
0.0
20
0.0
30
0.0
70
128
71
797
72
807
73
795
0
VERTEX
8
skin
10
0.0
20
0.0
30
0.0
70
128
71
795
72
785
73
797
0
VERTEX
8
skin
10
0.0
20
0.0
30
0.0
70
128
71
797
72
796
73
808
0
VERTEX
8
skin
10
0.0
20
0.0
30
0.0
70
128
71
796
72
798
73
808
0
VERTEX
8
skin
10
0.0
20
0.0
30
0.0
70
128
71
798
72
799
73
808
0
VERTEX
8
skin
10
0.0
20
0.0
30
0.0
70
128
71
799
72
800
73
808
0
VERTEX
8
skin
10
0.0
20
0.0
30
0.0
70
128
71
800
72
801
73
808
0
VERTEX
8
skin
10
0.0
20
0.0
30
0.0
70
128
71
801
72
802
73
808
0
VERTEX
8
skin
10
0.0
20
0.0
30
0.0
70
128
71
802
72
803
73
808
0
VERTEX
8
skin
10
0.0
20
0.0
30
0.0
70
128
71
803
72
804
73
808
0
VERTEX
8
skin
10
0.0
20
0.0
30
0.0
70
128
71
804
72
805
73
808
0
VERTEX
8
skin
10
0.0
20
0.0
30
0.0
70
128
71
805
72
806
73
808
0
VERTEX
8
skin
10
0.0
20
0.0
30
0.0
70
128
71
806
72
807
73
808
0
VERTEX
8
skin
10
0.0
20
0.0
30
0.0
70
128
71
807
72
797
73
808
0
VERTEX
8
skin
10
0.0
20
0.0
30
0.0
70
128
71
809
72
810
73
811
0
VERTEX
8
skin
10
0.0
20
0.0
30
0.0
70
128
71
812
72
809
73
811
0
VERTEX
8
skin
10
0.0
20
0.0
30
0.0
70
128
71
813
72
812
73
811
0
VERTEX
8
skin
10
0.0
20
0.0
30
0.0
70
128
71
814
72
813
73
811
0
VERTEX
8
skin
10
0.0
20
0.0
30
0.0
70
128
71
815
72
814
73
811
0
VERTEX
8
skin
10
0.0
20
0.0
30
0.0
70
128
71
816
72
815
73
811
0
VERTEX
8
skin
10
0.0
20
0.0
30
0.0
70
128
71
817
72
816
73
811
0
VERTEX
8
skin
10
0.0
20
0.0
30
0.0
70
128
71
818
72
817
73
811
0
VERTEX
8
skin
10
0.0
20
0.0
30
0.0
70
128
71
819
72
818
73
811
0
VERTEX
8
skin
10
0.0
20
0.0
30
0.0
70
128
71
820
72
819
73
811
0
VERTEX
8
skin
10
0.0
20
0.0
30
0.0
70
128
71
821
72
820
73
811
0
VERTEX
8
skin
10
0.0
20
0.0
30
0.0
70
128
71
810
72
821
73
811
0
VERTEX
8
skin
10
0.0
20
0.0
30
0.0
70
128
71
822
72
823
73
810
0
VERTEX
8
skin
10
0.0
20
0.0
30
0.0
70
128
71
810
72
809
73
822
0
VERTEX
8
skin
10
0.0
20
0.0
30
0.0
70
128
71
824
72
822
73
809
0
VERTEX
8
skin
10
0.0
20
0.0
30
0.0
70
128
71
809
72
812
73
824
0
VERTEX
8
skin
10
0.0
20
0.0
30
0.0
70
128
71
825
72
824
73
812
0
VERTEX
8
skin
10
0.0
20
0.0
30
0.0
70
128
71
812
72
813
73
825
0
VERTEX
8
skin
10
0.0
20
0.0
30
0.0
70
128
71
826
72
825
73
813
0
VERTEX
8
skin
10
0.0
20
0.0
30
0.0
70
128
71
813
72
814
73
826
0
VERTEX
8
skin
10
0.0
20
0.0
30
0.0
70
128
71
827
72
826
73
814
0
VERTEX
8
skin
10
0.0
20
0.0
30
0.0
70
128
71
814
72
815
73
827
0
VERTEX
8
skin
10
0.0
20
0.0
30
0.0
70
128
71
828
72
827
73
815
0
VERTEX
8
skin
10
0.0
20
0.0
30
0.0
70
128
71
815
72
816
73
828
0
VERTEX
8
skin
10
0.0
20
0.0
30
0.0
70
128
71
829
72
828
73
816
0
VERTEX
8
skin
10
0.0
20
0.0
30
0.0
70
128
71
816
72
817
73
829
0
VERTEX
8
skin
10
0.0
20
0.0
30
0.0
70
128
71
830
72
829
73
817
0
VERTEX
8
skin
10
0.0
20
0.0
30
0.0
70
128
71
817
72
818
73
830
0
VERTEX
8
skin
10
0.0
20
0.0
30
0.0
70
128
71
831
72
830
73
818
0
VERTEX
8
skin
10
0.0
20
0.0
30
0.0
70
128
71
818
72
819
73
831
0
VERTEX
8
skin
10
0.0
20
0.0
30
0.0
70
128
71
832
72
831
73
819
0
VERTEX
8
skin
10
0.0
20
0.0
30
0.0
70
128
71
819
72
820
73
832
0
VERTEX
8
skin
10
0.0
20
0.0
30
0.0
70
128
71
833
72
832
73
820
0
VERTEX
8
skin
10
0.0
20
0.0
30
0.0
70
128
71
820
72
821
73
833
0
VERTEX
8
skin
10
0.0
20
0.0
30
0.0
70
128
71
823
72
833
73
821
0
VERTEX
8
skin
10
0.0
20
0.0
30
0.0
70
128
71
821
72
810
73
823
0
VERTEX
8
skin
10
0.0
20
0.0
30
0.0
70
128
71
834
72
835
73
823
0
VERTEX
8
skin
10
0.0
20
0.0
30
0.0
70
128
71
823
72
822
73
834
0
VERTEX
8
skin
10
0.0
20
0.0
30
0.0
70
128
71
836
72
834
73
822
0
VERTEX
8
skin
10
0.0
20
0.0
30
0.0
70
128
71
822
72
824
73
836
0
VERTEX
8
skin
10
0.0
20
0.0
30
0.0
70
128
71
837
72
836
73
824
0
VERTEX
8
skin
10
0.0
20
0.0
30
0.0
70
128
71
824
72
825
73
837
0
VERTEX
8
skin
10
0.0
20
0.0
30
0.0
70
128
71
838
72
837
73
825
0
VERTEX
8
skin
10
0.0
20
0.0
30
0.0
70
128
71
825
72
826
73
838
0
VERTEX
8
skin
10
0.0
20
0.0
30
0.0
70
128
71
839
72
838
73
826
0
VERTEX
8
skin
10
0.0
20
0.0
30
0.0
70
128
71
826
72
827
73
839
0
VERTEX
8
skin
10
0.0
20
0.0
30
0.0
70
128
71
840
72
839
73
827
0
VERTEX
8
skin
10
0.0
20
0.0
30
0.0
70
128
71
827
72
828
73
840
0
VERTEX
8
skin
10
0.0
20
0.0
30
0.0
70
128
71
841
72
840
73
828
0
VERTEX
8
skin
10
0.0
20
0.0
30
0.0
70
128
71
828
72
829
73
841
0
VERTEX
8
skin
10
0.0
20
0.0
30
0.0
70
128
71
842
72
841
73
829
0
VERTEX
8
skin
10
0.0
20
0.0
30
0.0
70
128
71
829
72
830
73
842
0
VERTEX
8
skin
10
0.0
20
0.0
30
0.0
70
128
71
843
72
842
73
830
0
VERTEX
8
skin
10
0.0
20
0.0
30
0.0
70
128
71
830
72
831
73
843
0
VERTEX
8
skin
10
0.0
20
0.0
30
0.0
70
128
71
844
72
843
73
831
0
VERTEX
8
skin
10
0.0
20
0.0
30
0.0
70
128
71
831
72
832
73
844
0
VERTEX
8
skin
10
0.0
20
0.0
30
0.0
70
128
71
845
72
844
73
832
0
VERTEX
8
skin
10
0.0
20
0.0
30
0.0
70
128
71
832
72
833
73
845
0
VERTEX
8
skin
10
0.0
20
0.0
30
0.0
70
128
71
835
72
845
73
833
0
VERTEX
8
skin
10
0.0
20
0.0
30
0.0
70
128
71
833
72
823
73
835
0
VERTEX
8
skin
10
0.0
20
0.0
30
0.0
70
128
71
846
72
847
73
835
0
VERTEX
8
skin
10
0.0
20
0.0
30
0.0
70
128
71
835
72
834
73
846
0
VERTEX
8
skin
10
0.0
20
0.0
30
0.0
70
128
71
848
72
846
73
834
0
VERTEX
8
skin
10
0.0
20
0.0
30
0.0
70
128
71
834
72
836
73
848
0
VERTEX
8
skin
10
0.0
20
0.0
30
0.0
70
128
71
849
72
848
73
836
0
VERTEX
8
skin
10
0.0
20
0.0
30
0.0
70
128
71
836
72
837
73
849
0
VERTEX
8
skin
10
0.0
20
0.0
30
0.0
70
128
71
850
72
849
73
837
0
VERTEX
8
skin
10
0.0
20
0.0
30
0.0
70
128
71
837
72
838
73
850
0
VERTEX
8
skin
10
0.0
20
0.0
30
0.0
70
128
71
851
72
850
73
838
0
VERTEX
8
skin
10
0.0
20
0.0
30
0.0
70
128
71
838
72
839
73
851
0
VERTEX
8
skin
10
0.0
20
0.0
30
0.0
70
128
71
852
72
851
73
839
0
VERTEX
8
skin
10
0.0
20
0.0
30
0.0
70
128
71
839
72
840
73
852
0
VERTEX
8
skin
10
0.0
20
0.0
30
0.0
70
128
71
853
72
852
73
840
0
VERTEX
8
skin
10
0.0
20
0.0
30
0.0
70
128
71
840
72
841
73
853
0
VERTEX
8
skin
10
0.0
20
0.0
30
0.0
70
128
71
854
72
853
73
841
0
VERTEX
8
skin
10
0.0
20
0.0
30
0.0
70
128
71
841
72
842
73
854
0
VERTEX
8
skin
10
0.0
20
0.0
30
0.0
70
128
71
855
72
854
73
842
0
VERTEX
8
skin
10
0.0
20
0.0
30
0.0
70
128
71
842
72
843
73
855
0
VERTEX
8
skin
10
0.0
20
0.0
30
0.0
70
128
71
856
72
855
73
843
0
VERTEX
8
skin
10
0.0
20
0.0
30
0.0
70
128
71
843
72
844
73
856
0
VERTEX
8
skin
10
0.0
20
0.0
30
0.0
70
128
71
857
72
856
73
844
0
VERTEX
8
skin
10
0.0
20
0.0
30
0.0
70
128
71
844
72
845
73
857
0
VERTEX
8
skin
10
0.0
20
0.0
30
0.0
70
128
71
847
72
857
73
845
0
VERTEX
8
skin
10
0.0
20
0.0
30
0.0
70
128
71
845
72
835
73
847
0
VERTEX
8
skin
10
0.0
20
0.0
30
0.0
70
128
71
858
72
859
73
847
0
VERTEX
8
skin
10
0.0
20
0.0
30
0.0
70
128
71
847
72
846
73
858
0
VERTEX
8
skin
10
0.0
20
0.0
30
0.0
70
128
71
860
72
858
73
846
0
VERTEX
8
skin
10
0.0
20
0.0
30
0.0
70
128
71
846
72
848
73
860
0
VERTEX
8
skin
10
0.0
20
0.0
30
0.0
70
128
71
861
72
860
73
848
0
VERTEX
8
skin
10
0.0
20
0.0
30
0.0
70
128
71
848
72
849
73
861
0
VERTEX
8
skin
10
0.0
20
0.0
30
0.0
70
128
71
862
72
861
73
849
0
VERTEX
8
skin
10
0.0
20
0.0
30
0.0
70
128
71
849
72
850
73
862
0
VERTEX
8
skin
10
0.0
20
0.0
30
0.0
70
128
71
863
72
862
73
850
0
VERTEX
8
skin
10
0.0
20
0.0
30
0.0
70
128
71
850
72
851
73
863
0
VERTEX
8
skin
10
0.0
20
0.0
30
0.0
70
128
71
864
72
863
73
851
0
VERTEX
8
skin
10
0.0
20
0.0
30
0.0
70
128
71
851
72
852
73
864
0
VERTEX
8
skin
10
0.0
20
0.0
30
0.0
70
128
71
865
72
864
73
852
0
VERTEX
8
skin
10
0.0
20
0.0
30
0.0
70
128
71
852
72
853
73
865
0
VERTEX
8
skin
10
0.0
20
0.0
30
0.0
70
128
71
866
72
865
73
853
0
VERTEX
8
skin
10
0.0
20
0.0
30
0.0
70
128
71
853
72
854
73
866
0
VERTEX
8
skin
10
0.0
20
0.0
30
0.0
70
128
71
867
72
866
73
854
0
VERTEX
8
skin
10
0.0
20
0.0
30
0.0
70
128
71
854
72
855
73
867
0
VERTEX
8
skin
10
0.0
20
0.0
30
0.0
70
128
71
868
72
867
73
855
0
VERTEX
8
skin
10
0.0
20
0.0
30
0.0
70
128
71
855
72
856
73
868
0
VERTEX
8
skin
10
0.0
20
0.0
30
0.0
70
128
71
869
72
868
73
856
0
VERTEX
8
skin
10
0.0
20
0.0
30
0.0
70
128
71
856
72
857
73
869
0
VERTEX
8
skin
10
0.0
20
0.0
30
0.0
70
128
71
859
72
869
73
857
0
VERTEX
8
skin
10
0.0
20
0.0
30
0.0
70
128
71
857
72
847
73
859
0
VERTEX
8
skin
10
0.0
20
0.0
30
0.0
70
128
71
859
72
858
73
870
0
VERTEX
8
skin
10
0.0
20
0.0
30
0.0
70
128
71
858
72
860
73
870
0
VERTEX
8
skin
10
0.0
20
0.0
30
0.0
70
128
71
860
72
861
73
870
0
VERTEX
8
skin
10
0.0
20
0.0
30
0.0
70
128
71
861
72
862
73
870
0
VERTEX
8
skin
10
0.0
20
0.0
30
0.0
70
128
71
862
72
863
73
870
0
VERTEX
8
skin
10
0.0
20
0.0
30
0.0
70
128
71
863
72
864
73
870
0
VERTEX
8
skin
10
0.0
20
0.0
30
0.0
70
128
71
864
72
865
73
870
0
VERTEX
8
skin
10
0.0
20
0.0
30
0.0
70
128
71
865
72
866
73
870
0
VERTEX
8
skin
10
0.0
20
0.0
30
0.0
70
128
71
866
72
867
73
870
0
VERTEX
8
skin
10
0.0
20
0.0
30
0.0
70
128
71
867
72
868
73
870
0
VERTEX
8
skin
10
0.0
20
0.0
30
0.0
70
128
71
868
72
869
73
870
0
VERTEX
8
skin
10
0.0
20
0.0
30
0.0
70
128
71
869
72
859
73
870
0
SEQEND
8
skin
0
ENDSEC
0
EOF
